<?xml version="1.0" encoding="UTF-8" standalone="no"?>
<!DOCTYPE svg PUBLIC "-//W3C//DTD SVG 1.1//EN"
 "http://www.w3.org/Graphics/SVG/1.1/DTD/svg11.dtd">
<!-- Generated by graphviz version 2.43.0 (0)
 -->
<!-- Title: G Pages: 1 -->
<svg width="664pt" height="554pt"
 viewBox="0.00 0.00 664.22 554.43" xmlns="http://www.w3.org/2000/svg" xmlns:xlink="http://www.w3.org/1999/xlink">
<g id="graph0" class="graph" transform="scale(1 1) rotate(0) translate(4 550.43)">
<title>G</title><style>.edge>path:hover{stroke-width:8}</style>
<polygon fill="white" stroke="transparent" points="-4,4 -4,-550.43 660.22,-550.43 660.22,4 -4,4"/>
<!-- pandas -->
<g id="node1" class="node">
<title>pandas</title><style>.edge>path:hover{stroke-width:8}</style>
<ellipse fill="#9f0404" stroke="black" cx="355.59" cy="-18" rx="30.72" ry="18"/>
<text text-anchor="middle" x="355.59" y="-15.5" font-family="Helvetica,sans-Serif" font-size="10.00" fill="#ffffff">pandas</text>
</g>
<!-- pandas_api -->
<g id="node2" class="node">
<title>pandas_api</title><style>.edge>path:hover{stroke-width:8}</style>
<ellipse fill="#bf2121" stroke="black" cx="87.59" cy="-528.43" rx="41.41" ry="18"/>
<text text-anchor="middle" x="87.59" y="-525.93" font-family="Helvetica,sans-Serif" font-size="10.00" fill="#ffffff">pandas.api</text>
</g>
<!-- pandas_api&#45;&gt;pandas -->
<g id="edge1" class="edge">
<title>pandas_api&#45;&gt;pandas</title><style>.edge>path:hover{stroke-width:8}</style>
<path fill="none" stroke="black" d="M70.19,-511.84C45.06,-487.52 1.59,-437.88 1.59,-385.43 1.59,-385.43 1.59,-385.43 1.59,-311.43 1.59,-270.98 -4.77,-253.93 20.59,-222.43 56.39,-177.96 122.88,-224.59 137.59,-169.43"/>
<path fill="none" stroke="black" d="M137.59,-167.43C145.36,-135.83 124.54,-124.02 137.59,-94.21"/>
<path fill="none" stroke="black" d="M137.59,-92.21C152.24,-58.75 257.36,-35.71 316.11,-25.3"/>
<polygon fill="#bf2121" stroke="black" points="316.9,-28.71 326.16,-23.56 315.71,-21.82 316.9,-28.71"/>
</g>
<!-- pandas_core -->
<g id="node5" class="node">
<title>pandas_core</title><style>.edge>path:hover{stroke-width:8}</style>
<ellipse fill="#9f0404" stroke="black" cx="349.59" cy="-456.43" rx="44.98" ry="18"/>
<text text-anchor="middle" x="349.59" y="-453.93" font-family="Helvetica,sans-Serif" font-size="10.00" fill="#ffffff">pandas.core</text>
</g>
<!-- pandas_api&#45;&gt;pandas_core -->
<g id="edge2" class="edge">
<title>pandas_api&#45;&gt;pandas_core</title><style>.edge>path:hover{stroke-width:8}</style>
<path fill="none" stroke="black" d="M131.6,-515.67C179.22,-502.95 254.82,-482.75 303.31,-469.79"/>
<polygon fill="#bf2121" stroke="black" points="130.6,-512.31 121.84,-518.28 132.41,-519.08 130.6,-512.31"/>
<polygon fill="#bf2121" stroke="black" points="304.47,-473.11 313.23,-467.14 302.66,-466.34 304.47,-473.11"/>
</g>
<!-- pandas_io -->
<g id="node7" class="node">
<title>pandas_io</title><style>.edge>path:hover{stroke-width:8}</style>
<ellipse fill="#af1313" stroke="black" cx="203.59" cy="-168.43" rx="37.85" ry="18"/>
<text text-anchor="middle" x="203.59" y="-165.93" font-family="Helvetica,sans-Serif" font-size="10.00" fill="#ffffff">pandas.io</text>
</g>
<!-- pandas_api&#45;&gt;pandas_io -->
<g id="edge3" class="edge">
<title>pandas_api&#45;&gt;pandas_io</title><style>.edge>path:hover{stroke-width:8}</style>
<path fill="none" stroke="black" d="M92.35,-500.52C100.51,-456.61 118.83,-367.14 144.59,-294.43 157.18,-258.88 176.55,-219.88 189.62,-195.05"/>
<polygon fill="#bf2121" stroke="black" points="88.89,-499.95 90.54,-510.42 95.78,-501.21 88.89,-499.95"/>
<polygon fill="#bf2121" stroke="black" points="192.86,-196.43 194.47,-185.95 186.68,-193.13 192.86,-196.43"/>
</g>
<!-- pandas_arrays -->
<g id="node3" class="node">
<title>pandas_arrays</title><style>.edge>path:hover{stroke-width:8}</style>
<ellipse fill="#b83d3d" stroke="black" cx="605.59" cy="-384.43" rx="50.75" ry="18"/>
<text text-anchor="middle" x="605.59" y="-381.93" font-family="Helvetica,sans-Serif" font-size="10.00" fill="#ffffff">pandas.arrays</text>
</g>
<!-- pandas_arrays&#45;&gt;pandas -->
<g id="edge4" class="edge">
<title>pandas_arrays&#45;&gt;pandas</title><style>.edge>path:hover{stroke-width:8}</style>
<path fill="none" stroke="black" d="M603.56,-366.23C602.34,-351.92 601.71,-331.11 605.59,-313.43"/>
</g>
<!-- pandas_compat -->
<g id="node4" class="node">
<title>pandas_compat</title><style>.edge>path:hover{stroke-width:8}</style>
<ellipse fill="#c11515" stroke="black" cx="83.59" cy="-240.43" rx="54.31" ry="18"/>
<text text-anchor="middle" x="83.59" y="-237.93" font-family="Helvetica,sans-Serif" font-size="10.00" fill="#ffffff">pandas.compat</text>
</g>
<!-- pandas_compat&#45;&gt;pandas -->
<g id="edge6" class="edge">
<title>pandas_compat&#45;&gt;pandas</title><style>.edge>path:hover{stroke-width:8}</style>
<path fill="none" stroke="black" d="M102.01,-223.49C115.3,-210.53 131.86,-190.93 137.59,-169.43"/>
</g>
<!-- pandas_compat&#45;&gt;pandas_io -->
<g id="edge8" class="edge">
<title>pandas_compat&#45;&gt;pandas_io</title><style>.edge>path:hover{stroke-width:8}</style>
<path fill="none" stroke="black" d="M109.33,-224.41C127.65,-213.73 152.36,-199.31 171.89,-187.92"/>
<polygon fill="#c11515" stroke="black" points="173.85,-190.83 180.73,-182.76 170.33,-184.78 173.85,-190.83"/>
</g>
<!-- pandas_util -->
<g id="node10" class="node">
<title>pandas_util</title><style>.edge>path:hover{stroke-width:8}</style>
<ellipse fill="#d10505" stroke="black" cx="349.59" cy="-384.43" rx="41.59" ry="18"/>
<text text-anchor="middle" x="349.59" y="-381.93" font-family="Helvetica,sans-Serif" font-size="10.00" fill="#ffffff">pandas.util</text>
</g>
<!-- pandas_core&#45;&gt;pandas -->
<g id="edge10" class="edge">
<title>pandas_core&#45;&gt;pandas</title><style>.edge>path:hover{stroke-width:8}</style>
<path fill="none" stroke="black" d="M378.22,-442.48C443.88,-412.41 600.09,-338.49 605.59,-313.43"/>
<path fill="none" stroke="black" d="M605.59,-311.43C635.18,-211.21 582.39,-174.57 515.59,-94.21"/>
</g>
<!-- pandas_core&#45;&gt;pandas_arrays -->
<g id="edge12" class="edge">
<title>pandas_core&#45;&gt;pandas_arrays</title><style>.edge>path:hover{stroke-width:8}</style>
<path fill="none" stroke="black" d="M395.12,-442.98C440.57,-430.55 510.18,-411.52 556.76,-398.78"/>
<polygon fill="#9f0404" stroke="black" points="394.18,-439.61 385.46,-445.62 396.03,-446.36 394.18,-439.61"/>
<polygon fill="#9f0404" stroke="black" points="557.89,-402.1 566.62,-396.08 556.05,-395.34 557.89,-402.1"/>
</g>
<!-- pandas_core&#45;&gt;pandas_compat -->
<g id="edge13" class="edge">
<title>pandas_core&#45;&gt;pandas_compat</title><style>.edge>path:hover{stroke-width:8}</style>
<path fill="none" stroke="black" d="M301.9,-443.74C246.77,-427.69 157.38,-393.38 108.59,-330.43 94.8,-312.63 88.62,-287.62 85.85,-268.64"/>
<polygon fill="#9f0404" stroke="black" points="301.2,-447.18 311.77,-446.53 303.1,-440.44 301.2,-447.18"/>
<polygon fill="#9f0404" stroke="black" points="89.3,-268.03 84.6,-258.54 82.35,-268.89 89.3,-268.03"/>
</g>
<!-- pandas_core&#45;&gt;pandas_io -->
<g id="edge14" class="edge">
<title>pandas_core&#45;&gt;pandas_io</title><style>.edge>path:hover{stroke-width:8}</style>
<path fill="none" stroke="black" d="M323.73,-432.89C314.83,-424.09 305.4,-413.47 298.59,-402.43 271.9,-359.11 279.61,-341.62 260.59,-294.43 246.58,-259.66 228.29,-220.48 216.26,-195.4"/>
<polygon fill="#9f0404" stroke="black" points="321.36,-435.46 331.02,-439.82 326.18,-430.39 321.36,-435.46"/>
<polygon fill="#9f0404" stroke="black" points="219.32,-193.69 211.82,-186.2 213.02,-196.73 219.32,-193.69"/>
</g>
<!-- pandas_plotting -->
<g id="node8" class="node">
<title>pandas_plotting</title><style>.edge>path:hover{stroke-width:8}</style>
<ellipse fill="#a51d1d" stroke="black" cx="355.59" cy="-93.21" rx="38.78" ry="21.43"/>
<text text-anchor="middle" x="355.59" y="-96.21" font-family="Helvetica,sans-Serif" font-size="10.00" fill="#ffffff">pandas.</text>
<text text-anchor="middle" x="355.59" y="-85.21" font-family="Helvetica,sans-Serif" font-size="10.00" fill="#ffffff">plotting</text>
</g>
<!-- pandas_core&#45;&gt;pandas_plotting -->
<g id="edge15" class="edge">
<title>pandas_core&#45;&gt;pandas_plotting</title><style>.edge>path:hover{stroke-width:8}</style>
<path fill="none" stroke="black" d="M386.83,-437.45C402.22,-428.59 419.3,-416.71 431.59,-402.43 477.39,-349.2 481.82,-327.07 496.59,-258.43 501.5,-235.63 493.66,-153.29 491.59,-150.43 471.14,-122.02 433.62,-107.92 403.16,-100.95"/>
<polygon fill="#9f0404" stroke="black" points="385.07,-434.42 378.01,-442.31 388.45,-440.55 385.07,-434.42"/>
<polygon fill="#9f0404" stroke="black" points="403.65,-97.47 393.14,-98.84 402.21,-104.32 403.65,-97.47"/>
</g>
<!-- pandas_tseries -->
<g id="node9" class="node">
<title>pandas_tseries</title><style>.edge>path:hover{stroke-width:8}</style>
<ellipse fill="#b62020" stroke="black" cx="435.59" cy="-240.43" rx="51.61" ry="18"/>
<text text-anchor="middle" x="435.59" y="-237.93" font-family="Helvetica,sans-Serif" font-size="10.00" fill="#ffffff">pandas.tseries</text>
</g>
<!-- pandas_core&#45;&gt;pandas_tseries -->
<g id="edge16" class="edge">
<title>pandas_core&#45;&gt;pandas_tseries</title><style>.edge>path:hover{stroke-width:8}</style>
<path fill="none" stroke="black" d="M375.2,-433.08C399.13,-410.17 432.87,-372.1 444.59,-330.43 450.32,-310.06 447.4,-286.16 443.42,-268.26"/>
<polygon fill="#9f0404" stroke="black" points="372.74,-430.58 367.82,-439.96 377.52,-435.7 372.74,-430.58"/>
<polygon fill="#9f0404" stroke="black" points="446.8,-267.35 441.01,-258.48 440,-269.03 446.8,-267.35"/>
</g>
<!-- pandas_core&#45;&gt;pandas_util -->
<g id="edge17" class="edge">
<title>pandas_core&#45;&gt;pandas_util</title><style>.edge>path:hover{stroke-width:8}</style>
<path fill="none" stroke="black" d="M349.59,-428.09C349.59,-423.11 349.59,-417.92 349.59,-412.93"/>
<polygon fill="#9f0404" stroke="black" points="346.09,-428.12 349.59,-438.12 353.09,-428.12 346.09,-428.12"/>
<polygon fill="#9f0404" stroke="black" points="353.09,-412.53 349.59,-402.53 346.09,-412.53 353.09,-412.53"/>
</g>
<!-- pandas_errors -->
<g id="node6" class="node">
<title>pandas_errors</title><style>.edge>path:hover{stroke-width:8}</style>
<ellipse fill="#e90c0c" stroke="black" cx="202.59" cy="-312.43" rx="48.72" ry="18"/>
<text text-anchor="middle" x="202.59" y="-309.93" font-family="Helvetica,sans-Serif" font-size="10.00" fill="#ffffff">pandas.errors</text>
</g>
<!-- pandas_errors&#45;&gt;pandas -->
<g id="edge18" class="edge">
<title>pandas_errors&#45;&gt;pandas</title><style>.edge>path:hover{stroke-width:8}</style>
<path fill="none" stroke="black" d="M204.93,-294.25C206.38,-279.95 207.33,-259.15 203.59,-241.43"/>
<path fill="none" stroke="black" d="M203.59,-239.43C194.76,-197.59 126.58,-210.74 137.59,-169.43"/>
</g>
<!-- pandas_errors&#45;&gt;pandas_compat -->
<g id="edge19" class="edge">
<title>pandas_errors&#45;&gt;pandas_compat</title><style>.edge>path:hover{stroke-width:8}</style>
<path fill="none" stroke="black" d="M177.65,-296.75C160.35,-286.58 137.09,-272.89 118.03,-261.68"/>
<polygon fill="#e90c0c" stroke="black" points="119.72,-258.62 109.33,-256.56 116.17,-264.65 119.72,-258.62"/>
</g>
<!-- pandas_errors&#45;&gt;pandas_core -->
<g id="edge20" class="edge">
<title>pandas_errors&#45;&gt;pandas_core</title><style>.edge>path:hover{stroke-width:8}</style>
<path fill="none" stroke="black" d="M211.82,-330.33C222.83,-349.43 242.65,-380.67 265.59,-402.43 279.71,-415.82 297.71,-427.7 313.42,-436.8"/>
<polygon fill="#e90c0c" stroke="black" points="311.92,-439.98 322.35,-441.83 315.36,-433.88 311.92,-439.98"/>
</g>
<!-- pandas_errors&#45;&gt;pandas_io -->
<g id="edge21" class="edge">
<title>pandas_errors&#45;&gt;pandas_io</title><style>.edge>path:hover{stroke-width:8}</style>
<path fill="none" stroke="black" d="M203.59,-239.43C200.67,-225.58 200.41,-209.86 200.99,-196.82"/>
<polygon fill="#e90c0c" stroke="black" points="204.49,-196.81 201.63,-186.6 197.51,-196.36 204.49,-196.81"/>
</g>
<!-- pandas_errors&#45;&gt;pandas_plotting -->
<g id="edge22" class="edge">
<title>pandas_errors&#45;&gt;pandas_plotting</title><style>.edge>path:hover{stroke-width:8}</style>
<path fill="none" stroke="black" d="M214.34,-294.74C240.57,-257.51 304.1,-167.31 336.26,-121.66"/>
<polygon fill="#e90c0c" stroke="black" points="339.17,-123.6 342.07,-113.41 333.45,-119.57 339.17,-123.6"/>
</g>
<!-- pandas_errors&#45;&gt;pandas_tseries -->
<g id="edge23" class="edge">
<title>pandas_errors&#45;&gt;pandas_tseries</title><style>.edge>path:hover{stroke-width:8}</style>
<path fill="none" stroke="black" d="M239.25,-300.41C279.41,-288.35 343.94,-268.96 387.98,-255.73"/>
<polygon fill="#e90c0c" stroke="black" points="389.03,-259.07 397.6,-252.84 387.01,-252.37 389.03,-259.07"/>
</g>
<!-- pandas_io&#45;&gt;pandas -->
<g id="edge24" class="edge">
<title>pandas_io&#45;&gt;pandas</title><style>.edge>path:hover{stroke-width:8}</style>
<path fill="none" stroke="black" d="M178.08,-154.84C155.14,-141.62 126.61,-119.3 137.59,-94.21"/>
</g>
<!-- pandas_io&#45;&gt;pandas_plotting -->
<g id="edge27" class="edge">
<title>pandas_io&#45;&gt;pandas_plotting</title><style>.edge>path:hover{stroke-width:8}</style>
<path fill="none" stroke="black" d="M229.38,-155.01C253.7,-143.29 290.44,-125.6 318.02,-112.31"/>
<polygon fill="#af1313" stroke="black" points="319.86,-115.31 327.35,-107.81 316.83,-109 319.86,-115.31"/>
</g>
<!-- pandas_plotting&#45;&gt;pandas -->
<g id="edge28" class="edge">
<title>pandas_plotting&#45;&gt;pandas</title><style>.edge>path:hover{stroke-width:8}</style>
<path fill="none" stroke="black" d="M355.59,-71.82C355.59,-63.97 355.59,-54.86 355.59,-46.45"/>
<polygon fill="#a51d1d" stroke="black" points="359.09,-46.31 355.59,-36.31 352.09,-46.31 359.09,-46.31"/>
</g>
<!-- pandas_tseries&#45;&gt;pandas -->
<g id="edge31" class="edge">
<title>pandas_tseries&#45;&gt;pandas</title><style>.edge>path:hover{stroke-width:8}</style>
<path fill="none" stroke="black" d="M477.59,-167.43C477.94,-130.77 537.75,-123.42 515.59,-94.21"/>
<path fill="none" stroke="black" d="M515.59,-92.21C486.31,-53.62 431.9,-34.75 394.74,-25.97"/>
<polygon fill="#b62020" stroke="black" points="395.27,-22.5 384.75,-23.76 393.76,-29.34 395.27,-22.5"/>
</g>
<!-- pandas_tseries&#45;&gt;pandas_plotting -->
<g id="edge33" class="edge">
<title>pandas_tseries&#45;&gt;pandas_plotting</title><style>.edge>path:hover{stroke-width:8}</style>
<path fill="none" stroke="black" d="M452.08,-223.22C463.76,-209.98 477.4,-190.12 477.59,-169.43"/>
<path fill="none" stroke="black" d="M477.59,-167.43C477.94,-130.78 436.91,-112.02 402.35,-102.72"/>
<polygon fill="#b62020" stroke="black" points="402.89,-99.25 392.35,-100.24 401.21,-106.05 402.89,-99.25"/>
</g>
<!-- pandas_util&#45;&gt;pandas -->
<g id="edge34" class="edge">
<title>pandas_util&#45;&gt;pandas</title><style>.edge>path:hover{stroke-width:8}</style>
<path fill="none" stroke="black" d="M430.59,-311.43C454.87,-282.69 478.4,-291.36 496.59,-258.43 532.12,-194.12 560,-152.74 515.59,-94.21"/>
</g>
<!-- pandas_util&#45;&gt;pandas_compat -->
<g id="edge35" class="edge">
<title>pandas_util&#45;&gt;pandas_compat</title><style>.edge>path:hover{stroke-width:8}</style>
<path fill="none" stroke="black" d="M298.36,-380.19C254.16,-375.2 190.39,-362.53 144.59,-330.43 122.18,-314.72 105.48,-287.95 95.28,-267.87"/>
<polygon fill="#d10505" stroke="black" points="298.01,-383.67 308.32,-381.22 298.73,-376.71 298.01,-383.67"/>
<polygon fill="#d10505" stroke="black" points="98.31,-266.09 90.79,-258.62 92.01,-269.15 98.31,-266.09"/>
</g>
<!-- pandas_util&#45;&gt;pandas_errors -->
<g id="edge37" class="edge">
<title>pandas_util&#45;&gt;pandas_errors</title><style>.edge>path:hover{stroke-width:8}</style>
<path fill="none" stroke="black" d="M322.63,-370.59C299.6,-359.62 266.21,-343.72 240.49,-331.47"/>
<polygon fill="#d10505" stroke="black" points="241.93,-328.28 231.39,-327.14 238.92,-334.6 241.93,-328.28"/>
</g>
<!-- pandas_util&#45;&gt;pandas_io -->
<g id="edge38" class="edge">
<title>pandas_util&#45;&gt;pandas_io</title><style>.edge>path:hover{stroke-width:8}</style>
<path fill="none" stroke="black" d="M341.51,-366.59C326.62,-336.31 292.91,-271.3 255.59,-222.43 247.4,-211.7 237.21,-200.88 228.03,-191.85"/>
<polygon fill="#d10505" stroke="black" points="230.25,-189.13 220.62,-184.71 225.4,-194.17 230.25,-189.13"/>
</g>
<!-- pandas_util&#45;&gt;pandas_plotting -->
<g id="edge39" class="edge">
<title>pandas_util&#45;&gt;pandas_plotting</title><style>.edge>path:hover{stroke-width:8}</style>
<path fill="none" stroke="black" d="M350.16,-356.04C351.28,-301.91 353.78,-181.59 354.96,-124.89"/>
<polygon fill="#d10505" stroke="black" points="346.66,-356.13 349.95,-366.2 353.66,-356.28 346.66,-356.13"/>
<polygon fill="#d10505" stroke="black" points="358.46,-124.83 355.17,-114.76 351.46,-124.68 358.46,-124.83"/>
</g>
<!-- pandas_util&#45;&gt;pandas_tseries -->
<g id="edge40" class="edge">
<title>pandas_util&#45;&gt;pandas_tseries</title><style>.edge>path:hover{stroke-width:8}</style>
<path fill="none" stroke="black" d="M370.15,-368.58C387.55,-355.37 412.48,-334.87 430.59,-313.43"/>
<path fill="none" stroke="black" d="M430.59,-311.43C440.36,-299.86 441.83,-283.02 440.74,-268.75"/>
<polygon fill="#d10505" stroke="black" points="444.18,-267.99 439.51,-258.48 437.23,-268.82 444.18,-267.99"/>
</g>
</g>
</svg>
