<?xml version="1.0" encoding="UTF-8" standalone="no"?>
<!DOCTYPE svg PUBLIC "-//W3C//DTD SVG 1.1//EN"
 "http://www.w3.org/Graphics/SVG/1.1/DTD/svg11.dtd">
<!-- Generated by graphviz version 2.38.0 (20140413.2041)
 -->
<!-- Title: G Pages: 1 -->
<svg width="687pt" height="624pt"
 viewBox="0.00 0.00 686.66 623.56" xmlns="http://www.w3.org/2000/svg" xmlns:xlink="http://www.w3.org/1999/xlink">
<g id="graph0" class="graph" transform="scale(1 1) rotate(0) translate(4 619.558)">
<title>G</title>
<polygon fill="white" stroke="none" points="-4,4 -4,-619.558 682.659,-619.558 682.659,4 -4,4"/>
<!-- pydeps_render_context -->
<g id="node1" class="node"><title>pydeps_render_context</title>
<ellipse fill="#47c2c2" stroke="black" cx="57.2756" cy="-328.492" rx="57.0522" ry="21.4286"/>
<text text-anchor="middle" x="57.2756" y="-331.492" font-family="Helvetica,sans-Serif" font-size="10.00" fill="#000000">pydeps.</text>
<text text-anchor="middle" x="57.2756" y="-320.492" font-family="Helvetica,sans-Serif" font-size="10.00" fill="#000000">render_context</text>
</g>
<!-- pydeps_depgraph2dot -->
<g id="node11" class="node"><title>pydeps_depgraph2dot</title>
<ellipse fill="#3ab0b0" stroke="black" cx="90.2756" cy="-250.066" rx="53.066" ry="21.4286"/>
<text text-anchor="middle" x="90.2756" y="-253.066" font-family="Helvetica,sans-Serif" font-size="10.00" fill="#000000">pydeps.</text>
<text text-anchor="middle" x="90.2756" y="-242.066" font-family="Helvetica,sans-Serif" font-size="10.00" fill="#000000">depgraph2dot</text>
</g>
<!-- pydeps_render_context&#45;&gt;pydeps_depgraph2dot -->
<g id="edge22" class="edge"><title>pydeps_render_context&#45;&gt;pydeps_depgraph2dot</title>
<path fill="none" stroke="black" d="M65.946,-307.412C69.5081,-299.163 73.7039,-289.445 77.599,-280.425"/>
<polygon fill="#47c2c2" stroke="black" points="80.9123,-281.58 81.6632,-271.012 74.4858,-278.805 80.9123,-281.58"/>
</g>
<!-- pydeps_mf27 -->
<g id="node2" class="node"><title>pydeps_mf27</title>
<ellipse fill="#47c2c2" stroke="black" cx="636.276" cy="-250.066" rx="42.2678" ry="18"/>
<text text-anchor="middle" x="636.276" y="-247.566" font-family="Helvetica,sans-Serif" font-size="10.00" fill="#000000">pydeps.mf27</text>
</g>
<!-- pydeps_py2depgraph -->
<g id="node15" class="node"><title>pydeps_py2depgraph</title>
<ellipse fill="#309191" stroke="black" cx="452.276" cy="-171.64" rx="50.8235" ry="21.4286"/>
<text text-anchor="middle" x="452.276" y="-174.64" font-family="Helvetica,sans-Serif" font-size="10.00" fill="#ffffff">pydeps.</text>
<text text-anchor="middle" x="452.276" y="-163.64" font-family="Helvetica,sans-Serif" font-size="10.00" fill="#ffffff">py2depgraph</text>
</g>
<!-- pydeps_mf27&#45;&gt;pydeps_py2depgraph -->
<g id="edge15" class="edge"><title>pydeps_mf27&#45;&gt;pydeps_py2depgraph</title>
<path fill="none" stroke="black" d="M607.12,-236.956C577.387,-224.606 530.88,-205.289 496.588,-191.045"/>
<polygon fill="#47c2c2" stroke="black" points="497.842,-187.776 487.264,-187.173 495.157,-194.241 497.842,-187.776"/>
</g>
<!-- pydeps_pycompat -->
<g id="node3" class="node"><title>pydeps_pycompat</title>
<ellipse fill="#26d9d9" stroke="black" cx="298.276" cy="-485.345" rx="41.9398" ry="21.4286"/>
<text text-anchor="middle" x="298.276" y="-488.345" font-family="Helvetica,sans-Serif" font-size="10.00" fill="#000000">pydeps.</text>
<text text-anchor="middle" x="298.276" y="-477.345" font-family="Helvetica,sans-Serif" font-size="10.00" fill="#000000">pycompat</text>
</g>
<!-- pydeps_cli -->
<g id="node6" class="node"><title>pydeps_cli</title>
<ellipse fill="#17d3d3" stroke="black" cx="277.276" cy="-328.492" rx="35.8171" ry="18"/>
<text text-anchor="middle" x="277.276" y="-325.992" font-family="Helvetica,sans-Serif" font-size="10.00" fill="#000000">pydeps.cli</text>
</g>
<!-- pydeps_pycompat&#45;&gt;pydeps_cli -->
<g id="edge18" class="edge"><title>pydeps_pycompat&#45;&gt;pydeps_cli</title>
<path fill="none" stroke="black" d="M275.705,-467.492C264.245,-457.482 251.463,-443.715 245.276,-428.132 238.317,-410.607 240.451,-403.934 245.276,-385.706 248.194,-374.682 253.832,-363.559 259.573,-354.15"/>
<polygon fill="#26d9d9" stroke="black" points="262.537,-356.012 265.023,-345.713 256.657,-352.213 262.537,-356.012"/>
</g>
<!-- pydeps_arguments -->
<g id="node8" class="node"><title>pydeps_arguments</title>
<ellipse fill="#40bfc0" stroke="black" cx="298.276" cy="-406.919" rx="43.6818" ry="21.4286"/>
<text text-anchor="middle" x="298.276" y="-409.919" font-family="Helvetica,sans-Serif" font-size="10.00" fill="#000000">pydeps.</text>
<text text-anchor="middle" x="298.276" y="-398.919" font-family="Helvetica,sans-Serif" font-size="10.00" fill="#000000">arguments</text>
</g>
<!-- pydeps_pycompat&#45;&gt;pydeps_arguments -->
<g id="edge17" class="edge"><title>pydeps_pycompat&#45;&gt;pydeps_arguments</title>
<path fill="none" stroke="black" d="M298.276,-463.864C298.276,-456.006 298.276,-446.861 298.276,-438.271"/>
<polygon fill="#26d9d9" stroke="black" points="301.776,-438.191 298.276,-428.191 294.776,-438.191 301.776,-438.191"/>
</g>
<!-- pydeps_depgraph -->
<g id="node10" class="node"><title>pydeps_depgraph</title>
<ellipse fill="#35a1a1" stroke="black" cx="370.276" cy="-250.066" rx="39.6962" ry="21.4286"/>
<text text-anchor="middle" x="370.276" y="-253.066" font-family="Helvetica,sans-Serif" font-size="10.00" fill="#000000">pydeps.</text>
<text text-anchor="middle" x="370.276" y="-242.066" font-family="Helvetica,sans-Serif" font-size="10.00" fill="#000000">depgraph</text>
</g>
<!-- pydeps_pycompat&#45;&gt;pydeps_depgraph -->
<g id="edge19" class="edge"><title>pydeps_pycompat&#45;&gt;pydeps_depgraph</title>
<path fill="none" stroke="black" d="M320.199,-467.215C331.464,-457.121 344.264,-443.362 351.276,-428.132 373.281,-380.333 374.424,-317.826 372.719,-281.296"/>
<polygon fill="#26d9d9" stroke="black" points="376.211,-281.061 372.148,-271.276 369.223,-281.459 376.211,-281.061"/>
</g>
<!-- pydeps_pydeps -->
<g id="node4" class="node"><title>pydeps_pydeps</title>
<ellipse fill="#339999" stroke="black" cx="287.276" cy="-96.4264" rx="48.7185" ry="18"/>
<text text-anchor="middle" x="287.276" y="-93.9264" font-family="Helvetica,sans-Serif" font-size="10.00" fill="#ffffff">pydeps.pydeps</text>
</g>
<!-- pydeps___main__ -->
<g id="node5" class="node"><title>pydeps___main__</title>
<ellipse fill="#4cb3b3" stroke="black" cx="287.276" cy="-21.2132" rx="41.9398" ry="21.4286"/>
<text text-anchor="middle" x="287.276" y="-24.2132" font-family="Helvetica,sans-Serif" font-size="10.00" fill="#000000">pydeps.</text>
<text text-anchor="middle" x="287.276" y="-13.2132" font-family="Helvetica,sans-Serif" font-size="10.00" fill="#000000">__main__</text>
</g>
<!-- pydeps_pydeps&#45;&gt;pydeps___main__ -->
<g id="edge20" class="edge"><title>pydeps_pydeps&#45;&gt;pydeps___main__</title>
<path fill="none" stroke="black" d="M287.276,-78.0759C287.276,-70.5002 287.276,-61.3864 287.276,-52.7384"/>
<polygon fill="#339999" stroke="black" points="290.776,-52.5555 287.276,-42.5555 283.776,-52.5555 290.776,-52.5555"/>
</g>
<!-- pydeps_cli&#45;&gt;pydeps_pydeps -->
<g id="edge8" class="edge"><title>pydeps_cli&#45;&gt;pydeps_pydeps</title>
<path fill="none" stroke="black" d="M171.276,-249.066C162.289,-216.309 148.469,-197.812 171.276,-172.64"/>
<path fill="none" stroke="black" d="M253.478,-314.991C223.861,-298.731 176.513,-270.155 171.276,-251.066"/>
</g>
<!-- pydeps_dummymodule -->
<g id="node7" class="node"><title>pydeps_dummymodule</title>
<ellipse fill="#3db8b8" stroke="black" cx="256.276" cy="-250.066" rx="56.6372" ry="21.4286"/>
<text text-anchor="middle" x="256.276" y="-253.066" font-family="Helvetica,sans-Serif" font-size="10.00" fill="#000000">pydeps.</text>
<text text-anchor="middle" x="256.276" y="-242.066" font-family="Helvetica,sans-Serif" font-size="10.00" fill="#000000">dummymodule</text>
</g>
<!-- pydeps_cli&#45;&gt;pydeps_dummymodule -->
<g id="edge7" class="edge"><title>pydeps_cli&#45;&gt;pydeps_dummymodule</title>
<path fill="none" stroke="black" d="M272.615,-310.531C270.223,-301.824 267.237,-290.958 264.475,-280.905"/>
<polygon fill="#17d3d3" stroke="black" points="267.842,-279.949 261.817,-271.234 261.092,-281.804 267.842,-279.949"/>
</g>
<!-- pydeps_dot -->
<g id="node9" class="node"><title>pydeps_dot</title>
<ellipse fill="#3db8b8" stroke="black" cx="237.276" cy="-171.64" rx="38.0276" ry="18"/>
<text text-anchor="middle" x="237.276" y="-169.14" font-family="Helvetica,sans-Serif" font-size="10.00" fill="#000000">pydeps.dot</text>
</g>
<!-- pydeps_cli&#45;&gt;pydeps_dot -->
<g id="edge6" class="edge"><title>pydeps_cli&#45;&gt;pydeps_dot</title>
<path fill="none" stroke="black" d="M171.276,-249.066C164.851,-225.65 184.698,-205.2 204.269,-191.362"/>
<polygon fill="#17d3d3" stroke="black" points="206.457,-194.11 212.853,-185.664 202.586,-188.278 206.457,-194.11"/>
</g>
<!-- pydeps_cli&#45;&gt;pydeps_depgraph -->
<g id="edge5" class="edge"><title>pydeps_cli&#45;&gt;pydeps_depgraph</title>
<path fill="none" stroke="black" d="M295.207,-312.757C308.3,-301.997 326.328,-287.182 341.435,-274.767"/>
<polygon fill="#17d3d3" stroke="black" points="343.973,-277.211 349.477,-268.158 339.529,-271.803 343.973,-277.211"/>
</g>
<!-- pydeps_dummymodule&#45;&gt;pydeps_py2depgraph -->
<g id="edge14" class="edge"><title>pydeps_dummymodule&#45;&gt;pydeps_py2depgraph</title>
<path fill="none" stroke="black" d="M294.532,-234.149C326.573,-221.655 372.393,-203.788 406.4,-190.528"/>
<polygon fill="#3db8b8" stroke="black" points="408.056,-193.639 416.101,-186.745 405.513,-187.117 408.056,-193.639"/>
</g>
<!-- pydeps_arguments&#45;&gt;pydeps_cli -->
<g id="edge4" class="edge"><title>pydeps_arguments&#45;&gt;pydeps_cli</title>
<path fill="none" stroke="black" d="M292.758,-385.839C290.295,-376.875 287.356,-366.177 284.703,-356.524"/>
<polygon fill="#40bfc0" stroke="black" points="287.998,-355.306 281.974,-346.59 281.248,-357.16 287.998,-355.306"/>
</g>
<!-- pydeps_dot&#45;&gt;pydeps_pydeps -->
<g id="edge13" class="edge"><title>pydeps_dot&#45;&gt;pydeps_pydeps</title>
<path fill="none" stroke="black" d="M248.372,-154.391C254.756,-145.044 262.912,-133.101 270.107,-122.566"/>
<polygon fill="#3db8b8" stroke="black" points="273.114,-124.369 275.863,-114.137 267.333,-120.421 273.114,-124.369"/>
</g>
<!-- pydeps_depgraph&#45;&gt;pydeps_py2depgraph -->
<g id="edge11" class="edge"><title>pydeps_depgraph&#45;&gt;pydeps_py2depgraph</title>
<path fill="none" stroke="black" d="M389.294,-231.34C399.851,-221.501 413.167,-209.09 424.834,-198.216"/>
<polygon fill="#35a1a1" stroke="black" points="427.287,-200.714 432.216,-191.336 422.515,-195.593 427.287,-200.714"/>
</g>
<!-- pydeps_depgraph2dot&#45;&gt;pydeps_pydeps -->
<g id="edge12" class="edge"><title>pydeps_depgraph2dot&#45;&gt;pydeps_pydeps</title>
<path fill="none" stroke="black" d="M111.791,-230.447C128.642,-215.475 152.323,-193.559 171.276,-172.64"/>
<path fill="none" stroke="black" d="M171.276,-170.64C179.554,-161.503 180.522,-157.968 190.276,-150.426 208.068,-136.669 229.899,-124.4 248.343,-115.14"/>
<polygon fill="#3ab0b0" stroke="black" points="249.93,-118.26 257.365,-110.711 246.846,-111.976 249.93,-118.26"/>
</g>
<!-- pydeps_pystdlib -->
<g id="node12" class="node"><title>pydeps_pystdlib</title>
<ellipse fill="#40bfc0" stroke="black" cx="502.276" cy="-250.066" rx="36.125" ry="21.4286"/>
<text text-anchor="middle" x="502.276" y="-253.066" font-family="Helvetica,sans-Serif" font-size="10.00" fill="#000000">pydeps.</text>
<text text-anchor="middle" x="502.276" y="-242.066" font-family="Helvetica,sans-Serif" font-size="10.00" fill="#000000">pystdlib</text>
</g>
<!-- pydeps_pystdlib&#45;&gt;pydeps_py2depgraph -->
<g id="edge21" class="edge"><title>pydeps_pystdlib&#45;&gt;pydeps_py2depgraph</title>
<path fill="none" stroke="black" d="M489.659,-229.78C483.9,-220.978 476.968,-210.383 470.646,-200.719"/>
<polygon fill="#40bfc0" stroke="black" points="473.466,-198.637 465.063,-192.185 467.609,-202.469 473.466,-198.637"/>
</g>
<!-- pydeps_target -->
<g id="node13" class="node"><title>pydeps_target</title>
<ellipse fill="#47c2c2" stroke="black" cx="338.276" cy="-171.64" rx="44.978" ry="18"/>
<text text-anchor="middle" x="338.276" y="-169.14" font-family="Helvetica,sans-Serif" font-size="10.00" fill="#000000">pydeps.target</text>
</g>
<!-- pydeps_target&#45;&gt;pydeps_pydeps -->
<g id="edge23" class="edge"><title>pydeps_target&#45;&gt;pydeps_pydeps</title>
<path fill="none" stroke="black" d="M326.703,-154.026C320.182,-144.666 311.909,-132.789 304.627,-122.334"/>
<polygon fill="#47c2c2" stroke="black" points="307.39,-120.179 298.803,-113.974 301.647,-124.18 307.39,-120.179"/>
</g>
<!-- pydeps_colors -->
<g id="node14" class="node"><title>pydeps_colors</title>
<ellipse fill="#3bcece" stroke="black" cx="178.276" cy="-328.492" rx="45.1548" ry="18"/>
<text text-anchor="middle" x="178.276" y="-325.992" font-family="Helvetica,sans-Serif" font-size="10.00" fill="#000000">pydeps.colors</text>
</g>
<!-- pydeps_colors&#45;&gt;pydeps_depgraph -->
<g id="edge9" class="edge"><title>pydeps_colors&#45;&gt;pydeps_depgraph</title>
<path fill="none" stroke="black" d="M209.832,-315.449C239.07,-304.225 283.729,-286.916 322.276,-271.279 325.076,-270.143 327.963,-268.959 330.867,-267.759"/>
<polygon fill="#3bcece" stroke="black" points="332.225,-270.986 340.112,-263.911 329.535,-264.523 332.225,-270.986"/>
</g>
<!-- pydeps_colors&#45;&gt;pydeps_depgraph2dot -->
<g id="edge10" class="edge"><title>pydeps_colors&#45;&gt;pydeps_depgraph2dot</title>
<path fill="none" stroke="black" d="M160.042,-311.657C148.259,-301.423 132.668,-287.883 119.215,-276.199"/>
<polygon fill="#3bcece" stroke="black" points="121.43,-273.487 111.585,-269.573 116.84,-278.773 121.43,-273.487"/>
</g>
<!-- pydeps_py2depgraph&#45;&gt;pydeps_pydeps -->
<g id="edge16" class="edge"><title>pydeps_py2depgraph&#45;&gt;pydeps_pydeps</title>
<path fill="none" stroke="black" d="M418.487,-155.647C391.836,-143.822 354.619,-127.308 326.625,-114.887"/>
<polygon fill="#309191" stroke="black" points="327.701,-111.535 317.141,-110.678 324.862,-117.933 327.701,-111.535"/>
</g>
<!-- configparser -->
<g id="node16" class="node"><title>configparser</title>
<polygon fill="#b6b653" stroke="black" points="332.776,-615.558 329.776,-619.558 308.776,-619.558 305.776,-615.558 263.776,-615.558 263.776,-579.558 332.776,-579.558 332.776,-615.558"/>
<text text-anchor="middle" x="298.276" y="-595.058" font-family="Helvetica,sans-Serif" font-size="10.00" fill="#000000">configparser</text>
</g>
<!-- configparser&#45;&gt;pydeps_pycompat -->
<g id="edge1" class="edge"><title>configparser&#45;&gt;pydeps_pycompat</title>
<path fill="none" stroke="black" d="M298.276,-579.338C298.276,-562.71 298.276,-537.164 298.276,-517.051"/>
<polygon fill="#b6b653" stroke="black" points="301.776,-516.817 298.276,-506.817 294.776,-516.817 301.776,-516.817"/>
</g>
<!-- enum -->
<g id="node17" class="node"><title>enum</title>
<polygon fill="#47c247" stroke="black" points="461.276,-424.919 458.276,-428.919 437.276,-428.919 434.276,-424.919 407.276,-424.919 407.276,-388.919 461.276,-388.919 461.276,-424.919"/>
<text text-anchor="middle" x="434.276" y="-404.419" font-family="Helvetica,sans-Serif" font-size="10.00" fill="#000000">enum</text>
</g>
<!-- enum&#45;&gt;pydeps_depgraph -->
<g id="edge2" class="edge"><title>enum&#45;&gt;pydeps_depgraph</title>
<path fill="none" stroke="black" d="M438.276,-327.492C434.343,-305.765 418.192,-287.115 402.617,-273.679"/>
<polygon fill="#47c247" stroke="black" points="404.556,-270.744 394.593,-267.139 400.133,-276.17 404.556,-270.744"/>
<path fill="none" stroke="black" d="M437.41,-388.778C439.732,-373.194 441.92,-349.627 438.276,-329.492"/>
</g>
<!-- enum&#45;&gt;pydeps_py2depgraph -->
<g id="edge3" class="edge"><title>enum&#45;&gt;pydeps_py2depgraph</title>
<path fill="none" stroke="black" d="M438.276,-327.492C430.501,-284.536 438.136,-234.056 444.814,-202.7"/>
<polygon fill="#47c247" stroke="black" points="448.253,-203.361 447.019,-192.838 441.421,-201.834 448.253,-203.361"/>
</g>
<!-- stdliblist -->
<g id="node18" class="node"><title>stdliblist</title>
<polygon fill="#5353b6" stroke="black" points="533.276,-424.919 530.276,-428.919 509.276,-428.919 506.276,-424.919 479.276,-424.919 479.276,-388.919 533.276,-388.919 533.276,-424.919"/>
<text text-anchor="middle" x="506.276" y="-404.419" font-family="Helvetica,sans-Serif" font-size="10.00" fill="#ffffff">stdliblist</text>
</g>
<!-- stdliblist&#45;&gt;pydeps_pystdlib -->
<g id="edge24" class="edge"><title>stdliblist&#45;&gt;pydeps_pystdlib</title>
<path fill="none" stroke="black" d="M505.832,-388.755C505.165,-362.932 503.894,-313.704 503.066,-281.646"/>
<polygon fill="#5353b6" stroke="black" points="506.56,-281.397 502.803,-271.491 499.563,-281.578 506.56,-281.397"/>
</g>
<!-- yaml -->
<g id="node19" class="node"><title>yaml</title>
<polygon fill="#ac49ac" stroke="black" points="593.276,-346.492 590.276,-350.492 569.276,-350.492 566.276,-346.492 539.276,-346.492 539.276,-310.492 593.276,-310.492 593.276,-346.492"/>
<text text-anchor="middle" x="566.276" y="-325.992" font-family="Helvetica,sans-Serif" font-size="10.00" fill="#ffffff">yaml</text>
</g>
<!-- yaml&#45;&gt;pydeps_py2depgraph -->
<g id="edge25" class="edge"><title>yaml&#45;&gt;pydeps_py2depgraph</title>
<path fill="none" stroke="black" d="M567.06,-310.155C567.153,-289.058 564.442,-253.238 547.276,-228.853 535.439,-212.039 516.836,-199.444 499.218,-190.486"/>
<polygon fill="#ac49ac" stroke="black" points="500.666,-187.299 490.136,-186.13 497.638,-193.61 500.666,-187.299"/>
</g>
</g>
</svg>
