<?xml version="1.0" encoding="UTF-8" standalone="no"?>
<!DOCTYPE svg PUBLIC "-//W3C//DTD SVG 1.1//EN"
 "http://www.w3.org/Graphics/SVG/1.1/DTD/svg11.dtd">
<!-- Generated by graphviz version 2.38.0 (20140413.2041)
 -->
<!-- Title: G Pages: 1 -->
<svg width="906pt" height="404pt"
 viewBox="0.00 0.00 905.79 404.43" xmlns="http://www.w3.org/2000/svg" xmlns:xlink="http://www.w3.org/1999/xlink">
<g id="graph0" class="graph" transform="scale(1 1) rotate(0) translate(4 400.426)">
<title>G</title><style>.edge>path:hover{stroke-width:8}</style>
<polygon fill="white" stroke="none" points="-4,4 -4,-400.426 901.788,-400.426 901.788,4 -4,4"/>
<!-- pydeps___main__ -->
<g id="node1" class="node"><title>pydeps___main__</title><style>.edge>path:hover{stroke-width:8}</style>
<ellipse fill="#b34c4c" stroke="black" cx="41.7193" cy="-151.213" rx="41.9398" ry="21.4286"/>
<text text-anchor="middle" x="41.7193" y="-154.213" font-family="Helvetica,sans-Serif" font-size="10.00" fill="#ffffff">pydeps.</text>
<text text-anchor="middle" x="41.7193" y="-143.213" font-family="Helvetica,sans-Serif" font-size="10.00" fill="#ffffff">__main__</text>
</g>
<!-- pydeps_arguments -->
<g id="node2" class="node"><title>pydeps_arguments</title><style>.edge>path:hover{stroke-width:8}</style>
<ellipse fill="#c04040" stroke="black" cx="734.509" cy="-174.213" rx="43.6818" ry="21.4286"/>
<text text-anchor="middle" x="734.509" y="-177.213" font-family="Helvetica,sans-Serif" font-size="10.00" fill="#ffffff">pydeps.</text>
<text text-anchor="middle" x="734.509" y="-166.213" font-family="Helvetica,sans-Serif" font-size="10.00" fill="#ffffff">arguments</text>
</g>
<!-- pydeps_cli -->
<g id="node3" class="node"><title>pydeps_cli</title><style>.edge>path:hover{stroke-width:8}</style>
<ellipse fill="#dd1818" stroke="black" cx="597.393" cy="-174.213" rx="35.8171" ry="18"/>
<text text-anchor="middle" x="597.393" y="-171.713" font-family="Helvetica,sans-Serif" font-size="10.00" fill="#ffffff">pydeps.cli</text>
</g>
<!-- pydeps_arguments&#45;&gt;pydeps_cli -->
<g id="edge1" class="edge"><title>pydeps_arguments&#45;&gt;pydeps_cli</title><style>.edge>path:hover{stroke-width:8}</style>
<path fill="none" stroke="black" d="M690.386,-174.213C675.451,-174.213 658.675,-174.213 643.579,-174.213"/>
<polygon fill="#c04040" stroke="black" points="643.44,-170.713 633.44,-174.213 643.44,-177.713 643.44,-170.713"/>
</g>
<!-- pydeps_depgraph -->
<g id="node5" class="node"><title>pydeps_depgraph</title><style>.edge>path:hover{stroke-width:8}</style>
<ellipse fill="#a83838" stroke="black" cx="447.549" cy="-125.213" rx="39.6962" ry="21.4286"/>
<text text-anchor="middle" x="447.549" y="-128.213" font-family="Helvetica,sans-Serif" font-size="10.00" fill="#ffffff">pydeps.</text>
<text text-anchor="middle" x="447.549" y="-117.213" font-family="Helvetica,sans-Serif" font-size="10.00" fill="#ffffff">depgraph</text>
</g>
<!-- pydeps_cli&#45;&gt;pydeps_depgraph -->
<g id="edge2" class="edge"><title>pydeps_cli&#45;&gt;pydeps_depgraph</title><style>.edge>path:hover{stroke-width:8}</style>
<path fill="none" stroke="black" d="M566.83,-164.415C545.203,-157.247 515.539,-147.416 491.328,-139.392"/>
<polygon fill="#dd1818" stroke="black" points="492.261,-136.014 481.667,-136.19 490.058,-142.658 492.261,-136.014"/>
</g>
<!-- pydeps_dot -->
<g id="node7" class="node"><title>pydeps_dot</title><style>.edge>path:hover{stroke-width:8}</style>
<ellipse fill="#b83d3d" stroke="black" cx="304.068" cy="-174.213" rx="38.0276" ry="18"/>
<text text-anchor="middle" x="304.068" y="-171.713" font-family="Helvetica,sans-Serif" font-size="10.00" fill="#ffffff">pydeps.dot</text>
</g>
<!-- pydeps_cli&#45;&gt;pydeps_dot -->
<g id="edge3" class="edge"><title>pydeps_cli&#45;&gt;pydeps_dot</title><style>.edge>path:hover{stroke-width:8}</style>
<path fill="none" stroke="black" d="M446.549,-174.213C415.284,-171.723 380.01,-171.717 352.505,-172.337"/>
<polygon fill="#dd1818" stroke="black" points="352.273,-168.841 342.368,-172.601 352.456,-175.839 352.273,-168.841"/>
</g>
<!-- pydeps_dummymodule -->
<g id="node8" class="node"><title>pydeps_dummymodule</title><style>.edge>path:hover{stroke-width:8}</style>
<ellipse fill="#b83d3d" stroke="black" cx="447.549" cy="-277.213" rx="56.6372" ry="21.4286"/>
<text text-anchor="middle" x="447.549" y="-280.213" font-family="Helvetica,sans-Serif" font-size="10.00" fill="#ffffff">pydeps.</text>
<text text-anchor="middle" x="447.549" y="-269.213" font-family="Helvetica,sans-Serif" font-size="10.00" fill="#ffffff">dummymodule</text>
</g>
<!-- pydeps_cli&#45;&gt;pydeps_dummymodule -->
<g id="edge4" class="edge"><title>pydeps_cli&#45;&gt;pydeps_dummymodule</title><style>.edge>path:hover{stroke-width:8}</style>
<path fill="none" stroke="black" d="M578.713,-189.73C560.637,-205.22 531.417,-229.243 504.117,-247.213 499.876,-250.005 495.351,-252.768 490.783,-255.423"/>
<polygon fill="#dd1818" stroke="black" points="489.001,-252.409 482.01,-260.37 492.44,-258.506 489.001,-252.409"/>
</g>
<!-- pydeps_pydeps -->
<g id="node12" class="node"><title>pydeps_pydeps</title><style>.edge>path:hover{stroke-width:8}</style>
<ellipse fill="#913030" stroke="black" cx="168.298" cy="-151.213" rx="48.7185" ry="18"/>
<text text-anchor="middle" x="168.298" y="-148.713" font-family="Helvetica,sans-Serif" font-size="10.00" fill="#ffffff">pydeps.pydeps</text>
</g>
<!-- pydeps_cli&#45;&gt;pydeps_pydeps -->
<g id="edge5" class="edge"><title>pydeps_cli&#45;&gt;pydeps_pydeps</title><style>.edge>path:hover{stroke-width:8}</style>
<path fill="none" stroke="black" d="M561.381,-175.776C531.384,-176.741 487.056,-177.28 448.549,-174.213"/>
<path fill="none" stroke="black" d="M446.549,-174.213C430.071,-172.901 321.25,-124.836 305.068,-128.213"/>
</g>
<!-- pydeps_colors -->
<g id="node4" class="node"><title>pydeps_colors</title><style>.edge>path:hover{stroke-width:8}</style>
<ellipse fill="#db2f2f" stroke="black" cx="597.393" cy="-78.2132" rx="45.1548" ry="18"/>
<text text-anchor="middle" x="597.393" y="-75.7132" font-family="Helvetica,sans-Serif" font-size="10.00" fill="#ffffff">pydeps.colors</text>
</g>
<!-- pydeps_colors&#45;&gt;pydeps_depgraph -->
<g id="edge6" class="edge"><title>pydeps_colors&#45;&gt;pydeps_depgraph</title><style>.edge>path:hover{stroke-width:8}</style>
<path fill="none" stroke="black" d="M561.356,-89.3515C540.548,-95.9664 513.994,-104.408 491.877,-111.439"/>
<polygon fill="#db2f2f" stroke="black" points="490.533,-108.194 482.063,-114.559 492.654,-114.865 490.533,-108.194"/>
</g>
<!-- pydeps_depgraph2dot -->
<g id="node6" class="node"><title>pydeps_depgraph2dot</title><style>.edge>path:hover{stroke-width:8}</style>
<ellipse fill="#b03a3a" stroke="black" cx="447.549" cy="-27.2132" rx="53.066" ry="21.4286"/>
<text text-anchor="middle" x="447.549" y="-30.2132" font-family="Helvetica,sans-Serif" font-size="10.00" fill="#ffffff">pydeps.</text>
<text text-anchor="middle" x="447.549" y="-19.2132" font-family="Helvetica,sans-Serif" font-size="10.00" fill="#ffffff">depgraph2dot</text>
</g>
<!-- pydeps_colors&#45;&gt;pydeps_depgraph2dot -->
<g id="edge7" class="edge"><title>pydeps_colors&#45;&gt;pydeps_depgraph2dot</title><style>.edge>path:hover{stroke-width:8}</style>
<path fill="none" stroke="black" d="M562.474,-66.5128C543.327,-59.9077 519.055,-51.5349 497.839,-44.2164"/>
<polygon fill="#db2f2f" stroke="black" points="498.931,-40.8906 488.336,-40.9382 496.648,-47.5079 498.931,-40.8906"/>
</g>
<!-- pydeps_colors&#45;&gt;pydeps_pydeps -->
<g id="edge8" class="edge"><title>pydeps_colors&#45;&gt;pydeps_pydeps</title><style>.edge>path:hover{stroke-width:8}</style>
<path fill="none" stroke="black" d="M551.749,-78.2243C509.753,-79.0968 445.374,-82.6646 390.98,-95.2132 374.252,-99.0723 371.002,-103.048 354.98,-109.213 332.827,-117.737 328.304,-123.364 305.068,-128.213"/>
</g>
<!-- pydeps_py2depgraph -->
<g id="node10" class="node"><title>pydeps_py2depgraph</title><style>.edge>path:hover{stroke-width:8}</style>
<ellipse fill="#993333" stroke="black" cx="304.068" cy="-254.213" rx="50.8235" ry="21.4286"/>
<text text-anchor="middle" x="304.068" y="-257.213" font-family="Helvetica,sans-Serif" font-size="10.00" fill="#ffffff">pydeps.</text>
<text text-anchor="middle" x="304.068" y="-246.213" font-family="Helvetica,sans-Serif" font-size="10.00" fill="#ffffff">py2depgraph</text>
</g>
<!-- pydeps_depgraph&#45;&gt;pydeps_py2depgraph -->
<g id="edge9" class="edge"><title>pydeps_depgraph&#45;&gt;pydeps_py2depgraph</title><style>.edge>path:hover{stroke-width:8}</style>
<path fill="none" stroke="black" d="M419.174,-140.294C409.824,-145.995 399.568,-152.889 390.98,-160.213 372.529,-175.949 371.295,-183.272 354.98,-201.213 347.232,-209.733 338.678,-218.901 330.871,-227.178"/>
<polygon fill="#a83838" stroke="black" points="328.289,-224.814 323.958,-234.483 333.373,-229.626 328.289,-224.814"/>
</g>
<!-- pydeps_depgraph2dot&#45;&gt;pydeps_pydeps -->
<g id="edge10" class="edge"><title>pydeps_depgraph2dot&#45;&gt;pydeps_pydeps</title><style>.edge>path:hover{stroke-width:8}</style>
<path fill="none" stroke="black" d="M303.068,-128.213C277.131,-133.626 248.173,-138.721 223.85,-142.733"/>
<polygon fill="#b03a3a" stroke="black" points="223.038,-139.319 213.733,-144.384 224.166,-146.227 223.038,-139.319"/>
<path fill="none" stroke="black" d="M415.163,-44.2743C406.871,-49.486 398.223,-55.6044 390.98,-62.2132 371.542,-79.948 376.078,-93.4901 354.98,-109.213 335.948,-123.397 328.304,-123.364 305.068,-128.213"/>
</g>
<!-- pydeps_dot&#45;&gt;pydeps_pydeps -->
<g id="edge11" class="edge"><title>pydeps_dot&#45;&gt;pydeps_pydeps</title><style>.edge>path:hover{stroke-width:8}</style>
<path fill="none" stroke="black" d="M267.922,-168.17C254.21,-165.813 238.183,-163.057 223.082,-160.461"/>
<polygon fill="#b83d3d" stroke="black" points="223.264,-156.941 212.816,-158.696 222.078,-163.84 223.264,-156.941"/>
</g>
<!-- pydeps_dummymodule&#45;&gt;pydeps_py2depgraph -->
<g id="edge12" class="edge"><title>pydeps_dummymodule&#45;&gt;pydeps_py2depgraph</title><style>.edge>path:hover{stroke-width:8}</style>
<path fill="none" stroke="black" d="M395.471,-268.91C384.563,-267.136 372.977,-265.253 361.869,-263.447"/>
<polygon fill="#b83d3d" stroke="black" points="362.267,-259.966 351.835,-261.816 361.144,-266.875 362.267,-259.966"/>
</g>
<!-- pydeps_mf27 -->
<g id="node9" class="node"><title>pydeps_mf27</title><style>.edge>path:hover{stroke-width:8}</style>
<ellipse fill="#c24747" stroke="black" cx="447.549" cy="-220.213" rx="42.2678" ry="18"/>
<text text-anchor="middle" x="447.549" y="-217.713" font-family="Helvetica,sans-Serif" font-size="10.00" fill="#ffffff">pydeps.mf27</text>
</g>
<!-- pydeps_mf27&#45;&gt;pydeps_py2depgraph -->
<g id="edge13" class="edge"><title>pydeps_mf27&#45;&gt;pydeps_py2depgraph</title><style>.edge>path:hover{stroke-width:8}</style>
<path fill="none" stroke="black" d="M410.114,-228.969C394.372,-232.752 375.64,-237.254 358.384,-241.401"/>
<polygon fill="#c24747" stroke="black" points="357.333,-238.054 348.427,-243.793 358.968,-244.86 357.333,-238.054"/>
</g>
<!-- pydeps_py2depgraph&#45;&gt;pydeps_pydeps -->
<g id="edge14" class="edge"><title>pydeps_py2depgraph&#45;&gt;pydeps_pydeps</title><style>.edge>path:hover{stroke-width:8}</style>
<path fill="none" stroke="black" d="M278.843,-235.561C256.214,-218.136 222.402,-192.102 198.336,-173.572"/>
<polygon fill="#993333" stroke="black" points="200.322,-170.684 190.264,-167.356 196.052,-176.231 200.322,-170.684"/>
</g>
<!-- pydeps_pycompat -->
<g id="node11" class="node"><title>pydeps_pycompat</title><style>.edge>path:hover{stroke-width:8}</style>
<ellipse fill="#ce3b3b" stroke="black" cx="856.069" cy="-149.213" rx="41.9398" ry="21.4286"/>
<text text-anchor="middle" x="856.069" y="-152.213" font-family="Helvetica,sans-Serif" font-size="10.00" fill="#ffffff">pydeps.</text>
<text text-anchor="middle" x="856.069" y="-141.213" font-family="Helvetica,sans-Serif" font-size="10.00" fill="#ffffff">pycompat</text>
</g>
<!-- pydeps_pycompat&#45;&gt;pydeps_arguments -->
<g id="edge15" class="edge"><title>pydeps_pycompat&#45;&gt;pydeps_arguments</title><style>.edge>path:hover{stroke-width:8}</style>
<path fill="none" stroke="black" d="M817.239,-157.123C807.078,-159.248 795.934,-161.578 785.233,-163.816"/>
<polygon fill="#ce3b3b" stroke="black" points="784.227,-160.451 775.155,-165.923 785.659,-167.302 784.227,-160.451"/>
</g>
<!-- pydeps_pycompat&#45;&gt;pydeps_depgraph -->
<g id="edge16" class="edge"><title>pydeps_pycompat&#45;&gt;pydeps_depgraph</title><style>.edge>path:hover{stroke-width:8}</style>
<path fill="none" stroke="black" d="M814.461,-146.509C802.803,-145.749 790.073,-144.933 778.35,-144.213 678.575,-138.088 561.782,-131.496 497.396,-127.912"/>
<polygon fill="#ce3b3b" stroke="black" points="497.321,-124.403 487.142,-127.342 496.933,-131.392 497.321,-124.403"/>
</g>
<!-- pydeps_pydeps&#45;&gt;pydeps___main__ -->
<g id="edge17" class="edge"><title>pydeps_pydeps&#45;&gt;pydeps___main__</title><style>.edge>path:hover{stroke-width:8}</style>
<path fill="none" stroke="black" d="M119.132,-151.213C110.76,-151.213 102.028,-151.213 93.5859,-151.213"/>
<polygon fill="#913030" stroke="black" points="93.4759,-147.713 83.4759,-151.213 93.4758,-154.713 93.4759,-147.713"/>
</g>
<!-- pydeps_pystdlib -->
<g id="node13" class="node"><title>pydeps_pystdlib</title><style>.edge>path:hover{stroke-width:8}</style>
<ellipse fill="#c04040" stroke="black" cx="447.549" cy="-375.213" rx="36.125" ry="21.4286"/>
<text text-anchor="middle" x="447.549" y="-378.213" font-family="Helvetica,sans-Serif" font-size="10.00" fill="#ffffff">pydeps.</text>
<text text-anchor="middle" x="447.549" y="-367.213" font-family="Helvetica,sans-Serif" font-size="10.00" fill="#ffffff">pystdlib</text>
</g>
<!-- pydeps_pystdlib&#45;&gt;pydeps_py2depgraph -->
<g id="edge18" class="edge"><title>pydeps_pystdlib&#45;&gt;pydeps_py2depgraph</title><style>.edge>path:hover{stroke-width:8}</style>
<path fill="none" stroke="black" d="M420.84,-360.676C411.153,-354.778 400.245,-347.614 390.98,-340.213 368.816,-322.509 346.242,-299.687 329.799,-282.003"/>
<polygon fill="#c04040" stroke="black" points="332.043,-279.272 322.699,-274.276 326.888,-284.008 332.043,-279.272"/>
</g>
<!-- pydeps_render_context -->
<g id="node14" class="node"><title>pydeps_render_context</title><style>.edge>path:hover{stroke-width:8}</style>
<ellipse fill="#c24747" stroke="black" cx="597.393" cy="-21.2132" rx="57.0522" ry="21.4286"/>
<text text-anchor="middle" x="597.393" y="-24.2132" font-family="Helvetica,sans-Serif" font-size="10.00" fill="#ffffff">pydeps.</text>
<text text-anchor="middle" x="597.393" y="-13.2132" font-family="Helvetica,sans-Serif" font-size="10.00" fill="#ffffff">render_context</text>
</g>
<!-- pydeps_render_context&#45;&gt;pydeps_depgraph2dot -->
<g id="edge19" class="edge"><title>pydeps_render_context&#45;&gt;pydeps_depgraph2dot</title><style>.edge>path:hover{stroke-width:8}</style>
<path fill="none" stroke="black" d="M540.077,-23.4987C530.387,-23.8919 520.268,-24.3026 510.441,-24.7014"/>
<polygon fill="#c24747" stroke="black" points="510.185,-21.2088 500.335,-25.1115 510.469,-28.2031 510.185,-21.2088"/>
</g>
<!-- pydeps_target -->
<g id="node15" class="node"><title>pydeps_target</title><style>.edge>path:hover{stroke-width:8}</style>
<ellipse fill="#c24747" stroke="black" cx="304.068" cy="-82.2132" rx="44.978" ry="18"/>
<text text-anchor="middle" x="304.068" y="-79.7132" font-family="Helvetica,sans-Serif" font-size="10.00" fill="#ffffff">pydeps.target</text>
</g>
<!-- pydeps_target&#45;&gt;pydeps_pydeps -->
<g id="edge20" class="edge"><title>pydeps_target&#45;&gt;pydeps_pydeps</title><style>.edge>path:hover{stroke-width:8}</style>
<path fill="none" stroke="black" d="M275.675,-96.3429C255.744,-106.624 228.523,-120.664 206.607,-131.969"/>
<polygon fill="#c24747" stroke="black" points="204.859,-128.932 197.576,-136.627 208.068,-135.153 204.859,-128.932"/>
</g>
<!-- stdlib_list -->
<g id="node16" class="node"><title>stdlib_list</title><style>.edge>path:hover{stroke-width:8}</style>
<ellipse fill="#53b653" stroke="black" cx="734.509" cy="-375.213" rx="34.2855" ry="18"/>
<text text-anchor="middle" x="734.509" y="-372.713" font-family="Helvetica,sans-Serif" font-size="10.00" fill="#000000">stdlib_list</text>
</g>
<!-- stdlib_list&#45;&gt;pydeps_pystdlib -->
<g id="edge21" class="edge"><title>stdlib_list&#45;&gt;pydeps_pystdlib</title><style>.edge>path:hover{stroke-width:8}</style>
<path fill="none" stroke="black" d="M700.263,-375.213C649.262,-375.213 551.596,-375.213 494.064,-375.213"/>
<polygon fill="#53b653" stroke="black" points="493.809,-371.713 483.809,-375.213 493.809,-378.713 493.809,-371.713"/>
</g>
<!-- yaml -->
<g id="node17" class="node"><title>yaml</title><style>.edge>path:hover{stroke-width:8}</style>
<ellipse fill="#5353b6" stroke="black" cx="597.393" cy="-326.213" rx="27" ry="18"/>
<text text-anchor="middle" x="597.393" y="-323.713" font-family="Helvetica,sans-Serif" font-size="10.00" fill="#ffffff">yaml</text>
</g>
<!-- yaml&#45;&gt;pydeps_py2depgraph -->
<g id="edge22" class="edge"><title>yaml&#45;&gt;pydeps_py2depgraph</title><style>.edge>path:hover{stroke-width:8}</style>
<path fill="none" stroke="black" d="M570.321,-327.547C530.543,-328.76 452.801,-327.872 390.98,-307.213 371.766,-300.793 352.388,-289.364 336.911,-278.76"/>
<polygon fill="#5353b6" stroke="black" points="338.927,-275.899 328.74,-272.99 334.89,-281.617 338.927,-275.899"/>
</g>
</g>
</svg>
