<?xml version="1.0" encoding="UTF-8" standalone="no"?>
<!DOCTYPE svg PUBLIC "-//W3C//DTD SVG 1.1//EN"
 "http://www.w3.org/Graphics/SVG/1.1/DTD/svg11.dtd">
<!-- Generated by graphviz version 2.50.0 (20211204.2007)
 -->
<!-- Title: G Pages: 1 -->
<svg width="62pt" height="116pt"
 viewBox="0.00 0.00 62.00 116.00" xmlns="http://www.w3.org/2000/svg" xmlns:xlink="http://www.w3.org/1999/xlink">
<g id="graph0" class="graph" transform="scale(1 1) rotate(0) translate(4 112)">
<title>G</title><style>.edge>path:hover{stroke-width:8}</style>
<polygon fill="white" stroke="transparent" points="-4,4 -4,-112 58,-112 58,4 -4,4"/>
<!-- cycles_a -->
<g id="node1" class="node">
<title>cycles_a</title><style>.edge>path:hover{stroke-width:8}</style>
<polygon fill="blue" stroke="black" points="54,-108 0,-108 0,-72 54,-72 54,-108"/>
<text text-anchor="middle" x="27" y="-87.5" font-family="Helvetica,sans-Serif" font-size="10.00" fill="white">cycles.a</text>
</g>
<!-- cycles_b -->
<g id="node2" class="node">
<title>cycles_b</title><style>.edge>path:hover{stroke-width:8}</style>
<polygon fill="blue" stroke="black" points="54,-36 0,-36 0,0 54,0 54,-36"/>
<text text-anchor="middle" x="27" y="-15.5" font-family="Helvetica,sans-Serif" font-size="10.00" fill="white">cycles.b</text>
</g>
<!-- cycles_a&#45;&gt;cycles_b -->
<g id="edge1" class="edge">
<title>cycles_a&#45;&gt;cycles_b</title><style>.edge>path:hover{stroke-width:8}</style>
<path fill="none" stroke="black" d="M27,-61.67C27,-56.69 27,-51.49 27,-46.51"/>
<polygon fill="blue" stroke="black" points="23.5,-61.7 27,-71.7 30.5,-61.7 23.5,-61.7"/>
<polygon fill="blue" stroke="black" points="30.5,-46.1 27,-36.1 23.5,-46.1 30.5,-46.1"/>
</g>
</g>
</svg>
