<?xml version="1.0" encoding="UTF-8" standalone="no"?>
<!DOCTYPE svg PUBLIC "-//W3C//DTD SVG 1.1//EN"
 "http://www.w3.org/Graphics/SVG/1.1/DTD/svg11.dtd">
<!-- Generated by graphviz version 2.26.3 (20100126.1600)
 -->
<!-- Title: G Pages: 1 -->
<svg width="900pt" height="440pt"
 viewBox="0.00 0.00 900.44 440.00" xmlns="http://www.w3.org/2000/svg" xmlns:xlink="http://www.w3.org/1999/xlink">
<g id="graph1" class="graph" transform="scale(1 1) rotate(0) translate(4 436)">
<title>G</title>
<polygon fill="white" stroke="white" points="-4,5 -4,-436 897.444,-436 897.444,5 -4,5"/>
<!-- StringIO -->
<g id="node1" class="node"><title>StringIO</title>
<ellipse fill="#23b36b" stroke="black" cx="641.444" cy="-414" rx="32.0105" ry="18"/>
<text text-anchor="middle" x="641.444" y="-411.5" font-family="Helvetica,sans-Serif" font-size="10.00" fill="#ffffff">StringIO</text>
</g>
<!-- pprint -->
<g id="node3" class="node"><title>pprint</title>
<ellipse fill="#23b36b" stroke="black" cx="672.444" cy="-342" rx="27" ry="18"/>
<text text-anchor="middle" x="672.444" y="-339.5" font-family="Helvetica,sans-Serif" font-size="10.00" fill="#ffffff">pprint</text>
</g>
<!-- StringIO&#45;&gt;pprint -->
<g id="edge2" class="edge"><title>StringIO&#45;&gt;pprint</title>
<path fill="none" stroke="black" d="M649.107,-396.202C652.662,-387.945 656.963,-377.954 660.9,-368.811"/>
<polygon fill="black" stroke="black" points="664.236,-369.914 664.976,-359.345 657.807,-367.145 664.236,-369.914"/>
</g>
<!-- pydeps_render_context -->
<g id="node7" class="node"><title>pydeps_render_context</title>
<ellipse fill="#23a2b3" stroke="black" cx="723.444" cy="-264" rx="56.7776" ry="24.0416"/>
<text text-anchor="middle" x="723.444" y="-268" font-family="Helvetica,sans-Serif" font-size="10.00" fill="#ffffff">pydeps.</text>
<text text-anchor="middle" x="723.444" y="-255" font-family="Helvetica,sans-Serif" font-size="10.00" fill="#ffffff">render_context</text>
</g>
<!-- StringIO&#45;&gt;pydeps_render_context -->
<g id="edge44" class="edge"><title>StringIO&#45;&gt;pydeps_render_context</title>
<path fill="none" stroke="black" d="M663.403,-400.567C682.737,-387.714 710.395,-366.67 727.444,-342"/>
</g>
<!-- shlex -->
<g id="node13" class="node"><title>shlex</title>
<ellipse fill="#23b36b" stroke="black" cx="228.444" cy="-342" rx="27" ry="18"/>
<text text-anchor="middle" x="228.444" y="-339.5" font-family="Helvetica,sans-Serif" font-size="10.00" fill="#ffffff">shlex</text>
</g>
<!-- StringIO&#45;&gt;shlex -->
<g id="edge12" class="edge"><title>StringIO&#45;&gt;shlex</title>
<path fill="none" stroke="black" d="M609.979,-409.852C549.924,-401.745 414.918,-382.599 302.444,-360 289.683,-357.436 275.795,-354.183 263.533,-351.149"/>
<polygon fill="black" stroke="black" points="264.227,-347.714 253.675,-348.672 262.521,-354.503 264.227,-347.714"/>
</g>
<!-- pydeps_py2depgraph -->
<g id="node16" class="node"><title>pydeps_py2depgraph</title>
<ellipse fill="#23a2b3" stroke="black" cx="512.444" cy="-96" rx="50.9117" ry="24.0416"/>
<text text-anchor="middle" x="512.444" y="-100" font-family="Helvetica,sans-Serif" font-size="10.00" fill="#ffffff">pydeps.</text>
<text text-anchor="middle" x="512.444" y="-87" font-family="Helvetica,sans-Serif" font-size="10.00" fill="#ffffff">py2depgraph</text>
</g>
<!-- pprint&#45;&gt;pydeps_py2depgraph -->
<g id="edge14" class="edge"><title>pprint&#45;&gt;pydeps_py2depgraph</title>
<path fill="none" stroke="black" d="M638.444,-180C627.491,-147.142 594.442,-125.857 564.94,-112.935"/>
<polygon fill="black" stroke="black" points="566.097,-109.626 555.519,-109.029 563.416,-116.092 566.097,-109.626"/>
<path fill="none" stroke="black" d="M667.005,-324.11C663.943,-313.647 660.193,-300.147 657.444,-288 646.687,-240.465 653.856,-226.236 638.444,-180"/>
</g>
<!-- pydeps_depgraph -->
<g id="node19" class="node"><title>pydeps_depgraph</title>
<ellipse fill="#23a2b3" stroke="black" cx="566.444" cy="-180" rx="39.0967" ry="24.0416"/>
<text text-anchor="middle" x="566.444" y="-184" font-family="Helvetica,sans-Serif" font-size="10.00" fill="#ffffff">pydeps.</text>
<text text-anchor="middle" x="566.444" y="-171" font-family="Helvetica,sans-Serif" font-size="10.00" fill="#ffffff">depgraph</text>
</g>
<!-- pprint&#45;&gt;pydeps_depgraph -->
<g id="edge32" class="edge"><title>pprint&#45;&gt;pydeps_depgraph</title>
<path fill="none" stroke="black" d="M657.13,-326.746C647.149,-316.351 634.213,-301.985 624.444,-288 607.669,-263.986 592.167,-234.577 581.418,-212.514"/>
<polygon fill="black" stroke="black" points="584.451,-210.745 576.969,-203.244 578.14,-213.774 584.451,-210.745"/>
</g>
<!-- pydeps_pydeps -->
<g id="node24" class="node"><title>pydeps_pydeps</title>
<ellipse fill="#23a2b3" stroke="black" cx="512.444" cy="-18" rx="51.0937" ry="18"/>
<text text-anchor="middle" x="512.444" y="-15.5" font-family="Helvetica,sans-Serif" font-size="10.00" fill="#ffffff">pydeps.pydeps</text>
</g>
<!-- pprint&#45;&gt;pydeps_pydeps -->
<g id="edge28" class="edge"><title>pprint&#45;&gt;pydeps_pydeps</title>
<path fill="none" stroke="black" d="M638.444,-96C615.118,-70.0857 581.178,-49.7494 554.398,-36.3477"/>
<polygon fill="black" stroke="black" points="555.777,-33.1264 545.254,-31.8988 552.715,-39.421 555.777,-33.1264"/>
<path fill="none" stroke="black" d="M638.444,-180C623.559,-145.762 663.42,-123.748 638.444,-96"/>
</g>
<!-- getopt -->
<g id="node4" class="node"><title>getopt</title>
<ellipse fill="#23b36b" stroke="black" cx="600.444" cy="-342" rx="27.0858" ry="18"/>
<text text-anchor="middle" x="600.444" y="-339.5" font-family="Helvetica,sans-Serif" font-size="10.00" fill="#ffffff">getopt</text>
</g>
<!-- pydeps_depgraph2dot -->
<g id="node6" class="node"><title>pydeps_depgraph2dot</title>
<ellipse fill="#23a2b3" stroke="black" cx="719.444" cy="-180" rx="53.033" ry="24.0416"/>
<text text-anchor="middle" x="719.444" y="-184" font-family="Helvetica,sans-Serif" font-size="10.00" fill="#ffffff">pydeps.</text>
<text text-anchor="middle" x="719.444" y="-171" font-family="Helvetica,sans-Serif" font-size="10.00" fill="#ffffff">depgraph2dot</text>
</g>
<!-- getopt&#45;&gt;pydeps_depgraph2dot -->
<g id="edge4" class="edge"><title>getopt&#45;&gt;pydeps_depgraph2dot</title>
<path fill="none" stroke="black" d="M608.301,-324.455C618.181,-303.345 636.417,-267.334 657.444,-240 666.031,-228.836 676.675,-217.778 686.706,-208.255"/>
<polygon fill="black" stroke="black" points="689.259,-210.661 694.213,-201.295 684.5,-205.527 689.259,-210.661"/>
</g>
<!-- pydeps_mf27 -->
<g id="node17" class="node"><title>pydeps_mf27</title>
<ellipse fill="#23a2b3" stroke="black" cx="465.444" cy="-180" rx="43.8243" ry="18"/>
<text text-anchor="middle" x="465.444" y="-177.5" font-family="Helvetica,sans-Serif" font-size="10.00" fill="#ffffff">pydeps.mf27</text>
</g>
<!-- getopt&#45;&gt;pydeps_mf27 -->
<g id="edge48" class="edge"><title>getopt&#45;&gt;pydeps_mf27</title>
<path fill="none" stroke="black" d="M587.254,-326.172C563.767,-297.988 514.528,-238.901 486.374,-205.117"/>
<polygon fill="black" stroke="black" points="488.79,-202.549 479.7,-197.107 483.413,-207.03 488.79,-202.549"/>
</g>
<!-- pydeps_depgraph2dot&#45;&gt;pydeps_pydeps -->
<g id="edge24" class="edge"><title>pydeps_depgraph2dot&#45;&gt;pydeps_pydeps</title>
<path fill="none" stroke="black" d="M697.359,-157.935C680.828,-141.219 657.825,-117.532 638.444,-96"/>
</g>
<!-- pydeps_render_context&#45;&gt;pydeps_depgraph2dot -->
<g id="edge6" class="edge"><title>pydeps_render_context&#45;&gt;pydeps_depgraph2dot</title>
<path fill="none" stroke="black" d="M722.287,-239.704C721.909,-231.781 721.483,-222.829 721.078,-214.314"/>
<polygon fill="black" stroke="black" points="724.57,-214.064 720.598,-204.242 717.578,-214.397 724.57,-214.064"/>
</g>
<!-- pydeps_colors -->
<g id="node9" class="node"><title>pydeps_colors</title>
<ellipse fill="#23a2b3" stroke="black" cx="845.444" cy="-264" rx="46.9013" ry="18"/>
<text text-anchor="middle" x="845.444" y="-261.5" font-family="Helvetica,sans-Serif" font-size="10.00" fill="#ffffff">pydeps.colors</text>
</g>
<!-- pydeps_colors&#45;&gt;pydeps_depgraph2dot -->
<g id="edge8" class="edge"><title>pydeps_colors&#45;&gt;pydeps_depgraph2dot</title>
<path fill="none" stroke="black" d="M821.744,-248.2C803.699,-236.171 778.493,-219.366 757.616,-205.448"/>
<polygon fill="black" stroke="black" points="759.526,-202.515 749.264,-199.88 755.643,-208.339 759.526,-202.515"/>
</g>
<!-- pydeps_colors&#45;&gt;pydeps_depgraph -->
<g id="edge34" class="edge"><title>pydeps_colors&#45;&gt;pydeps_depgraph</title>
<path fill="none" stroke="black" d="M815.618,-249.975C807.27,-246.392 798.107,-242.774 789.444,-240 717.96,-217.113 696.07,-226.438 624.444,-204 618.848,-202.247 613.041,-200.17 607.361,-197.984"/>
<polygon fill="black" stroke="black" points="608.563,-194.695 597.978,-194.238 605.968,-201.196 608.563,-194.695"/>
</g>
<!-- collections -->
<g id="node11" class="node"><title>collections</title>
<ellipse fill="#23b36b" stroke="black" cx="50.4437" cy="-414" rx="38.782" ry="18"/>
<text text-anchor="middle" x="50.4437" y="-411.5" font-family="Helvetica,sans-Serif" font-size="10.00" fill="#ffffff">collections</text>
</g>
<!-- collections&#45;&gt;shlex -->
<g id="edge10" class="edge"><title>collections&#45;&gt;shlex</title>
<path fill="none" stroke="black" d="M80.7996,-402.545C120.891,-387.403 187.085,-362.352 192.444,-360 194.219,-359.221 196.033,-358.399 197.856,-357.553"/>
<polygon fill="black" stroke="black" points="199.409,-360.69 206.909,-353.207 196.379,-354.38 199.409,-360.69"/>
</g>
<!-- collections&#45;&gt;pydeps_py2depgraph -->
<g id="edge20" class="edge"><title>collections&#45;&gt;pydeps_py2depgraph</title>
<path fill="none" stroke="black" d="M33.144,-397.785C23.8774,-387.879 13.3774,-374.379 8.4437,-360 -15.2385,-290.977 14.3667,-193.615 58.4437,-156 87.8694,-130.888 334.961,-109.28 451.747,-100.362"/>
<polygon fill="black" stroke="black" points="452.248,-103.834 461.955,-99.5897 451.719,-96.8543 452.248,-103.834"/>
</g>
<!-- collections&#45;&gt;pydeps_depgraph -->
<g id="edge36" class="edge"><title>collections&#45;&gt;pydeps_depgraph</title>
<path fill="none" stroke="black" d="M79.2649,-401.836C85.4985,-399.59 92.1192,-397.487 98.4437,-396 174.126,-378.206 387.71,-410.939 446.444,-360 479.668,-331.184 458.551,-306.341 470.444,-264"/>
<path fill="none" stroke="black" d="M470.444,-264C479.208,-236.014 504.592,-214.505 527.057,-200.26"/>
<polygon fill="black" stroke="black" points="529.056,-203.142 535.803,-194.973 525.435,-197.151 529.056,-203.142"/>
</g>
<!-- argparse -->
<g id="node22" class="node"><title>argparse</title>
<ellipse fill="#23b36b" stroke="black" cx="50.4437" cy="-342" rx="33.2417" ry="18"/>
<text text-anchor="middle" x="50.4437" y="-339.5" font-family="Helvetica,sans-Serif" font-size="10.00" fill="#ffffff">argparse</text>
</g>
<!-- collections&#45;&gt;argparse -->
<g id="edge58" class="edge"><title>collections&#45;&gt;argparse</title>
<path fill="none" stroke="black" d="M50.4437,-395.831C50.4437,-388.131 50.4437,-378.974 50.4437,-370.417"/>
<polygon fill="black" stroke="black" points="53.9438,-370.413 50.4437,-360.413 46.9438,-370.413 53.9438,-370.413"/>
</g>
<!-- pydeps_dot -->
<g id="node28" class="node"><title>pydeps_dot</title>
<ellipse fill="#23a2b3" stroke="black" cx="107.444" cy="-180" rx="40.0132" ry="18"/>
<text text-anchor="middle" x="107.444" y="-177.5" font-family="Helvetica,sans-Serif" font-size="10.00" fill="#ffffff">pydeps.dot</text>
</g>
<!-- shlex&#45;&gt;pydeps_dot -->
<g id="edge52" class="edge"><title>shlex&#45;&gt;pydeps_dot</title>
<path fill="none" stroke="black" d="M240.457,-325.658C250.499,-309.939 262.18,-285.466 255.444,-264"/>
</g>
<!-- pydeps_py2depgraph&#45;&gt;pydeps_pydeps -->
<g id="edge26" class="edge"><title>pydeps_py2depgraph&#45;&gt;pydeps_pydeps</title>
<path fill="none" stroke="black" d="M512.444,-71.7479C512.444,-63.6981 512.444,-54.6653 512.444,-46.3356"/>
<polygon fill="black" stroke="black" points="515.944,-46.2875 512.444,-36.2875 508.944,-46.2876 515.944,-46.2875"/>
</g>
<!-- pydeps_mf27&#45;&gt;pydeps_py2depgraph -->
<g id="edge16" class="edge"><title>pydeps_mf27&#45;&gt;pydeps_py2depgraph</title>
<path fill="none" stroke="black" d="M475.411,-162.186C480.939,-152.306 487.983,-139.717 494.44,-128.176"/>
<polygon fill="black" stroke="black" points="497.624,-129.653 499.453,-119.217 491.516,-126.235 497.624,-129.653"/>
</g>
<!-- pydeps_depgraph&#45;&gt;pydeps_py2depgraph -->
<g id="edge18" class="edge"><title>pydeps_depgraph&#45;&gt;pydeps_py2depgraph</title>
<path fill="none" stroke="black" d="M551.973,-157.49C546.077,-148.318 539.157,-137.554 532.769,-127.617"/>
<polygon fill="black" stroke="black" points="535.683,-125.677 527.331,-119.158 529.795,-129.463 535.683,-125.677"/>
</g>
<!-- argparse&#45;&gt;pydeps_pydeps -->
<g id="edge22" class="edge"><title>argparse&#45;&gt;pydeps_pydeps</title>
<path fill="none" stroke="black" d="M107.444,-96C162.844,-58.1725 354.104,-33.9336 452.672,-23.656"/>
<polygon fill="black" stroke="black" points="453.188,-27.1214 462.778,-22.6173 452.472,-20.1581 453.188,-27.1214"/>
<path fill="none" stroke="black" d="M47.5523,-323.811C42.8998,-289.622 36.356,-213.993 58.4437,-156 70.6979,-123.825 79.0103,-115.415 107.444,-96"/>
</g>
<!-- pydeps_dot&#45;&gt;pydeps_pydeps -->
<g id="edge30" class="edge"><title>pydeps_dot&#45;&gt;pydeps_pydeps</title>
<path fill="none" stroke="black" d="M100.271,-161.944C93.5334,-141.674 87.2105,-109.815 107.444,-96"/>
</g>
<!-- fnmatch -->
<g id="node33" class="node"><title>fnmatch</title>
<ellipse fill="#23b36b" stroke="black" cx="524.444" cy="-342" rx="30.8966" ry="18"/>
<text text-anchor="middle" x="524.444" y="-339.5" font-family="Helvetica,sans-Serif" font-size="10.00" fill="#ffffff">fnmatch</text>
</g>
<!-- fnmatch&#45;&gt;pydeps_depgraph -->
<g id="edge38" class="edge"><title>fnmatch&#45;&gt;pydeps_depgraph</title>
<path fill="none" stroke="black" d="M504.352,-328.024C486.193,-313.497 463.318,-289.371 470.444,-264"/>
</g>
<!-- contextlib -->
<g id="node35" class="node"><title>contextlib</title>
<ellipse fill="#23b36b" stroke="black" cx="727.444" cy="-414" rx="35.8221" ry="18"/>
<text text-anchor="middle" x="727.444" y="-411.5" font-family="Helvetica,sans-Serif" font-size="10.00" fill="#ffffff">contextlib</text>
</g>
<!-- contextlib&#45;&gt;pydeps_render_context -->
<g id="edge40" class="edge"><title>contextlib&#45;&gt;pydeps_render_context</title>
<path fill="none" stroke="black" d="M722.163,-396.054C718.694,-380.378 716.571,-357.733 727.444,-342"/>
</g>
<!-- textwrap -->
<g id="node37" class="node"><title>textwrap</title>
<ellipse fill="#23b36b" stroke="black" cx="139.444" cy="-414" rx="32.1242" ry="18"/>
<text text-anchor="middle" x="139.444" y="-411.5" font-family="Helvetica,sans-Serif" font-size="10.00" fill="#ffffff">textwrap</text>
</g>
<!-- textwrap&#45;&gt;pydeps_render_context -->
<g id="edge42" class="edge"><title>textwrap&#45;&gt;pydeps_render_context</title>
<path fill="none" stroke="black" d="M171.447,-413.679C276.779,-412.204 611.441,-404.077 708.444,-360 719.034,-355.188 720.83,-351.569 727.444,-342"/>
<path fill="none" stroke="black" d="M727.444,-342C736.213,-329.311 736.399,-312.499 733.899,-297.732"/>
<polygon fill="black" stroke="black" points="737.314,-296.966 731.811,-287.912 730.467,-298.421 737.314,-296.966"/>
</g>
<!-- textwrap&#45;&gt;argparse -->
<g id="edge60" class="edge"><title>textwrap&#45;&gt;argparse</title>
<path fill="none" stroke="black" d="M121.003,-399.082C108.319,-388.821 91.275,-375.032 77.1157,-363.577"/>
<polygon fill="black" stroke="black" points="79.143,-360.715 69.1671,-357.147 74.7403,-366.158 79.143,-360.715"/>
</g>
<!-- textwrap&#45;&gt;pydeps_dot -->
<g id="edge54" class="edge"><title>textwrap&#45;&gt;pydeps_dot</title>
<path fill="none" stroke="black" d="M170.79,-410.145C200.578,-404.633 243.798,-391.409 264.444,-360 274.063,-345.367 257.281,-269.855 255.444,-264"/>
</g>
<!-- struct -->
<g id="node40" class="node"><title>struct</title>
<ellipse fill="#23b36b" stroke="black" cx="338.444" cy="-342" rx="27" ry="18"/>
<text text-anchor="middle" x="338.444" y="-339.5" font-family="Helvetica,sans-Serif" font-size="10.00" fill="#ffffff">struct</text>
</g>
<!-- struct&#45;&gt;pydeps_mf27 -->
<g id="edge46" class="edge"><title>struct&#45;&gt;pydeps_mf27</title>
<path fill="none" stroke="black" d="M355.504,-327.93C371.905,-313.511 396.24,-289.629 410.444,-264"/>
<path fill="none" stroke="black" d="M410.444,-264C421.565,-243.932 435.79,-222.294 446.987,-206.006"/>
<polygon fill="black" stroke="black" points="450.029,-207.761 452.857,-197.551 444.279,-203.769 450.029,-207.761"/>
</g>
<!-- dis -->
<g id="node43" class="node"><title>dis</title>
<ellipse fill="#23b36b" stroke="black" cx="410.444" cy="-342" rx="27" ry="18"/>
<text text-anchor="middle" x="410.444" y="-339.5" font-family="Helvetica,sans-Serif" font-size="10.00" fill="#ffffff">dis</text>
</g>
<!-- dis&#45;&gt;pydeps_mf27 -->
<g id="edge50" class="edge"><title>dis&#45;&gt;pydeps_mf27</title>
<path fill="none" stroke="black" d="M405.756,-324.051C402.444,-307.4 400.204,-282.477 410.444,-264"/>
</g>
<!-- subprocess -->
<g id="node47" class="node"><title>subprocess</title>
<ellipse fill="#23b36b" stroke="black" cx="142.444" cy="-342" rx="41.2443" ry="18"/>
<text text-anchor="middle" x="142.444" y="-339.5" font-family="Helvetica,sans-Serif" font-size="10.00" fill="#ffffff">subprocess</text>
</g>
<!-- subprocess&#45;&gt;pydeps_dot -->
<g id="edge56" class="edge"><title>subprocess&#45;&gt;pydeps_dot</title>
<path fill="none" stroke="black" d="M171.709,-329.209C207.218,-312.71 261.653,-283.788 255.444,-264"/>
<path fill="none" stroke="black" d="M255.444,-264C242.045,-221.303 192.692,-199.725 154.621,-189.222"/>
<polygon fill="black" stroke="black" points="155.276,-185.777 144.718,-186.665 153.525,-192.554 155.276,-185.777"/>
</g>
<!-- colorsys -->
<g id="node51" class="node"><title>colorsys</title>
<ellipse fill="#23b36b" stroke="black" cx="845.444" cy="-414" rx="32.1242" ry="18"/>
<text text-anchor="middle" x="845.444" y="-411.5" font-family="Helvetica,sans-Serif" font-size="10.00" fill="#ffffff">colorsys</text>
</g>
<!-- colorsys&#45;&gt;pydeps_colors -->
<g id="edge62" class="edge"><title>colorsys&#45;&gt;pydeps_colors</title>
<path fill="none" stroke="black" d="M845.444,-395.906C845.444,-370.229 845.444,-322.963 845.444,-292.535"/>
<polygon fill="black" stroke="black" points="848.944,-292.158 845.444,-282.158 841.944,-292.158 848.944,-292.158"/>
</g>
</g>
</svg>
