<?xml version="1.0" encoding="UTF-8" standalone="no"?>
<!DOCTYPE svg PUBLIC "-//W3C//DTD SVG 1.1//EN"
 "http://www.w3.org/Graphics/SVG/1.1/DTD/svg11.dtd">
<!-- Generated by graphviz version 2.38.0 (20140413.2041)
 -->
<!-- Title: G Pages: 1 -->
<svg width="1645pt" height="659pt"
 viewBox="0.00 0.00 1645.28 658.56" xmlns="http://www.w3.org/2000/svg" xmlns:xlink="http://www.w3.org/1999/xlink">
<g id="graph0" class="graph" transform="scale(1 1) rotate(0) translate(4 654.558)">
<title>G</title>
<polygon fill="white" stroke="none" points="-4,4 -4,-654.558 1641.28,-654.558 1641.28,4 -4,4"/>
<!-- yaml_emitter -->
<g id="node1" class="node"><title>yaml_emitter</title>
<ellipse fill="#ac49ac" stroke="black" cx="1079.28" cy="-485.345" rx="41.5911" ry="18"/>
<text text-anchor="middle" x="1079.28" y="-482.845" font-family="Helvetica,sans-Serif" font-size="10.00" fill="#ffffff">yaml.emitter</text>
</g>
<!-- yaml_dumper -->
<g id="node23" class="node"><title>yaml_dumper</title>
<ellipse fill="#9d439d" stroke="black" cx="1293.28" cy="-406.919" rx="42.9448" ry="18"/>
<text text-anchor="middle" x="1293.28" y="-404.419" font-family="Helvetica,sans-Serif" font-size="10.00" fill="#ffffff">yaml.dumper</text>
</g>
<!-- yaml_emitter&#45;&gt;yaml_dumper -->
<g id="edge34" class="edge"><title>yaml_emitter&#45;&gt;yaml_dumper</title>
<path fill="none" stroke="black" d="M1108.58,-472.467C1115.66,-469.671 1123.22,-466.745 1130.28,-464.132 1170.98,-449.056 1217.87,-433.025 1250.87,-421.956"/>
<polygon fill="#ac49ac" stroke="black" points="1252.28,-425.178 1260.65,-418.687 1250.06,-418.539 1252.28,-425.178"/>
</g>
<!-- stdlib_list__version -->
<g id="node2" class="node"><title>stdlib_list__version</title>
<ellipse fill="#5353b6" stroke="black" cx="572.276" cy="-485.345" rx="43.2674" ry="21.4286"/>
<text text-anchor="middle" x="572.276" y="-488.345" font-family="Helvetica,sans-Serif" font-size="10.00" fill="#ffffff">stdlib_list.</text>
<text text-anchor="middle" x="572.276" y="-477.345" font-family="Helvetica,sans-Serif" font-size="10.00" fill="#ffffff">_version</text>
</g>
<!-- stdlib_list -->
<g id="node25" class="node"><title>stdlib_list</title>
<ellipse fill="#3d3db8" stroke="black" cx="572.276" cy="-406.919" rx="34.2855" ry="18"/>
<text text-anchor="middle" x="572.276" y="-404.419" font-family="Helvetica,sans-Serif" font-size="10.00" fill="#ffffff">stdlib_list</text>
</g>
<!-- stdlib_list__version&#45;&gt;stdlib_list -->
<g id="edge26" class="edge"><title>stdlib_list__version&#45;&gt;stdlib_list</title>
<path fill="none" stroke="black" d="M572.276,-463.864C572.276,-455.126 572.276,-444.799 572.276,-435.41"/>
<polygon fill="#5353b6" stroke="black" points="575.776,-435.345 572.276,-425.345 568.776,-435.345 575.776,-435.345"/>
</g>
<!-- pydeps_render_context -->
<g id="node3" class="node"><title>pydeps_render_context</title>
<ellipse fill="#47c2c2" stroke="black" cx="57.2756" cy="-328.492" rx="57.0522" ry="21.4286"/>
<text text-anchor="middle" x="57.2756" y="-331.492" font-family="Helvetica,sans-Serif" font-size="10.00" fill="#000000">pydeps.</text>
<text text-anchor="middle" x="57.2756" y="-320.492" font-family="Helvetica,sans-Serif" font-size="10.00" fill="#000000">render_context</text>
</g>
<!-- pydeps_depgraph2dot -->
<g id="node21" class="node"><title>pydeps_depgraph2dot</title>
<ellipse fill="#3ab0b0" stroke="black" cx="57.2756" cy="-250.066" rx="53.066" ry="21.4286"/>
<text text-anchor="middle" x="57.2756" y="-253.066" font-family="Helvetica,sans-Serif" font-size="10.00" fill="#000000">pydeps.</text>
<text text-anchor="middle" x="57.2756" y="-242.066" font-family="Helvetica,sans-Serif" font-size="10.00" fill="#000000">depgraph2dot</text>
</g>
<!-- pydeps_render_context&#45;&gt;pydeps_depgraph2dot -->
<g id="edge23" class="edge"><title>pydeps_render_context&#45;&gt;pydeps_depgraph2dot</title>
<path fill="none" stroke="black" d="M57.2756,-307.012C57.2756,-299.153 57.2756,-290.009 57.2756,-281.418"/>
<polygon fill="#47c2c2" stroke="black" points="60.7757,-281.338 57.2756,-271.338 53.7757,-281.338 60.7757,-281.338"/>
</g>
<!-- pydeps_mf27 -->
<g id="node4" class="node"><title>pydeps_mf27</title>
<ellipse fill="#47c2c2" stroke="black" cx="340.276" cy="-250.066" rx="42.2678" ry="18"/>
<text text-anchor="middle" x="340.276" y="-247.566" font-family="Helvetica,sans-Serif" font-size="10.00" fill="#000000">pydeps.mf27</text>
</g>
<!-- pydeps_py2depgraph -->
<g id="node38" class="node"><title>pydeps_py2depgraph</title>
<ellipse fill="#309191" stroke="black" cx="440.276" cy="-171.64" rx="50.8235" ry="21.4286"/>
<text text-anchor="middle" x="440.276" y="-174.64" font-family="Helvetica,sans-Serif" font-size="10.00" fill="#ffffff">pydeps.</text>
<text text-anchor="middle" x="440.276" y="-163.64" font-family="Helvetica,sans-Serif" font-size="10.00" fill="#ffffff">py2depgraph</text>
</g>
<!-- pydeps_mf27&#45;&gt;pydeps_py2depgraph -->
<g id="edge16" class="edge"><title>pydeps_mf27&#45;&gt;pydeps_py2depgraph</title>
<path fill="none" stroke="black" d="M360.032,-233.967C373.895,-223.372 392.726,-208.98 408.662,-196.801"/>
<polygon fill="#47c2c2" stroke="black" points="410.87,-199.519 416.69,-190.665 406.619,-193.957 410.87,-199.519"/>
</g>
<!-- yaml_cyaml -->
<g id="node5" class="node"><title>yaml_cyaml</title>
<ellipse fill="#964096" stroke="black" cx="1394.28" cy="-406.919" rx="39.3809" ry="18"/>
<text text-anchor="middle" x="1394.28" y="-404.419" font-family="Helvetica,sans-Serif" font-size="10.00" fill="#ffffff">yaml.cyaml</text>
</g>
<!-- yaml -->
<g id="node15" class="node"><title>yaml</title>
<ellipse fill="#883a88" stroke="black" cx="1009.28" cy="-328.492" rx="27" ry="18"/>
<text text-anchor="middle" x="1009.28" y="-325.992" font-family="Helvetica,sans-Serif" font-size="10.00" fill="#ffffff">yaml</text>
</g>
<!-- yaml_cyaml&#45;&gt;yaml -->
<g id="edge32" class="edge"><title>yaml_cyaml&#45;&gt;yaml</title>
<path fill="none" stroke="black" d="M1367.45,-393.579C1360.35,-390.668 1352.62,-387.805 1345.28,-385.706 1238.84,-355.272 1108.43,-339.291 1046,-332.898"/>
<polygon fill="#964096" stroke="black" points="1046.16,-329.397 1035.86,-331.884 1045.47,-336.362 1046.16,-329.397"/>
</g>
<!-- pydeps_pycompat -->
<g id="node6" class="node"><title>pydeps_pycompat</title>
<ellipse fill="#26d9d9" stroke="black" cx="357.276" cy="-485.345" rx="41.9398" ry="21.4286"/>
<text text-anchor="middle" x="357.276" y="-488.345" font-family="Helvetica,sans-Serif" font-size="10.00" fill="#000000">pydeps.</text>
<text text-anchor="middle" x="357.276" y="-477.345" font-family="Helvetica,sans-Serif" font-size="10.00" fill="#000000">pycompat</text>
</g>
<!-- pydeps_cli -->
<g id="node10" class="node"><title>pydeps_cli</title>
<ellipse fill="#17d3d3" stroke="black" cx="285.276" cy="-328.492" rx="35.8171" ry="18"/>
<text text-anchor="middle" x="285.276" y="-325.992" font-family="Helvetica,sans-Serif" font-size="10.00" fill="#000000">pydeps.cli</text>
</g>
<!-- pydeps_pycompat&#45;&gt;pydeps_cli -->
<g id="edge19" class="edge"><title>pydeps_pycompat&#45;&gt;pydeps_cli</title>
<path fill="none" stroke="black" d="M335.846,-466.975C324.731,-456.808 311.916,-443.056 304.276,-428.132 292.839,-405.791 288.256,-377.396 286.436,-356.814"/>
<polygon fill="#26d9d9" stroke="black" points="289.927,-356.557 285.714,-346.836 282.945,-357.063 289.927,-356.557"/>
</g>
<!-- pydeps_arguments -->
<g id="node14" class="node"><title>pydeps_arguments</title>
<ellipse fill="#40bfc0" stroke="black" cx="357.276" cy="-406.919" rx="43.6818" ry="21.4286"/>
<text text-anchor="middle" x="357.276" y="-409.919" font-family="Helvetica,sans-Serif" font-size="10.00" fill="#000000">pydeps.</text>
<text text-anchor="middle" x="357.276" y="-398.919" font-family="Helvetica,sans-Serif" font-size="10.00" fill="#000000">arguments</text>
</g>
<!-- pydeps_pycompat&#45;&gt;pydeps_arguments -->
<g id="edge18" class="edge"><title>pydeps_pycompat&#45;&gt;pydeps_arguments</title>
<path fill="none" stroke="black" d="M357.276,-463.864C357.276,-456.006 357.276,-446.861 357.276,-438.271"/>
<polygon fill="#26d9d9" stroke="black" points="360.776,-438.191 357.276,-428.191 353.776,-438.191 360.776,-438.191"/>
</g>
<!-- pydeps_depgraph -->
<g id="node19" class="node"><title>pydeps_depgraph</title>
<ellipse fill="#35a1a1" stroke="black" cx="440.276" cy="-250.066" rx="39.6962" ry="21.4286"/>
<text text-anchor="middle" x="440.276" y="-253.066" font-family="Helvetica,sans-Serif" font-size="10.00" fill="#000000">pydeps.</text>
<text text-anchor="middle" x="440.276" y="-242.066" font-family="Helvetica,sans-Serif" font-size="10.00" fill="#000000">depgraph</text>
</g>
<!-- pydeps_pycompat&#45;&gt;pydeps_depgraph -->
<g id="edge20" class="edge"><title>pydeps_pycompat&#45;&gt;pydeps_depgraph</title>
<path fill="none" stroke="black" d="M378.837,-467.041C389.992,-456.895 402.804,-443.141 410.276,-428.132 433.925,-380.627 439.389,-318.023 440.394,-281.395"/>
<polygon fill="#26d9d9" stroke="black" points="443.895,-281.408 440.575,-271.347 436.896,-281.282 443.895,-281.408"/>
</g>
<!-- pydeps_pydeps -->
<g id="node7" class="node"><title>pydeps_pydeps</title>
<ellipse fill="#339999" stroke="black" cx="254.276" cy="-96.4264" rx="48.7185" ry="18"/>
<text text-anchor="middle" x="254.276" y="-93.9264" font-family="Helvetica,sans-Serif" font-size="10.00" fill="#ffffff">pydeps.pydeps</text>
</g>
<!-- pydeps___main__ -->
<g id="node9" class="node"><title>pydeps___main__</title>
<ellipse fill="#4cb3b3" stroke="black" cx="254.276" cy="-21.2132" rx="41.9398" ry="21.4286"/>
<text text-anchor="middle" x="254.276" y="-24.2132" font-family="Helvetica,sans-Serif" font-size="10.00" fill="#000000">pydeps.</text>
<text text-anchor="middle" x="254.276" y="-13.2132" font-family="Helvetica,sans-Serif" font-size="10.00" fill="#000000">__main__</text>
</g>
<!-- pydeps_pydeps&#45;&gt;pydeps___main__ -->
<g id="edge21" class="edge"><title>pydeps_pydeps&#45;&gt;pydeps___main__</title>
<path fill="none" stroke="black" d="M254.276,-78.0759C254.276,-70.5002 254.276,-61.3864 254.276,-52.7384"/>
<polygon fill="#339999" stroke="black" points="257.776,-52.5555 254.276,-42.5555 250.776,-52.5555 257.776,-52.5555"/>
</g>
<!-- yaml_representer -->
<g id="node8" class="node"><title>yaml_representer</title>
<ellipse fill="#b83db8" stroke="black" cx="1498.28" cy="-485.345" rx="45.9239" ry="21.4286"/>
<text text-anchor="middle" x="1498.28" y="-488.345" font-family="Helvetica,sans-Serif" font-size="10.00" fill="#ffffff">yaml.</text>
<text text-anchor="middle" x="1498.28" y="-477.345" font-family="Helvetica,sans-Serif" font-size="10.00" fill="#ffffff">representer</text>
</g>
<!-- yaml_representer&#45;&gt;yaml_cyaml -->
<g id="edge59" class="edge"><title>yaml_representer&#45;&gt;yaml_cyaml</title>
<path fill="none" stroke="black" d="M1474.68,-467.003C1459.16,-455.602 1438.78,-440.625 1422.42,-428.603"/>
<polygon fill="#b83db8" stroke="black" points="1424.41,-425.722 1414.28,-422.621 1420.27,-431.363 1424.41,-425.722"/>
</g>
<!-- yaml_representer&#45;&gt;yaml_dumper -->
<g id="edge60" class="edge"><title>yaml_representer&#45;&gt;yaml_dumper</title>
<path fill="none" stroke="black" d="M1463.23,-471.432C1425.56,-457.541 1368.14,-436.343 1346.28,-428.132 1342.07,-426.551 1337.67,-424.89 1333.29,-423.229"/>
<polygon fill="#b83db8" stroke="black" points="1334.4,-419.905 1323.8,-419.622 1331.91,-426.448 1334.4,-419.905"/>
</g>
<!-- pydeps_cli&#45;&gt;pydeps_pydeps -->
<g id="edge9" class="edge"><title>pydeps_cli&#45;&gt;pydeps_pydeps</title>
<path fill="none" stroke="black" d="M258.44,-316.384C223.552,-301.838 166.022,-277.459 157.276,-271.279 147.206,-264.165 142.401,-262.685 138.276,-251.066"/>
<path fill="none" stroke="black" d="M138.276,-249.066C126.909,-217.057 115.469,-197.812 138.276,-172.64"/>
</g>
<!-- pydeps_dummymodule -->
<g id="node12" class="node"><title>pydeps_dummymodule</title>
<ellipse fill="#3db8b8" stroke="black" cx="223.276" cy="-250.066" rx="56.6372" ry="21.4286"/>
<text text-anchor="middle" x="223.276" y="-253.066" font-family="Helvetica,sans-Serif" font-size="10.00" fill="#000000">pydeps.</text>
<text text-anchor="middle" x="223.276" y="-242.066" font-family="Helvetica,sans-Serif" font-size="10.00" fill="#000000">dummymodule</text>
</g>
<!-- pydeps_cli&#45;&gt;pydeps_dummymodule -->
<g id="edge8" class="edge"><title>pydeps_cli&#45;&gt;pydeps_dummymodule</title>
<path fill="none" stroke="black" d="M272.429,-311.657C264.666,-302.087 254.557,-289.626 245.527,-278.495"/>
<polygon fill="#17d3d3" stroke="black" points="248.21,-276.247 239.192,-270.686 242.774,-280.657 248.21,-276.247"/>
</g>
<!-- pydeps_dot -->
<g id="node16" class="node"><title>pydeps_dot</title>
<ellipse fill="#3db8b8" stroke="black" cx="204.276" cy="-171.64" rx="38.0276" ry="18"/>
<text text-anchor="middle" x="204.276" y="-169.14" font-family="Helvetica,sans-Serif" font-size="10.00" fill="#000000">pydeps.dot</text>
</g>
<!-- pydeps_cli&#45;&gt;pydeps_dot -->
<g id="edge7" class="edge"><title>pydeps_cli&#45;&gt;pydeps_dot</title>
<path fill="none" stroke="black" d="M138.276,-249.066C130.063,-225.937 150.571,-205.248 170.844,-191.248"/>
<polygon fill="#17d3d3" stroke="black" points="172.953,-194.052 179.433,-185.67 169.14,-188.181 172.953,-194.052"/>
</g>
<!-- pydeps_cli&#45;&gt;pydeps_depgraph -->
<g id="edge6" class="edge"><title>pydeps_cli&#45;&gt;pydeps_depgraph</title>
<path fill="none" stroke="black" d="M310.179,-315.213C335.167,-302.893 373.966,-283.762 402.697,-269.595"/>
<polygon fill="#17d3d3" stroke="black" points="404.598,-272.56 412.019,-264.998 401.503,-266.282 404.598,-272.56"/>
</g>
<!-- yaml_composer -->
<g id="node11" class="node"><title>yaml_composer</title>
<ellipse fill="#a446a4" stroke="black" cx="932.276" cy="-485.345" rx="48.7185" ry="18"/>
<text text-anchor="middle" x="932.276" y="-482.845" font-family="Helvetica,sans-Serif" font-size="10.00" fill="#ffffff">yaml.composer</text>
</g>
<!-- yaml_loader -->
<g id="node32" class="node"><title>yaml_loader</title>
<ellipse fill="#8f3d8f" stroke="black" cx="932.276" cy="-406.919" rx="39.3809" ry="18"/>
<text text-anchor="middle" x="932.276" y="-404.419" font-family="Helvetica,sans-Serif" font-size="10.00" fill="#ffffff">yaml.loader</text>
</g>
<!-- yaml_composer&#45;&gt;yaml_loader -->
<g id="edge29" class="edge"><title>yaml_composer&#45;&gt;yaml_loader</title>
<path fill="none" stroke="black" d="M932.276,-467.003C932.276,-457.556 932.276,-445.655 932.276,-435.013"/>
<polygon fill="#a446a4" stroke="black" points="935.776,-434.929 932.276,-424.929 928.776,-434.929 935.776,-434.929"/>
</g>
<!-- pydeps_dummymodule&#45;&gt;pydeps_py2depgraph -->
<g id="edge15" class="edge"><title>pydeps_dummymodule&#45;&gt;pydeps_py2depgraph</title>
<path fill="none" stroke="black" d="M263.33,-234.959C299.908,-222.077 354.028,-203.016 392.774,-189.369"/>
<polygon fill="#3db8b8" stroke="black" points="394.004,-192.647 402.273,-186.024 391.679,-186.045 394.004,-192.647"/>
</g>
<!-- yaml_events -->
<g id="node13" class="node"><title>yaml_events</title>
<ellipse fill="#e722e7" stroke="black" cx="1021.28" cy="-560.558" rx="40.0582" ry="18"/>
<text text-anchor="middle" x="1021.28" y="-558.058" font-family="Helvetica,sans-Serif" font-size="10.00" fill="#ffffff">yaml.events</text>
</g>
<!-- yaml_events&#45;&gt;yaml_emitter -->
<g id="edge47" class="edge"><title>yaml_events&#45;&gt;yaml_emitter</title>
<path fill="none" stroke="black" d="M1034.15,-543.31C1041.81,-533.642 1051.67,-521.196 1060.22,-510.404"/>
<polygon fill="#e722e7" stroke="black" points="1062.97,-512.56 1066.44,-502.548 1057.49,-508.213 1062.97,-512.56"/>
</g>
<!-- yaml_events&#45;&gt;yaml_composer -->
<g id="edge46" class="edge"><title>yaml_events&#45;&gt;yaml_composer</title>
<path fill="none" stroke="black" d="M1002.83,-544.389C990.236,-534.025 973.336,-520.122 959.233,-508.521"/>
<polygon fill="#e722e7" stroke="black" points="961.253,-505.651 951.307,-502.001 956.806,-511.057 961.253,-505.651"/>
</g>
<!-- yaml_events&#45;&gt;yaml -->
<g id="edge45" class="edge"><title>yaml_events&#45;&gt;yaml</title>
<path fill="none" stroke="black" d="M1020.37,-542.266C1018.31,-502.614 1013.21,-404.873 1010.71,-356.92"/>
<polygon fill="#e722e7" stroke="black" points="1014.19,-356.476 1010.17,-346.672 1007.2,-356.84 1014.19,-356.476"/>
</g>
<!-- yaml_parser -->
<g id="node20" class="node"><title>yaml_parser</title>
<ellipse fill="#9d439d" stroke="black" cx="749.276" cy="-485.345" rx="40.0582" ry="18"/>
<text text-anchor="middle" x="749.276" y="-482.845" font-family="Helvetica,sans-Serif" font-size="10.00" fill="#ffffff">yaml.parser</text>
</g>
<!-- yaml_events&#45;&gt;yaml_parser -->
<g id="edge48" class="edge"><title>yaml_events&#45;&gt;yaml_parser</title>
<path fill="none" stroke="black" d="M987.923,-550.581C938.778,-537.353 846.878,-512.617 792.583,-498.002"/>
<polygon fill="#e722e7" stroke="black" points="793.467,-494.616 782.901,-495.396 791.648,-501.375 793.467,-494.616"/>
</g>
<!-- yaml_serializer -->
<g id="node26" class="node"><title>yaml_serializer</title>
<ellipse fill="#b03ab0" stroke="black" cx="1394.28" cy="-485.345" rx="39.6962" ry="21.4286"/>
<text text-anchor="middle" x="1394.28" y="-488.345" font-family="Helvetica,sans-Serif" font-size="10.00" fill="#ffffff">yaml.</text>
<text text-anchor="middle" x="1394.28" y="-477.345" font-family="Helvetica,sans-Serif" font-size="10.00" fill="#ffffff">serializer</text>
</g>
<!-- yaml_events&#45;&gt;yaml_serializer -->
<g id="edge49" class="edge"><title>yaml_events&#45;&gt;yaml_serializer</title>
<path fill="none" stroke="black" d="M1059.28,-554.513C1133,-544.537 1292.85,-521.929 1346.28,-506.558 1349.4,-505.659 1352.6,-504.612 1355.79,-503.478"/>
<polygon fill="#e722e7" stroke="black" points="1357.13,-506.71 1365.23,-499.872 1354.64,-500.171 1357.13,-506.71"/>
</g>
<!-- pydeps_arguments&#45;&gt;pydeps_cli -->
<g id="edge5" class="edge"><title>pydeps_arguments&#45;&gt;pydeps_cli</title>
<path fill="none" stroke="black" d="M339.846,-387.418C329.905,-376.865 317.361,-363.551 306.808,-352.348"/>
<polygon fill="#40bfc0" stroke="black" points="309.28,-349.869 299.876,-344.99 304.185,-354.669 309.28,-349.869"/>
</g>
<!-- yaml&#45;&gt;pydeps_py2depgraph -->
<g id="edge28" class="edge"><title>yaml&#45;&gt;pydeps_py2depgraph</title>
<path fill="none" stroke="black" d="M984.826,-320.839C899.05,-297.495 610.602,-218.994 491.934,-186.698"/>
<polygon fill="#883a88" stroke="black" points="492.568,-183.244 482,-183.995 490.73,-189.998 492.568,-183.244"/>
</g>
<!-- pydeps_dot&#45;&gt;pydeps_pydeps -->
<g id="edge14" class="edge"><title>pydeps_dot&#45;&gt;pydeps_pydeps</title>
<path fill="none" stroke="black" d="M215.372,-154.391C221.756,-145.044 229.912,-133.101 237.107,-122.566"/>
<polygon fill="#3db8b8" stroke="black" points="240.114,-124.369 242.863,-114.137 234.333,-120.421 240.114,-124.369"/>
</g>
<!-- yaml_error -->
<g id="node17" class="node"><title>yaml_error</title>
<ellipse fill="#f910f9" stroke="black" cx="919.276" cy="-632.558" rx="35.1405" ry="18"/>
<text text-anchor="middle" x="919.276" y="-630.058" font-family="Helvetica,sans-Serif" font-size="10.00" fill="#ffffff">yaml.error</text>
</g>
<!-- yaml_error&#45;&gt;yaml_emitter -->
<g id="edge38" class="edge"><title>yaml_error&#45;&gt;yaml_emitter</title>
<path fill="none" stroke="black" d="M1185.28,-559.558C1196.27,-545.32 1151.59,-520.065 1116.86,-503.261"/>
<polygon fill="#f910f9" stroke="black" points="1117.92,-499.89 1107.39,-498.762 1114.92,-506.213 1117.92,-499.89"/>
<path fill="none" stroke="black" d="M953.543,-627.68C1018.8,-619.515 1156.96,-598.217 1185.28,-561.558"/>
</g>
<!-- yaml_error&#45;&gt;yaml_representer -->
<g id="edge41" class="edge"><title>yaml_error&#45;&gt;yaml_representer</title>
<path fill="none" stroke="black" d="M1437.28,-559.558C1451.42,-545.146 1465.94,-527.835 1477.26,-513.665"/>
<polygon fill="#f910f9" stroke="black" points="1480.08,-515.746 1483.54,-505.731 1474.59,-511.405 1480.08,-515.746"/>
</g>
<!-- yaml_error&#45;&gt;yaml_composer -->
<g id="edge36" class="edge"><title>yaml_error&#45;&gt;yaml_composer</title>
<path fill="none" stroke="black" d="M925.358,-614.628C928.725,-604.347 932.567,-590.872 934.276,-578.558 937.293,-556.814 936.505,-531.914 935.122,-513.473"/>
<polygon fill="#f910f9" stroke="black" points="938.603,-513.1 934.264,-503.435 931.629,-513.697 938.603,-513.1"/>
</g>
<!-- yaml_error&#45;&gt;yaml -->
<g id="edge35" class="edge"><title>yaml_error&#45;&gt;yaml</title>
<path fill="none" stroke="black" d="M817.276,-559.558C795.817,-533.577 788.738,-425.839 817.276,-407.919"/>
</g>
<!-- yaml_error&#45;&gt;yaml_parser -->
<g id="edge39" class="edge"><title>yaml_error&#45;&gt;yaml_parser</title>
<path fill="none" stroke="black" d="M894.51,-619.685C871.821,-607.734 838.611,-587.391 817.276,-561.558"/>
<path fill="none" stroke="black" d="M817.276,-559.558C802.922,-542.179 785.62,-523.58 772.062,-509.478"/>
<polygon fill="#f910f9" stroke="black" points="774.428,-506.89 764.957,-502.142 769.4,-511.76 774.428,-506.89"/>
</g>
<!-- yaml_constructor -->
<g id="node22" class="node"><title>yaml_constructor</title>
<ellipse fill="#b83db8" stroke="black" cx="1185.28" cy="-485.345" rx="45.9239" ry="21.4286"/>
<text text-anchor="middle" x="1185.28" y="-488.345" font-family="Helvetica,sans-Serif" font-size="10.00" fill="#ffffff">yaml.</text>
<text text-anchor="middle" x="1185.28" y="-477.345" font-family="Helvetica,sans-Serif" font-size="10.00" fill="#ffffff">constructor</text>
</g>
<!-- yaml_error&#45;&gt;yaml_constructor -->
<g id="edge37" class="edge"><title>yaml_error&#45;&gt;yaml_constructor</title>
<path fill="none" stroke="black" d="M1185.28,-559.558C1194.53,-547.578 1195.17,-530.9 1193.21,-516.487"/>
<polygon fill="#f910f9" stroke="black" points="1196.63,-515.714 1191.42,-506.493 1189.74,-516.955 1196.63,-515.714"/>
</g>
<!-- yaml_error&#45;&gt;yaml_serializer -->
<g id="edge44" class="edge"><title>yaml_error&#45;&gt;yaml_serializer</title>
<path fill="none" stroke="black" d="M1437.28,-559.558C1451.2,-545.362 1438.51,-525.793 1423.38,-510.458"/>
<polygon fill="#f910f9" stroke="black" points="1425.52,-507.667 1415.87,-503.313 1420.7,-512.74 1425.52,-507.667"/>
<path fill="none" stroke="black" d="M954.698,-632.158C1060.34,-633.152 1370.07,-630.059 1437.28,-561.558"/>
</g>
<!-- yaml_reader -->
<g id="node28" class="node"><title>yaml_reader</title>
<ellipse fill="#b34cb3" stroke="black" cx="885.276" cy="-560.558" rx="40.0582" ry="18"/>
<text text-anchor="middle" x="885.276" y="-558.058" font-family="Helvetica,sans-Serif" font-size="10.00" fill="#ffffff">yaml.reader</text>
</g>
<!-- yaml_error&#45;&gt;yaml_reader -->
<g id="edge40" class="edge"><title>yaml_error&#45;&gt;yaml_reader</title>
<path fill="none" stroke="black" d="M911.218,-614.969C907.254,-606.808 902.383,-596.779 897.936,-587.624"/>
<polygon fill="#f910f9" stroke="black" points="901.029,-585.981 893.512,-578.515 894.732,-589.039 901.029,-585.981"/>
</g>
<!-- yaml_scanner -->
<g id="node29" class="node"><title>yaml_scanner</title>
<ellipse fill="#b83db8" stroke="black" cx="730.276" cy="-560.558" rx="44.3" ry="18"/>
<text text-anchor="middle" x="730.276" y="-558.058" font-family="Helvetica,sans-Serif" font-size="10.00" fill="#ffffff">yaml.scanner</text>
</g>
<!-- yaml_error&#45;&gt;yaml_scanner -->
<g id="edge43" class="edge"><title>yaml_error&#45;&gt;yaml_scanner</title>
<path fill="none" stroke="black" d="M891.388,-621.23C859.758,-609.515 807.87,-590.297 771.549,-576.845"/>
<polygon fill="#f910f9" stroke="black" points="772.34,-573.406 761.747,-573.215 769.909,-579.97 772.34,-573.406"/>
</g>
<!-- yaml_resolver -->
<g id="node35" class="node"><title>yaml_resolver</title>
<ellipse fill="#c431c4" stroke="black" cx="1293.28" cy="-485.345" rx="43.6222" ry="18"/>
<text text-anchor="middle" x="1293.28" y="-482.845" font-family="Helvetica,sans-Serif" font-size="10.00" fill="#ffffff">yaml.resolver</text>
</g>
<!-- yaml_error&#45;&gt;yaml_resolver -->
<g id="edge42" class="edge"><title>yaml_error&#45;&gt;yaml_resolver</title>
<path fill="none" stroke="black" d="M1185.28,-559.558C1203.86,-535.502 1232.63,-516.549 1255.81,-503.959"/>
<polygon fill="#f910f9" stroke="black" points="1257.48,-507.034 1264.71,-499.285 1254.23,-500.838 1257.48,-507.034"/>
</g>
<!-- configparser -->
<g id="node18" class="node"><title>configparser</title>
<ellipse fill="#b6b653" stroke="black" cx="357.276" cy="-632.558" rx="40.7358" ry="18"/>
<text text-anchor="middle" x="357.276" y="-630.058" font-family="Helvetica,sans-Serif" font-size="10.00" fill="#000000">configparser</text>
</g>
<!-- configparser&#45;&gt;pydeps_pycompat -->
<g id="edge2" class="edge"><title>configparser&#45;&gt;pydeps_pycompat</title>
<path fill="none" stroke="black" d="M357.276,-614.33C357.276,-590.376 357.276,-546.623 357.276,-517.02"/>
<polygon fill="#b6b653" stroke="black" points="360.776,-516.816 357.276,-506.816 353.776,-516.816 360.776,-516.816"/>
</g>
<!-- pydeps_depgraph&#45;&gt;pydeps_py2depgraph -->
<g id="edge12" class="edge"><title>pydeps_depgraph&#45;&gt;pydeps_py2depgraph</title>
<path fill="none" stroke="black" d="M440.276,-228.585C440.276,-220.726 440.276,-211.582 440.276,-202.992"/>
<polygon fill="#35a1a1" stroke="black" points="443.776,-202.912 440.276,-192.912 436.776,-202.912 443.776,-202.912"/>
</g>
<!-- yaml_parser&#45;&gt;yaml_loader -->
<g id="edge57" class="edge"><title>yaml_parser&#45;&gt;yaml_loader</title>
<path fill="none" stroke="black" d="M777.869,-472.404C809.386,-459.241 860.203,-438.019 894.864,-423.543"/>
<polygon fill="#9d439d" stroke="black" points="896.304,-426.735 904.183,-419.651 893.606,-420.275 896.304,-426.735"/>
</g>
<!-- pydeps_depgraph2dot&#45;&gt;pydeps_pydeps -->
<g id="edge13" class="edge"><title>pydeps_depgraph2dot&#45;&gt;pydeps_pydeps</title>
<path fill="none" stroke="black" d="M138.276,-170.64C146.554,-161.503 147.522,-157.968 157.276,-150.426 175.068,-136.669 196.899,-124.4 215.343,-115.14"/>
<polygon fill="#3ab0b0" stroke="black" points="216.93,-118.26 224.365,-110.711 213.846,-111.976 216.93,-118.26"/>
<path fill="none" stroke="black" d="M78.7913,-230.447C95.6425,-215.475 119.323,-193.559 138.276,-172.64"/>
</g>
<!-- yaml_constructor&#45;&gt;yaml_cyaml -->
<g id="edge30" class="edge"><title>yaml_constructor&#45;&gt;yaml_cyaml</title>
<path fill="none" stroke="black" d="M1220.15,-471.398C1226.82,-468.958 1233.76,-466.447 1240.28,-464.132 1286.76,-447.622 1299.12,-445.547 1345.28,-428.132 1349.04,-426.711 1352.95,-425.185 1356.85,-423.632"/>
<polygon fill="#b83db8" stroke="black" points="1358.45,-426.758 1366.41,-419.759 1355.82,-420.27 1358.45,-426.758"/>
</g>
<!-- yaml_constructor&#45;&gt;yaml_loader -->
<g id="edge31" class="edge"><title>yaml_constructor&#45;&gt;yaml_loader</title>
<path fill="none" stroke="black" d="M1150.79,-471.221C1144.02,-468.772 1136.95,-466.303 1130.28,-464.132 1077.49,-446.966 1015.86,-429.935 975.558,-419.196"/>
<polygon fill="#b83db8" stroke="black" points="976.352,-415.786 965.789,-416.605 974.558,-422.552 976.352,-415.786"/>
</g>
<!-- yaml_dumper&#45;&gt;yaml -->
<g id="edge33" class="edge"><title>yaml_dumper&#45;&gt;yaml</title>
<path fill="none" stroke="black" d="M1258.17,-396.471C1203.37,-381.726 1098.18,-353.418 1043.77,-338.775"/>
<polygon fill="#9d439d" stroke="black" points="1044.48,-335.34 1033.91,-336.121 1042.66,-342.1 1044.48,-335.34"/>
</g>
<!-- enum -->
<g id="node24" class="node"><title>enum</title>
<ellipse fill="#47c247" stroke="black" cx="493.276" cy="-406.919" rx="27" ry="18"/>
<text text-anchor="middle" x="493.276" y="-404.419" font-family="Helvetica,sans-Serif" font-size="10.00" fill="#000000">enum</text>
</g>
<!-- enum&#45;&gt;pydeps_depgraph -->
<g id="edge3" class="edge"><title>enum&#45;&gt;pydeps_depgraph</title>
<path fill="none" stroke="black" d="M508.276,-327.492C505.834,-305.395 489.521,-286.634 473.486,-273.23"/>
<polygon fill="#47c247" stroke="black" points="475.227,-270.147 465.202,-266.72 470.902,-275.651 475.227,-270.147"/>
<path fill="none" stroke="black" d="M499.513,-389.345C504.593,-373.947 510.577,-350.324 508.276,-329.492"/>
</g>
<!-- enum&#45;&gt;pydeps_py2depgraph -->
<g id="edge4" class="edge"><title>enum&#45;&gt;pydeps_py2depgraph</title>
<path fill="none" stroke="black" d="M508.276,-327.492C503.372,-283.117 508.84,-268.983 489.276,-228.853 483.922,-217.872 475.858,-207.349 467.809,-198.438"/>
<polygon fill="#47c247" stroke="black" points="470.227,-195.902 460.808,-191.051 465.147,-200.717 470.227,-195.902"/>
</g>
<!-- pydeps_pystdlib -->
<g id="node31" class="node"><title>pydeps_pystdlib</title>
<ellipse fill="#40bfc0" stroke="black" cx="572.276" cy="-250.066" rx="36.125" ry="21.4286"/>
<text text-anchor="middle" x="572.276" y="-253.066" font-family="Helvetica,sans-Serif" font-size="10.00" fill="#000000">pydeps.</text>
<text text-anchor="middle" x="572.276" y="-242.066" font-family="Helvetica,sans-Serif" font-size="10.00" fill="#000000">pystdlib</text>
</g>
<!-- stdlib_list&#45;&gt;pydeps_pystdlib -->
<g id="edge25" class="edge"><title>stdlib_list&#45;&gt;pydeps_pystdlib</title>
<path fill="none" stroke="black" d="M572.276,-388.755C572.276,-362.932 572.276,-313.704 572.276,-281.646"/>
<polygon fill="#3d3db8" stroke="black" points="575.776,-281.491 572.276,-271.491 568.776,-281.491 575.776,-281.491"/>
</g>
<!-- yaml_serializer&#45;&gt;yaml_cyaml -->
<g id="edge66" class="edge"><title>yaml_serializer&#45;&gt;yaml_cyaml</title>
<path fill="none" stroke="black" d="M1394.28,-463.864C1394.28,-455.126 1394.28,-444.799 1394.28,-435.41"/>
<polygon fill="#b03ab0" stroke="black" points="1397.78,-435.345 1394.28,-425.345 1390.78,-435.345 1397.78,-435.345"/>
</g>
<!-- yaml_serializer&#45;&gt;yaml_dumper -->
<g id="edge67" class="edge"><title>yaml_serializer&#45;&gt;yaml_dumper</title>
<path fill="none" stroke="black" d="M1371.86,-467.384C1357.05,-456.178 1337.52,-441.397 1321.63,-429.376"/>
<polygon fill="#b03ab0" stroke="black" points="1323.32,-426.264 1313.23,-423.021 1319.1,-431.846 1323.32,-426.264"/>
</g>
<!-- yaml_nodes -->
<g id="node27" class="node"><title>yaml_nodes</title>
<ellipse fill="#f316f3" stroke="black" cx="1352.28" cy="-560.558" rx="39.3809" ry="18"/>
<text text-anchor="middle" x="1352.28" y="-558.058" font-family="Helvetica,sans-Serif" font-size="10.00" fill="#ffffff">yaml.nodes</text>
</g>
<!-- yaml_nodes&#45;&gt;yaml_representer -->
<g id="edge54" class="edge"><title>yaml_nodes&#45;&gt;yaml_representer</title>
<path fill="none" stroke="black" d="M1378.04,-546.638C1400.5,-535.377 1433.4,-518.876 1459.12,-505.982"/>
<polygon fill="#f316f3" stroke="black" points="1460.86,-509.022 1468.23,-501.411 1457.72,-502.765 1460.86,-509.022"/>
</g>
<!-- yaml_nodes&#45;&gt;yaml_composer -->
<g id="edge52" class="edge"><title>yaml_nodes&#45;&gt;yaml_composer</title>
<path fill="none" stroke="black" d="M1315.25,-554.061C1254.97,-544.986 1131.93,-525.938 1028.28,-506.558 1013.58,-503.812 997.686,-500.573 983.133,-497.502"/>
<polygon fill="#f316f3" stroke="black" points="983.814,-494.069 973.304,-495.412 982.357,-500.916 983.814,-494.069"/>
</g>
<!-- yaml_nodes&#45;&gt;yaml -->
<g id="edge51" class="edge"><title>yaml_nodes&#45;&gt;yaml</title>
<path fill="none" stroke="black" d="M1386.29,-551.15C1442.93,-537.07 1550.68,-509.926 1553.28,-506.558 1564.78,-491.622 1561.95,-480.876 1553.28,-464.132 1525.5,-410.493 1498.55,-407.667 1442.28,-385.706 1370.1,-357.538 1137.13,-338.514 1046.15,-331.989"/>
<polygon fill="#f316f3" stroke="black" points="1046.26,-328.488 1036.03,-331.274 1045.76,-335.471 1046.26,-328.488"/>
</g>
<!-- yaml_nodes&#45;&gt;yaml_constructor -->
<g id="edge53" class="edge"><title>yaml_nodes&#45;&gt;yaml_constructor</title>
<path fill="none" stroke="black" d="M1324.7,-547.469C1298.2,-535.851 1257.79,-518.137 1227.29,-504.764"/>
<polygon fill="#f316f3" stroke="black" points="1228.33,-501.397 1217.76,-500.588 1225.52,-507.808 1228.33,-501.397"/>
</g>
<!-- yaml_nodes&#45;&gt;yaml_serializer -->
<g id="edge56" class="edge"><title>yaml_nodes&#45;&gt;yaml_serializer</title>
<path fill="none" stroke="black" d="M1361.81,-542.945C1366.61,-534.569 1372.57,-524.177 1378.07,-514.593"/>
<polygon fill="#f316f3" stroke="black" points="1381.21,-516.16 1383.15,-505.744 1375.14,-512.677 1381.21,-516.16"/>
</g>
<!-- yaml_nodes&#45;&gt;yaml_resolver -->
<g id="edge55" class="edge"><title>yaml_nodes&#45;&gt;yaml_resolver</title>
<path fill="none" stroke="black" d="M1339.18,-543.31C1331.39,-533.642 1321.36,-521.196 1312.66,-510.404"/>
<polygon fill="#f316f3" stroke="black" points="1315.33,-508.138 1306.33,-502.548 1309.88,-512.531 1315.33,-508.138"/>
</g>
<!-- yaml_reader&#45;&gt;yaml_loader -->
<g id="edge58" class="edge"><title>yaml_reader&#45;&gt;yaml_loader</title>
<path fill="none" stroke="black" d="M878.397,-542.629C871.503,-522.966 863.352,-489.932 874.276,-464.132 880.215,-450.104 891.558,-437.86 902.649,-428.41"/>
<polygon fill="#b34cb3" stroke="black" points="904.985,-431.024 910.599,-422.039 900.607,-425.561 904.985,-431.024"/>
</g>
<!-- yaml_scanner&#45;&gt;yaml_parser -->
<g id="edge65" class="edge"><title>yaml_scanner&#45;&gt;yaml_parser</title>
<path fill="none" stroke="black" d="M734.682,-542.578C736.944,-533.862 739.753,-523.039 742.301,-513.222"/>
<polygon fill="#b83db8" stroke="black" points="745.703,-514.046 744.827,-503.487 738.927,-512.288 745.703,-514.046"/>
</g>
<!-- yaml_scanner&#45;&gt;yaml_loader -->
<g id="edge64" class="edge"><title>yaml_scanner&#45;&gt;yaml_loader</title>
<path fill="none" stroke="black" d="M716.74,-543.061C701.699,-522.616 681.808,-487.609 700.276,-464.132 706.113,-456.712 821.222,-431.366 887.059,-417.379"/>
<polygon fill="#b83db8" stroke="black" points="888.121,-420.732 897.179,-415.236 886.671,-413.884 888.121,-420.732"/>
</g>
<!-- yaml_tokens -->
<g id="node30" class="node"><title>yaml_tokens</title>
<ellipse fill="#ce3bce" stroke="black" cx="687.276" cy="-632.558" rx="41.4139" ry="18"/>
<text text-anchor="middle" x="687.276" y="-630.058" font-family="Helvetica,sans-Serif" font-size="10.00" fill="#ffffff">yaml.tokens</text>
</g>
<!-- yaml_tokens&#45;&gt;yaml -->
<g id="edge68" class="edge"><title>yaml_tokens&#45;&gt;yaml</title>
<path fill="none" stroke="black" d="M643.276,-559.558C644.813,-512.501 655.4,-496.83 689.276,-464.132 733.981,-420.981 763.909,-439.739 817.276,-407.919"/>
<path fill="none" stroke="black" d="M669.618,-616.257C656.549,-603.076 641.323,-582.857 643.276,-561.558"/>
<path fill="none" stroke="black" d="M817.276,-405.919C867.707,-372.984 934.567,-350.378 974.619,-338.717"/>
<polygon fill="#ce3bce" stroke="black" points="975.78,-342.026 984.44,-335.921 973.864,-335.293 975.78,-342.026"/>
</g>
<!-- yaml_tokens&#45;&gt;yaml_parser -->
<g id="edge69" class="edge"><title>yaml_tokens&#45;&gt;yaml_parser</title>
<path fill="none" stroke="black" d="M643.276,-559.558C644.312,-527.827 676.791,-508.774 705.525,-498.097"/>
<polygon fill="#ce3bce" stroke="black" points="706.77,-501.37 715.074,-494.791 704.48,-494.755 706.77,-501.37"/>
</g>
<!-- yaml_tokens&#45;&gt;yaml_scanner -->
<g id="edge70" class="edge"><title>yaml_tokens&#45;&gt;yaml_scanner</title>
<path fill="none" stroke="black" d="M697.466,-614.969C702.585,-606.636 708.9,-596.356 714.619,-587.047"/>
<polygon fill="#ce3bce" stroke="black" points="717.608,-588.867 719.86,-578.515 711.643,-585.203 717.608,-588.867"/>
</g>
<!-- pydeps_pystdlib&#45;&gt;pydeps_py2depgraph -->
<g id="edge22" class="edge"><title>pydeps_pystdlib&#45;&gt;pydeps_py2depgraph</title>
<path fill="none" stroke="black" d="M547.137,-234.511C527.545,-223.168 500.034,-207.239 477.832,-194.384"/>
<polygon fill="#40bfc0" stroke="black" points="479.401,-191.248 468.993,-189.266 475.893,-197.306 479.401,-191.248"/>
</g>
<!-- yaml_loader&#45;&gt;yaml -->
<g id="edge50" class="edge"><title>yaml_loader&#45;&gt;yaml</title>
<path fill="none" stroke="black" d="M948.23,-390.083C959.612,-378.787 975.052,-363.461 987.556,-351.05"/>
<polygon fill="#8f3d8f" stroke="black" points="990.268,-353.29 994.9,-343.761 985.337,-348.322 990.268,-353.29"/>
</g>
<!-- pydeps_target -->
<g id="node33" class="node"><title>pydeps_target</title>
<ellipse fill="#47c2c2" stroke="black" cx="305.276" cy="-171.64" rx="44.978" ry="18"/>
<text text-anchor="middle" x="305.276" y="-169.14" font-family="Helvetica,sans-Serif" font-size="10.00" fill="#000000">pydeps.target</text>
</g>
<!-- pydeps_target&#45;&gt;pydeps_pydeps -->
<g id="edge24" class="edge"><title>pydeps_target&#45;&gt;pydeps_pydeps</title>
<path fill="none" stroke="black" d="M293.703,-154.026C287.182,-144.666 278.909,-132.789 271.627,-122.334"/>
<polygon fill="#47c2c2" stroke="black" points="274.39,-120.179 265.803,-113.974 268.647,-124.18 274.39,-120.179"/>
</g>
<!-- pydeps_colors -->
<g id="node34" class="node"><title>pydeps_colors</title>
<ellipse fill="#3bcece" stroke="black" cx="182.276" cy="-328.492" rx="45.1548" ry="18"/>
<text text-anchor="middle" x="182.276" y="-325.992" font-family="Helvetica,sans-Serif" font-size="10.00" fill="#000000">pydeps.colors</text>
</g>
<!-- pydeps_colors&#45;&gt;pydeps_depgraph -->
<g id="edge10" class="edge"><title>pydeps_colors&#45;&gt;pydeps_depgraph</title>
<path fill="none" stroke="black" d="M214.301,-315.681C222.698,-312.764 231.781,-309.765 240.276,-307.279 306.491,-287.902 325.628,-292.5 391.276,-271.279 394.428,-270.26 397.663,-269.128 400.894,-267.935"/>
<polygon fill="#3bcece" stroke="black" points="402.429,-271.094 410.494,-264.224 399.905,-264.565 402.429,-271.094"/>
</g>
<!-- pydeps_colors&#45;&gt;pydeps_depgraph2dot -->
<g id="edge11" class="edge"><title>pydeps_colors&#45;&gt;pydeps_depgraph2dot</title>
<path fill="none" stroke="black" d="M158.47,-312.937C140.248,-301.796 114.79,-286.231 93.9686,-273.5"/>
<polygon fill="#3bcece" stroke="black" points="95.7208,-270.469 85.3634,-268.239 92.0693,-276.442 95.7208,-270.469"/>
</g>
<!-- yaml_resolver&#45;&gt;yaml_cyaml -->
<g id="edge61" class="edge"><title>yaml_resolver&#45;&gt;yaml_cyaml</title>
<path fill="none" stroke="black" d="M1313.23,-469.246C1328.41,-457.762 1349.48,-441.817 1366.33,-429.064"/>
<polygon fill="#c431c4" stroke="black" points="1368.84,-431.552 1374.71,-422.727 1364.62,-425.97 1368.84,-431.552"/>
</g>
<!-- yaml_resolver&#45;&gt;yaml_dumper -->
<g id="edge62" class="edge"><title>yaml_resolver&#45;&gt;yaml_dumper</title>
<path fill="none" stroke="black" d="M1293.28,-467.003C1293.28,-457.556 1293.28,-445.655 1293.28,-435.013"/>
<polygon fill="#c431c4" stroke="black" points="1296.78,-434.929 1293.28,-424.929 1289.78,-434.929 1296.78,-434.929"/>
</g>
<!-- yaml_resolver&#45;&gt;yaml_loader -->
<g id="edge63" class="edge"><title>yaml_resolver&#45;&gt;yaml_loader</title>
<path fill="none" stroke="black" d="M1263.88,-472.037C1256.29,-469.16 1248.05,-466.305 1240.28,-464.132 1149.96,-438.899 1041.5,-422.146 980.36,-413.904"/>
<polygon fill="#c431c4" stroke="black" points="980.611,-410.406 970.237,-412.558 979.689,-417.345 980.611,-410.406"/>
</g>
<!-- _yaml -->
<g id="node36" class="node"><title>_yaml</title>
<ellipse fill="#b65353" stroke="black" cx="1610.28" cy="-560.558" rx="27" ry="18"/>
<text text-anchor="middle" x="1610.28" y="-558.058" font-family="Helvetica,sans-Serif" font-size="10.00" fill="#ffffff">_yaml</text>
</g>
<!-- _yaml&#45;&gt;yaml_cyaml -->
<g id="edge1" class="edge"><title>_yaml&#45;&gt;yaml_cyaml</title>
<path fill="none" stroke="black" d="M1604.33,-542.64C1596.06,-521.426 1579.11,-485.282 1553.28,-464.132 1521.04,-437.741 1475.53,-423.321 1441.45,-415.718"/>
<polygon fill="#b65353" stroke="black" points="1441.77,-412.21 1431.26,-413.572 1440.33,-419.059 1441.77,-412.21"/>
</g>
<!-- stdlib_list_base -->
<g id="node37" class="node"><title>stdlib_list_base</title>
<ellipse fill="#4c4cb3" stroke="black" cx="468.276" cy="-485.345" rx="43.2674" ry="21.4286"/>
<text text-anchor="middle" x="468.276" y="-488.345" font-family="Helvetica,sans-Serif" font-size="10.00" fill="#ffffff">stdlib_list.</text>
<text text-anchor="middle" x="468.276" y="-477.345" font-family="Helvetica,sans-Serif" font-size="10.00" fill="#ffffff">base</text>
</g>
<!-- stdlib_list_base&#45;&gt;stdlib_list -->
<g id="edge27" class="edge"><title>stdlib_list_base&#45;&gt;stdlib_list</title>
<path fill="none" stroke="black" d="M491.357,-467.384C507.154,-455.775 528.173,-440.329 544.829,-428.089"/>
<polygon fill="#4c4cb3" stroke="black" points="547.105,-430.759 553.091,-422.017 542.96,-425.119 547.105,-430.759"/>
</g>
<!-- pydeps_py2depgraph&#45;&gt;pydeps_pydeps -->
<g id="edge17" class="edge"><title>pydeps_py2depgraph&#45;&gt;pydeps_pydeps</title>
<path fill="none" stroke="black" d="M404.413,-156.523C373.416,-144.323 328.594,-126.679 295.998,-113.849"/>
<polygon fill="#309191" stroke="black" points="296.89,-110.439 286.303,-110.033 294.326,-116.953 296.89,-110.439"/>
</g>
</g>
</svg>
