<?xml version="1.0" encoding="UTF-8" standalone="no"?>
<!DOCTYPE svg PUBLIC "-//W3C//DTD SVG 1.1//EN"
 "http://www.w3.org/Graphics/SVG/1.1/DTD/svg11.dtd">
<!-- Generated by graphviz version 2.38.0 (20140413.2041)
 -->
<!-- Title: G Pages: 1 -->
<svg width="906pt" height="404pt"
 viewBox="0.00 0.00 905.79 404.43" xmlns="http://www.w3.org/2000/svg" xmlns:xlink="http://www.w3.org/1999/xlink">
<g id="graph0" class="graph" transform="scale(1 1) rotate(0) translate(4 400.426)">
<title>G</title><style>.edge>path:hover{stroke-width:8}</style>
<polygon fill="white" stroke="none" points="-4,4 -4,-400.426 901.788,-400.426 901.788,4 -4,4"/>
<!-- pydeps___main__ -->
<g id="node1" class="node"><title>pydeps___main__</title><style>.edge>path:hover{stroke-width:8}</style>
<ellipse fill="#b34c4c" stroke="black" cx="856.069" cy="-151.213" rx="41.9398" ry="21.4286"/>
<text text-anchor="middle" x="856.069" y="-154.213" font-family="Helvetica,sans-Serif" font-size="10.00" fill="#ffffff">pydeps.</text>
<text text-anchor="middle" x="856.069" y="-143.213" font-family="Helvetica,sans-Serif" font-size="10.00" fill="#ffffff">__main__</text>
</g>
<!-- pydeps_arguments -->
<g id="node2" class="node"><title>pydeps_arguments</title><style>.edge>path:hover{stroke-width:8}</style>
<ellipse fill="#c04040" stroke="black" cx="163.279" cy="-174.213" rx="43.6818" ry="21.4286"/>
<text text-anchor="middle" x="163.279" y="-177.213" font-family="Helvetica,sans-Serif" font-size="10.00" fill="#ffffff">pydeps.</text>
<text text-anchor="middle" x="163.279" y="-166.213" font-family="Helvetica,sans-Serif" font-size="10.00" fill="#ffffff">arguments</text>
</g>
<!-- pydeps_cli -->
<g id="node3" class="node"><title>pydeps_cli</title><style>.edge>path:hover{stroke-width:8}</style>
<ellipse fill="#dd1818" stroke="black" cx="300.395" cy="-174.213" rx="35.8171" ry="18"/>
<text text-anchor="middle" x="300.395" y="-171.713" font-family="Helvetica,sans-Serif" font-size="10.00" fill="#ffffff">pydeps.cli</text>
</g>
<!-- pydeps_arguments&#45;&gt;pydeps_cli -->
<g id="edge1" class="edge"><title>pydeps_arguments&#45;&gt;pydeps_cli</title><style>.edge>path:hover{stroke-width:8}</style>
<path fill="none" stroke="black" d="M207.402,-174.213C222.337,-174.213 239.113,-174.213 254.209,-174.213"/>
<polygon fill="#c04040" stroke="black" points="254.348,-177.713 264.348,-174.213 254.348,-170.713 254.348,-177.713"/>
</g>
<!-- pydeps_depgraph -->
<g id="node5" class="node"><title>pydeps_depgraph</title><style>.edge>path:hover{stroke-width:8}</style>
<ellipse fill="#a83838" stroke="black" cx="450.24" cy="-125.213" rx="39.6962" ry="21.4286"/>
<text text-anchor="middle" x="450.24" y="-128.213" font-family="Helvetica,sans-Serif" font-size="10.00" fill="#ffffff">pydeps.</text>
<text text-anchor="middle" x="450.24" y="-117.213" font-family="Helvetica,sans-Serif" font-size="10.00" fill="#ffffff">depgraph</text>
</g>
<!-- pydeps_cli&#45;&gt;pydeps_depgraph -->
<g id="edge2" class="edge"><title>pydeps_cli&#45;&gt;pydeps_depgraph</title><style>.edge>path:hover{stroke-width:8}</style>
<path fill="none" stroke="black" d="M330.959,-164.415C352.585,-157.247 382.249,-147.416 406.46,-139.392"/>
<polygon fill="#dd1818" stroke="black" points="407.73,-142.658 416.121,-136.19 405.528,-136.014 407.73,-142.658"/>
</g>
<!-- pydeps_dot -->
<g id="node7" class="node"><title>pydeps_dot</title><style>.edge>path:hover{stroke-width:8}</style>
<ellipse fill="#b83d3d" stroke="black" cx="593.72" cy="-174.213" rx="38.0276" ry="18"/>
<text text-anchor="middle" x="593.72" y="-171.713" font-family="Helvetica,sans-Serif" font-size="10.00" fill="#ffffff">pydeps.dot</text>
</g>
<!-- pydeps_cli&#45;&gt;pydeps_dot -->
<g id="edge3" class="edge"><title>pydeps_cli&#45;&gt;pydeps_dot</title><style>.edge>path:hover{stroke-width:8}</style>
<path fill="none" stroke="black" d="M451.24,-174.213C482.504,-171.723 517.778,-171.717 545.284,-172.337"/>
<polygon fill="#dd1818" stroke="black" points="545.333,-175.839 555.421,-172.601 545.515,-168.841 545.333,-175.839"/>
</g>
<!-- pydeps_dummymodule -->
<g id="node8" class="node"><title>pydeps_dummymodule</title><style>.edge>path:hover{stroke-width:8}</style>
<ellipse fill="#b83d3d" stroke="black" cx="450.24" cy="-277.213" rx="56.6372" ry="21.4286"/>
<text text-anchor="middle" x="450.24" y="-280.213" font-family="Helvetica,sans-Serif" font-size="10.00" fill="#ffffff">pydeps.</text>
<text text-anchor="middle" x="450.24" y="-269.213" font-family="Helvetica,sans-Serif" font-size="10.00" fill="#ffffff">dummymodule</text>
</g>
<!-- pydeps_cli&#45;&gt;pydeps_dummymodule -->
<g id="edge4" class="edge"><title>pydeps_cli&#45;&gt;pydeps_dummymodule</title><style>.edge>path:hover{stroke-width:8}</style>
<path fill="none" stroke="black" d="M319.075,-189.73C337.151,-205.22 366.372,-229.243 393.671,-247.213 397.912,-250.005 402.437,-252.768 407.005,-255.423"/>
<polygon fill="#dd1818" stroke="black" points="405.348,-258.506 415.778,-260.37 408.787,-252.409 405.348,-258.506"/>
</g>
<!-- pydeps_pydeps -->
<g id="node12" class="node"><title>pydeps_pydeps</title><style>.edge>path:hover{stroke-width:8}</style>
<ellipse fill="#913030" stroke="black" cx="729.491" cy="-151.213" rx="48.7185" ry="18"/>
<text text-anchor="middle" x="729.491" y="-148.713" font-family="Helvetica,sans-Serif" font-size="10.00" fill="#ffffff">pydeps.pydeps</text>
</g>
<!-- pydeps_cli&#45;&gt;pydeps_pydeps -->
<g id="edge5" class="edge"><title>pydeps_cli&#45;&gt;pydeps_pydeps</title><style>.edge>path:hover{stroke-width:8}</style>
<path fill="none" stroke="black" d="M336.407,-175.776C366.404,-176.741 410.732,-177.28 449.24,-174.213"/>
<path fill="none" stroke="black" d="M451.24,-174.213C467.718,-172.901 576.538,-124.836 592.72,-128.213"/>
</g>
<!-- pydeps_colors -->
<g id="node4" class="node"><title>pydeps_colors</title><style>.edge>path:hover{stroke-width:8}</style>
<ellipse fill="#db2f2f" stroke="black" cx="300.395" cy="-78.2132" rx="45.1548" ry="18"/>
<text text-anchor="middle" x="300.395" y="-75.7132" font-family="Helvetica,sans-Serif" font-size="10.00" fill="#ffffff">pydeps.colors</text>
</g>
<!-- pydeps_colors&#45;&gt;pydeps_depgraph -->
<g id="edge6" class="edge"><title>pydeps_colors&#45;&gt;pydeps_depgraph</title><style>.edge>path:hover{stroke-width:8}</style>
<path fill="none" stroke="black" d="M336.433,-89.3515C357.24,-95.9664 383.794,-104.408 405.912,-111.439"/>
<polygon fill="#db2f2f" stroke="black" points="405.134,-114.865 415.725,-114.559 407.255,-108.194 405.134,-114.865"/>
</g>
<!-- pydeps_depgraph2dot -->
<g id="node6" class="node"><title>pydeps_depgraph2dot</title><style>.edge>path:hover{stroke-width:8}</style>
<ellipse fill="#b03a3a" stroke="black" cx="450.24" cy="-27.2132" rx="53.066" ry="21.4286"/>
<text text-anchor="middle" x="450.24" y="-30.2132" font-family="Helvetica,sans-Serif" font-size="10.00" fill="#ffffff">pydeps.</text>
<text text-anchor="middle" x="450.24" y="-19.2132" font-family="Helvetica,sans-Serif" font-size="10.00" fill="#ffffff">depgraph2dot</text>
</g>
<!-- pydeps_colors&#45;&gt;pydeps_depgraph2dot -->
<g id="edge7" class="edge"><title>pydeps_colors&#45;&gt;pydeps_depgraph2dot</title><style>.edge>path:hover{stroke-width:8}</style>
<path fill="none" stroke="black" d="M335.314,-66.5128C354.462,-59.9077 378.733,-51.5349 399.949,-44.2164"/>
<polygon fill="#db2f2f" stroke="black" points="401.14,-47.5079 409.452,-40.9382 398.858,-40.8906 401.14,-47.5079"/>
</g>
<!-- pydeps_colors&#45;&gt;pydeps_pydeps -->
<g id="edge8" class="edge"><title>pydeps_colors&#45;&gt;pydeps_pydeps</title><style>.edge>path:hover{stroke-width:8}</style>
<path fill="none" stroke="black" d="M346.039,-78.2243C388.035,-79.0968 452.414,-82.6646 506.808,-95.2132 523.536,-99.0723 526.786,-103.048 542.808,-109.213 564.961,-117.737 569.485,-123.364 592.72,-128.213"/>
</g>
<!-- pydeps_py2depgraph -->
<g id="node10" class="node"><title>pydeps_py2depgraph</title><style>.edge>path:hover{stroke-width:8}</style>
<ellipse fill="#993333" stroke="black" cx="593.72" cy="-254.213" rx="50.8235" ry="21.4286"/>
<text text-anchor="middle" x="593.72" y="-257.213" font-family="Helvetica,sans-Serif" font-size="10.00" fill="#ffffff">pydeps.</text>
<text text-anchor="middle" x="593.72" y="-246.213" font-family="Helvetica,sans-Serif" font-size="10.00" fill="#ffffff">py2depgraph</text>
</g>
<!-- pydeps_depgraph&#45;&gt;pydeps_py2depgraph -->
<g id="edge9" class="edge"><title>pydeps_depgraph&#45;&gt;pydeps_py2depgraph</title><style>.edge>path:hover{stroke-width:8}</style>
<path fill="none" stroke="black" d="M478.614,-140.294C487.964,-145.995 498.22,-152.889 506.808,-160.213 525.259,-175.949 526.493,-183.272 542.808,-201.213 550.556,-209.733 559.111,-218.901 566.917,-227.178"/>
<polygon fill="#a83838" stroke="black" points="564.415,-229.626 573.831,-234.483 569.499,-224.814 564.415,-229.626"/>
</g>
<!-- pydeps_depgraph2dot&#45;&gt;pydeps_pydeps -->
<g id="edge10" class="edge"><title>pydeps_depgraph2dot&#45;&gt;pydeps_pydeps</title><style>.edge>path:hover{stroke-width:8}</style>
<path fill="none" stroke="black" d="M594.72,-128.213C620.657,-133.626 649.615,-138.721 673.938,-142.733"/>
<polygon fill="#b03a3a" stroke="black" points="673.622,-146.227 684.056,-144.384 674.75,-139.319 673.622,-146.227"/>
<path fill="none" stroke="black" d="M482.626,-44.2743C490.917,-49.486 499.565,-55.6044 506.808,-62.2132 526.246,-79.948 521.71,-93.4901 542.808,-109.213 561.84,-123.397 569.485,-123.364 592.72,-128.213"/>
</g>
<!-- pydeps_dot&#45;&gt;pydeps_pydeps -->
<g id="edge11" class="edge"><title>pydeps_dot&#45;&gt;pydeps_pydeps</title><style>.edge>path:hover{stroke-width:8}</style>
<path fill="none" stroke="black" d="M629.867,-168.17C643.578,-165.813 659.606,-163.057 674.706,-160.461"/>
<polygon fill="#b83d3d" stroke="black" points="675.71,-163.84 684.972,-158.696 674.524,-156.941 675.71,-163.84"/>
</g>
<!-- pydeps_dummymodule&#45;&gt;pydeps_py2depgraph -->
<g id="edge12" class="edge"><title>pydeps_dummymodule&#45;&gt;pydeps_py2depgraph</title><style>.edge>path:hover{stroke-width:8}</style>
<path fill="none" stroke="black" d="M502.317,-268.91C513.225,-267.136 524.811,-265.253 535.919,-263.447"/>
<polygon fill="#b83d3d" stroke="black" points="536.644,-266.875 545.953,-261.816 535.521,-259.966 536.644,-266.875"/>
</g>
<!-- pydeps_mf27 -->
<g id="node9" class="node"><title>pydeps_mf27</title><style>.edge>path:hover{stroke-width:8}</style>
<ellipse fill="#c24747" stroke="black" cx="450.24" cy="-220.213" rx="42.2678" ry="18"/>
<text text-anchor="middle" x="450.24" y="-217.713" font-family="Helvetica,sans-Serif" font-size="10.00" fill="#ffffff">pydeps.mf27</text>
</g>
<!-- pydeps_mf27&#45;&gt;pydeps_py2depgraph -->
<g id="edge13" class="edge"><title>pydeps_mf27&#45;&gt;pydeps_py2depgraph</title><style>.edge>path:hover{stroke-width:8}</style>
<path fill="none" stroke="black" d="M487.674,-228.969C503.416,-232.752 522.148,-237.254 539.405,-241.401"/>
<polygon fill="#c24747" stroke="black" points="538.82,-244.86 549.361,-243.793 540.456,-238.054 538.82,-244.86"/>
</g>
<!-- pydeps_py2depgraph&#45;&gt;pydeps_pydeps -->
<g id="edge14" class="edge"><title>pydeps_py2depgraph&#45;&gt;pydeps_pydeps</title><style>.edge>path:hover{stroke-width:8}</style>
<path fill="none" stroke="black" d="M618.945,-235.561C641.574,-218.136 675.386,-192.102 699.453,-173.572"/>
<polygon fill="#993333" stroke="black" points="701.737,-176.231 707.525,-167.356 697.466,-170.684 701.737,-176.231"/>
</g>
<!-- pydeps_pycompat -->
<g id="node11" class="node"><title>pydeps_pycompat</title><style>.edge>path:hover{stroke-width:8}</style>
<ellipse fill="#ce3b3b" stroke="black" cx="41.7193" cy="-149.213" rx="41.9398" ry="21.4286"/>
<text text-anchor="middle" x="41.7193" y="-152.213" font-family="Helvetica,sans-Serif" font-size="10.00" fill="#ffffff">pydeps.</text>
<text text-anchor="middle" x="41.7193" y="-141.213" font-family="Helvetica,sans-Serif" font-size="10.00" fill="#ffffff">pycompat</text>
</g>
<!-- pydeps_pycompat&#45;&gt;pydeps_arguments -->
<g id="edge15" class="edge"><title>pydeps_pycompat&#45;&gt;pydeps_arguments</title><style>.edge>path:hover{stroke-width:8}</style>
<path fill="none" stroke="black" d="M80.5488,-157.123C90.7102,-159.248 101.854,-161.578 112.556,-163.816"/>
<polygon fill="#ce3b3b" stroke="black" points="112.129,-167.302 122.634,-165.923 113.562,-160.451 112.129,-167.302"/>
</g>
<!-- pydeps_pycompat&#45;&gt;pydeps_depgraph -->
<g id="edge16" class="edge"><title>pydeps_pycompat&#45;&gt;pydeps_depgraph</title><style>.edge>path:hover{stroke-width:8}</style>
<path fill="none" stroke="black" d="M83.3277,-146.509C94.9857,-145.749 107.715,-144.933 119.439,-144.213 219.214,-138.088 336.006,-131.496 400.392,-127.912"/>
<polygon fill="#ce3b3b" stroke="black" points="400.856,-131.392 410.646,-127.342 400.467,-124.403 400.856,-131.392"/>
</g>
<!-- pydeps_pydeps&#45;&gt;pydeps___main__ -->
<g id="edge17" class="edge"><title>pydeps_pydeps&#45;&gt;pydeps___main__</title><style>.edge>path:hover{stroke-width:8}</style>
<path fill="none" stroke="black" d="M778.656,-151.213C787.028,-151.213 795.76,-151.213 804.202,-151.213"/>
<polygon fill="#913030" stroke="black" points="804.312,-154.713 814.312,-151.213 804.312,-147.713 804.312,-154.713"/>
</g>
<!-- pydeps_pystdlib -->
<g id="node13" class="node"><title>pydeps_pystdlib</title><style>.edge>path:hover{stroke-width:8}</style>
<ellipse fill="#c04040" stroke="black" cx="450.24" cy="-375.213" rx="36.125" ry="21.4286"/>
<text text-anchor="middle" x="450.24" y="-378.213" font-family="Helvetica,sans-Serif" font-size="10.00" fill="#ffffff">pydeps.</text>
<text text-anchor="middle" x="450.24" y="-367.213" font-family="Helvetica,sans-Serif" font-size="10.00" fill="#ffffff">pystdlib</text>
</g>
<!-- pydeps_pystdlib&#45;&gt;pydeps_py2depgraph -->
<g id="edge18" class="edge"><title>pydeps_pystdlib&#45;&gt;pydeps_py2depgraph</title><style>.edge>path:hover{stroke-width:8}</style>
<path fill="none" stroke="black" d="M476.948,-360.676C486.635,-354.778 497.544,-347.614 506.808,-340.213 528.972,-322.509 551.546,-299.687 567.989,-282.003"/>
<polygon fill="#c04040" stroke="black" points="570.9,-284.008 575.089,-274.276 565.746,-279.272 570.9,-284.008"/>
</g>
<!-- pydeps_render_context -->
<g id="node14" class="node"><title>pydeps_render_context</title><style>.edge>path:hover{stroke-width:8}</style>
<ellipse fill="#c24747" stroke="black" cx="300.395" cy="-21.2132" rx="57.0522" ry="21.4286"/>
<text text-anchor="middle" x="300.395" y="-24.2132" font-family="Helvetica,sans-Serif" font-size="10.00" fill="#ffffff">pydeps.</text>
<text text-anchor="middle" x="300.395" y="-13.2132" font-family="Helvetica,sans-Serif" font-size="10.00" fill="#ffffff">render_context</text>
</g>
<!-- pydeps_render_context&#45;&gt;pydeps_depgraph2dot -->
<g id="edge19" class="edge"><title>pydeps_render_context&#45;&gt;pydeps_depgraph2dot</title><style>.edge>path:hover{stroke-width:8}</style>
<path fill="none" stroke="black" d="M357.711,-23.4987C367.401,-23.8919 377.52,-24.3026 387.348,-24.7014"/>
<polygon fill="#c24747" stroke="black" points="387.319,-28.2031 397.453,-25.1115 387.603,-21.2088 387.319,-28.2031"/>
</g>
<!-- pydeps_target -->
<g id="node15" class="node"><title>pydeps_target</title><style>.edge>path:hover{stroke-width:8}</style>
<ellipse fill="#c24747" stroke="black" cx="593.72" cy="-82.2132" rx="44.978" ry="18"/>
<text text-anchor="middle" x="593.72" y="-79.7132" font-family="Helvetica,sans-Serif" font-size="10.00" fill="#ffffff">pydeps.target</text>
</g>
<!-- pydeps_target&#45;&gt;pydeps_pydeps -->
<g id="edge20" class="edge"><title>pydeps_target&#45;&gt;pydeps_pydeps</title><style>.edge>path:hover{stroke-width:8}</style>
<path fill="none" stroke="black" d="M622.113,-96.3429C642.044,-106.624 669.265,-120.664 691.181,-131.969"/>
<polygon fill="#c24747" stroke="black" points="689.72,-135.153 700.212,-136.627 692.929,-128.932 689.72,-135.153"/>
</g>
<!-- stdlib_list -->
<g id="node16" class="node"><title>stdlib_list</title><style>.edge>path:hover{stroke-width:8}</style>
<ellipse fill="#53b653" stroke="black" cx="163.279" cy="-375.213" rx="34.2855" ry="18"/>
<text text-anchor="middle" x="163.279" y="-372.713" font-family="Helvetica,sans-Serif" font-size="10.00" fill="#000000">stdlib_list</text>
</g>
<!-- stdlib_list&#45;&gt;pydeps_pystdlib -->
<g id="edge21" class="edge"><title>stdlib_list&#45;&gt;pydeps_pystdlib</title><style>.edge>path:hover{stroke-width:8}</style>
<path fill="none" stroke="black" d="M197.526,-375.213C248.526,-375.213 346.192,-375.213 403.725,-375.213"/>
<polygon fill="#53b653" stroke="black" points="403.98,-378.713 413.98,-375.213 403.98,-371.713 403.98,-378.713"/>
</g>
<!-- yaml -->
<g id="node17" class="node"><title>yaml</title><style>.edge>path:hover{stroke-width:8}</style>
<ellipse fill="#5353b6" stroke="black" cx="300.395" cy="-326.213" rx="27" ry="18"/>
<text text-anchor="middle" x="300.395" y="-323.713" font-family="Helvetica,sans-Serif" font-size="10.00" fill="#ffffff">yaml</text>
</g>
<!-- yaml&#45;&gt;pydeps_py2depgraph -->
<g id="edge22" class="edge"><title>yaml&#45;&gt;pydeps_py2depgraph</title><style>.edge>path:hover{stroke-width:8}</style>
<path fill="none" stroke="black" d="M327.467,-327.547C367.246,-328.76 444.987,-327.872 506.808,-307.213 526.022,-300.793 545.4,-289.364 560.877,-278.76"/>
<polygon fill="#5353b6" stroke="black" points="562.899,-281.617 569.049,-272.99 558.861,-275.899 562.899,-281.617"/>
</g>
</g>
</svg>
