<?xml version="1.0" encoding="UTF-8" standalone="no"?>
<!DOCTYPE svg PUBLIC "-//W3C//DTD SVG 1.1//EN"
 "http://www.w3.org/Graphics/SVG/1.1/DTD/svg11.dtd">
<!-- Generated by graphviz version 2.38.0 (20140413.2041)
 -->
<!-- Title: G Pages: 1 -->
<svg width="1612pt" height="701pt"
 viewBox="0.00 0.00 1612.15 700.56" xmlns="http://www.w3.org/2000/svg" xmlns:xlink="http://www.w3.org/1999/xlink">
<g id="graph0" class="graph" transform="scale(1 1) rotate(0) translate(4 696.558)">
<title>G</title>
<polygon fill="white" stroke="none" points="-4,4 -4,-696.558 1608.15,-696.558 1608.15,4 -4,4"/>
<g id="clust1" class="cluster"><title>cluster_configparser</title>
<polygon fill="none" stroke="black" points="48.1483,-609.558 48.1483,-684.558 146.148,-684.558 146.148,-609.558 48.1483,-609.558"/>
<text text-anchor="middle" x="97.1483" y="-669.358" font-family="Times New Roman,serif" font-size="14.00">configparser</text>
</g>
<g id="clust2" class="cluster"><title>cluster_enum</title>
<polygon fill="none" stroke="black" points="307.148,-380.919 307.148,-455.919 377.148,-455.919 377.148,-380.919 307.148,-380.919"/>
<text text-anchor="middle" x="342.148" y="-440.719" font-family="Times New Roman,serif" font-size="14.00">enum</text>
</g>
<g id="clust4" class="cluster"><title>cluster_yaml</title>
<polygon fill="none" stroke="black" points="504.148,-302.492 504.148,-684.558 1382.15,-684.558 1382.15,-302.492 504.148,-302.492"/>
<text text-anchor="middle" x="943.148" y="-669.358" font-family="Times New Roman,serif" font-size="14.00">yaml</text>
</g>
<g id="clust3" class="cluster"><title>cluster_stdliblist</title>
<polygon fill="none" stroke="black" points="1390.15,-380.919 1390.15,-537.558 1596.15,-537.558 1596.15,-380.919 1390.15,-380.919"/>
<text text-anchor="middle" x="1493.15" y="-522.358" font-family="Times New Roman,serif" font-size="14.00">stdliblist</text>
</g>
<!-- configparser -->
<g id="node1" class="node"><title>configparser</title>
<ellipse fill="#b6b653" stroke="black" cx="97.1483" cy="-635.558" rx="40.7358" ry="18"/>
<text text-anchor="middle" x="97.1483" y="-633.058" font-family="Helvetica,sans-Serif" font-size="10.00" fill="#000000">configparser</text>
</g>
<!-- pydeps_pycompat -->
<g id="node26" class="node"><title>pydeps_pycompat</title>
<ellipse fill="#26d9d9" stroke="black" cx="97.1483" cy="-485.345" rx="41.9398" ry="21.4286"/>
<text text-anchor="middle" x="97.1483" y="-488.345" font-family="Helvetica,sans-Serif" font-size="10.00" fill="#000000">pydeps.</text>
<text text-anchor="middle" x="97.1483" y="-477.345" font-family="Helvetica,sans-Serif" font-size="10.00" fill="#000000">pycompat</text>
</g>
<!-- configparser&#45;&gt;pydeps_pycompat -->
<g id="edge2" class="edge"><title>configparser&#45;&gt;pydeps_pycompat</title>
<path fill="none" stroke="black" d="M97.1483,-610.143C97.1483,-584.655 97.1483,-544.623 97.1483,-517.018"/>
<polygon fill="#000000" stroke="black" points="100.648,-516.934 97.1483,-506.934 93.6484,-516.934 100.648,-516.934"/>
</g>
<!-- enum -->
<g id="node2" class="node"><title>enum</title>
<ellipse fill="#47c247" stroke="black" cx="342.148" cy="-406.919" rx="27" ry="18"/>
<text text-anchor="middle" x="342.148" y="-404.419" font-family="Helvetica,sans-Serif" font-size="10.00" fill="#000000">enum</text>
</g>
<!-- pydeps_depgraph -->
<g id="node33" class="node"><title>pydeps_depgraph</title>
<ellipse fill="#35a1a1" stroke="black" cx="280.148" cy="-250.066" rx="39.6962" ry="21.4286"/>
<text text-anchor="middle" x="280.148" y="-253.066" font-family="Helvetica,sans-Serif" font-size="10.00" fill="#000000">pydeps.</text>
<text text-anchor="middle" x="280.148" y="-242.066" font-family="Helvetica,sans-Serif" font-size="10.00" fill="#000000">depgraph</text>
</g>
<!-- enum&#45;&gt;pydeps_depgraph -->
<g id="edge3" class="edge"><title>enum&#45;&gt;pydeps_depgraph</title>
<path fill="none" stroke="black" d="M307.403,-399.431C280.095,-392.308 243.817,-377.903 226.148,-349.706 215.006,-331.925 217.882,-321.779 226.148,-302.492 230.882,-291.448 239.281,-281.653 248.065,-273.652"/>
<polygon fill="#000000" stroke="black" points="250.435,-276.232 255.802,-267.097 245.91,-270.891 250.435,-276.232"/>
</g>
<!-- pydeps_py2depgraph -->
<g id="node38" class="node"><title>pydeps_py2depgraph</title>
<ellipse fill="#309191" stroke="black" cx="280.148" cy="-171.64" rx="50.8235" ry="21.4286"/>
<text text-anchor="middle" x="280.148" y="-174.64" font-family="Helvetica,sans-Serif" font-size="10.00" fill="#ffffff">pydeps.</text>
<text text-anchor="middle" x="280.148" y="-163.64" font-family="Helvetica,sans-Serif" font-size="10.00" fill="#ffffff">py2depgraph</text>
</g>
<!-- enum&#45;&gt;pydeps_py2depgraph -->
<g id="edge4" class="edge"><title>enum&#45;&gt;pydeps_py2depgraph</title>
<path fill="none" stroke="black" d="M377.141,-400.75C406.748,-394.329 447.416,-380.216 467.148,-349.706 496.513,-304.303 489.01,-269.321 453.148,-228.853 418.19,-189.404 390.237,-209.267 340.148,-192.853 336.212,-191.563 332.134,-190.214 328.042,-188.853"/>
<polygon fill="#000000" stroke="black" points="329.12,-185.523 318.527,-185.674 326.902,-192.163 329.12,-185.523"/>
</g>
<!-- stdlib_list__version -->
<g id="node3" class="node"><title>stdlib_list__version</title>
<ellipse fill="#5353b6" stroke="black" cx="1545.15" cy="-485.345" rx="43.2674" ry="21.4286"/>
<text text-anchor="middle" x="1545.15" y="-488.345" font-family="Helvetica,sans-Serif" font-size="10.00" fill="#ffffff">stdlib_list.</text>
<text text-anchor="middle" x="1545.15" y="-477.345" font-family="Helvetica,sans-Serif" font-size="10.00" fill="#ffffff">_version</text>
</g>
<!-- stdlib_list -->
<g id="node4" class="node"><title>stdlib_list</title>
<ellipse fill="#3d3db8" stroke="black" cx="1441.15" cy="-406.919" rx="34.2855" ry="18"/>
<text text-anchor="middle" x="1441.15" y="-404.419" font-family="Helvetica,sans-Serif" font-size="10.00" fill="#ffffff">stdlib_list</text>
</g>
<!-- stdlib_list__version&#45;&gt;stdlib_list -->
<g id="edge26" class="edge"><title>stdlib_list__version&#45;&gt;stdlib_list</title>
<path fill="none" stroke="black" d="M1522.07,-467.384C1506.27,-455.775 1485.25,-440.329 1468.6,-428.089"/>
<polygon fill="#000000" stroke="black" points="1470.46,-425.119 1460.33,-422.017 1466.32,-430.759 1470.46,-425.119"/>
</g>
<!-- pydeps_pystdlib -->
<g id="node35" class="node"><title>pydeps_pystdlib</title>
<ellipse fill="#40bfc0" stroke="black" cx="690.148" cy="-250.066" rx="36.125" ry="21.4286"/>
<text text-anchor="middle" x="690.148" y="-253.066" font-family="Helvetica,sans-Serif" font-size="10.00" fill="#000000">pydeps.</text>
<text text-anchor="middle" x="690.148" y="-242.066" font-family="Helvetica,sans-Serif" font-size="10.00" fill="#000000">pystdlib</text>
</g>
<!-- stdlib_list&#45;&gt;pydeps_pystdlib -->
<g id="edge25" class="edge"><title>stdlib_list&#45;&gt;pydeps_pystdlib</title>
<path fill="none" stroke="black" d="M1435.35,-381.068C1428.22,-356.594 1413.54,-320.359 1386.15,-302.492 1331.95,-267.145 883.557,-254.98 736.594,-251.921"/>
<polygon fill="#000000" stroke="black" points="736.612,-248.421 726.543,-251.717 736.469,-255.42 736.612,-248.421"/>
</g>
<!-- stdlib_list_base -->
<g id="node5" class="node"><title>stdlib_list_base</title>
<ellipse fill="#4c4cb3" stroke="black" cx="1441.15" cy="-485.345" rx="43.2674" ry="21.4286"/>
<text text-anchor="middle" x="1441.15" y="-488.345" font-family="Helvetica,sans-Serif" font-size="10.00" fill="#ffffff">stdlib_list.</text>
<text text-anchor="middle" x="1441.15" y="-477.345" font-family="Helvetica,sans-Serif" font-size="10.00" fill="#ffffff">base</text>
</g>
<!-- stdlib_list_base&#45;&gt;stdlib_list -->
<g id="edge27" class="edge"><title>stdlib_list_base&#45;&gt;stdlib_list</title>
<path fill="none" stroke="black" d="M1441.15,-463.864C1441.15,-455.126 1441.15,-444.799 1441.15,-435.41"/>
<polygon fill="#000000" stroke="black" points="1444.65,-435.345 1441.15,-425.345 1437.65,-435.345 1444.65,-435.345"/>
</g>
<!-- yaml_emitter -->
<g id="node6" class="node"><title>yaml_emitter</title>
<ellipse fill="#ac49ac" stroke="black" cx="574.148" cy="-485.345" rx="41.5911" ry="18"/>
<text text-anchor="middle" x="574.148" y="-482.845" font-family="Helvetica,sans-Serif" font-size="10.00" fill="#ffffff">yaml.emitter</text>
</g>
<!-- yaml_dumper -->
<g id="node15" class="node"><title>yaml_dumper</title>
<ellipse fill="#9d439d" stroke="black" cx="718.148" cy="-406.919" rx="42.9448" ry="18"/>
<text text-anchor="middle" x="718.148" y="-404.419" font-family="Helvetica,sans-Serif" font-size="10.00" fill="#ffffff">yaml.dumper</text>
</g>
<!-- yaml_emitter&#45;&gt;yaml_dumper -->
<g id="edge34" class="edge"><title>yaml_emitter&#45;&gt;yaml_dumper</title>
<path fill="none" stroke="black" d="M599.561,-470.858C622.86,-458.492 657.565,-440.073 683.418,-426.351"/>
<polygon fill="#000000" stroke="black" points="685.313,-429.308 692.505,-421.529 682.031,-423.125 685.313,-429.308"/>
</g>
<!-- yaml_cyaml -->
<g id="node7" class="node"><title>yaml_cyaml</title>
<ellipse fill="#964096" stroke="black" cx="818.148" cy="-406.919" rx="39.3809" ry="18"/>
<text text-anchor="middle" x="818.148" y="-404.419" font-family="Helvetica,sans-Serif" font-size="10.00" fill="#ffffff">yaml.cyaml</text>
</g>
<!-- yaml -->
<g id="node11" class="node"><title>yaml</title>
<ellipse fill="#883a88" stroke="black" cx="818.148" cy="-328.492" rx="27" ry="18"/>
<text text-anchor="middle" x="818.148" y="-325.992" font-family="Helvetica,sans-Serif" font-size="10.00" fill="#ffffff">yaml</text>
</g>
<!-- yaml_cyaml&#45;&gt;yaml -->
<g id="edge32" class="edge"><title>yaml_cyaml&#45;&gt;yaml</title>
<path fill="none" stroke="black" d="M818.148,-388.576C818.148,-379.13 818.148,-367.228 818.148,-356.587"/>
<polygon fill="#000000" stroke="black" points="821.648,-356.503 818.148,-346.503 814.648,-356.503 821.648,-356.503"/>
</g>
<!-- yaml_representer -->
<g id="node8" class="node"><title>yaml_representer</title>
<ellipse fill="#b83db8" stroke="black" cx="818.148" cy="-485.345" rx="45.9239" ry="21.4286"/>
<text text-anchor="middle" x="818.148" y="-488.345" font-family="Helvetica,sans-Serif" font-size="10.00" fill="#ffffff">yaml.</text>
<text text-anchor="middle" x="818.148" y="-477.345" font-family="Helvetica,sans-Serif" font-size="10.00" fill="#ffffff">representer</text>
</g>
<!-- yaml_representer&#45;&gt;yaml_cyaml -->
<g id="edge59" class="edge"><title>yaml_representer&#45;&gt;yaml_cyaml</title>
<path fill="none" stroke="black" d="M818.148,-463.864C818.148,-455.126 818.148,-444.799 818.148,-435.41"/>
<polygon fill="#000000" stroke="black" points="821.648,-435.345 818.148,-425.345 814.648,-435.345 821.648,-435.345"/>
</g>
<!-- yaml_representer&#45;&gt;yaml_dumper -->
<g id="edge60" class="edge"><title>yaml_representer&#45;&gt;yaml_dumper</title>
<path fill="none" stroke="black" d="M789.337,-468.62C782.855,-464.719 776.13,-460.373 770.148,-455.919 760.088,-448.428 749.781,-439.277 741.025,-430.983"/>
<polygon fill="#000000" stroke="black" points="743.398,-428.408 733.775,-423.977 738.534,-433.443 743.398,-428.408"/>
</g>
<!-- yaml_composer -->
<g id="node9" class="node"><title>yaml_composer</title>
<ellipse fill="#a446a4" stroke="black" cx="1057.15" cy="-485.345" rx="48.7185" ry="18"/>
<text text-anchor="middle" x="1057.15" y="-482.845" font-family="Helvetica,sans-Serif" font-size="10.00" fill="#ffffff">yaml.composer</text>
</g>
<!-- yaml_loader -->
<g id="node21" class="node"><title>yaml_loader</title>
<ellipse fill="#8f3d8f" stroke="black" cx="1170.15" cy="-406.919" rx="39.3809" ry="18"/>
<text text-anchor="middle" x="1170.15" y="-404.419" font-family="Helvetica,sans-Serif" font-size="10.00" fill="#ffffff">yaml.loader</text>
</g>
<!-- yaml_composer&#45;&gt;yaml_loader -->
<g id="edge29" class="edge"><title>yaml_composer&#45;&gt;yaml_loader</title>
<path fill="none" stroke="black" d="M1079.47,-469.246C1096.99,-457.4 1121.52,-440.809 1140.65,-427.869"/>
<polygon fill="#000000" stroke="black" points="1142.69,-430.713 1149.02,-422.211 1138.77,-424.915 1142.69,-430.713"/>
</g>
<!-- yaml_events -->
<g id="node10" class="node"><title>yaml_events</title>
<ellipse fill="#e722e7" stroke="black" cx="679.148" cy="-563.558" rx="40.0582" ry="18"/>
<text text-anchor="middle" x="679.148" y="-561.058" font-family="Helvetica,sans-Serif" font-size="10.00" fill="#ffffff">yaml.events</text>
</g>
<!-- yaml_events&#45;&gt;yaml_emitter -->
<g id="edge47" class="edge"><title>yaml_events&#45;&gt;yaml_emitter</title>
<path fill="none" stroke="black" d="M651.951,-550.318C644.642,-546.595 636.898,-542.238 630.148,-537.558 618.359,-529.384 606.467,-518.898 596.693,-509.545"/>
<polygon fill="#000000" stroke="black" points="598.944,-506.851 589.351,-502.354 594.046,-511.852 598.944,-506.851"/>
</g>
<!-- yaml_events&#45;&gt;yaml_composer -->
<g id="edge46" class="edge"><title>yaml_events&#45;&gt;yaml_composer</title>
<path fill="none" stroke="black" d="M711.87,-553.027C723.254,-550.104 736.173,-547.223 748.148,-545.558 799.023,-538.488 930.198,-553.12 979.148,-537.558 998.248,-531.486 1017.1,-519.322 1031.49,-508.372"/>
<polygon fill="#000000" stroke="black" points="1033.73,-511.063 1039.41,-502.121 1029.4,-505.568 1033.73,-511.063"/>
</g>
<!-- yaml_events&#45;&gt;yaml -->
<g id="edge45" class="edge"><title>yaml_events&#45;&gt;yaml</title>
<path fill="none" stroke="black" d="M654.71,-549.106C650.851,-545.852 647.398,-542.004 645.148,-537.558 629.293,-506.221 642.315,-406.714 666.148,-380.919 695.874,-348.746 746.425,-336.694 781.006,-332.183"/>
<polygon fill="#000000" stroke="black" points="781.65,-335.632 791.184,-331.012 780.85,-328.678 781.65,-335.632"/>
</g>
<!-- yaml_parser -->
<g id="node13" class="node"><title>yaml_parser</title>
<ellipse fill="#9d439d" stroke="black" cx="1294.15" cy="-485.345" rx="40.0582" ry="18"/>
<text text-anchor="middle" x="1294.15" y="-482.845" font-family="Helvetica,sans-Serif" font-size="10.00" fill="#ffffff">yaml.parser</text>
</g>
<!-- yaml_events&#45;&gt;yaml_parser -->
<g id="edge48" class="edge"><title>yaml_events&#45;&gt;yaml_parser</title>
<path fill="none" stroke="black" d="M711.854,-552.905C723.237,-549.972 736.158,-547.116 748.148,-545.558 774.431,-542.145 1200.05,-546.088 1225.15,-537.558 1242.3,-531.73 1258.7,-519.912 1271.21,-509.095"/>
<polygon fill="#000000" stroke="black" points="1273.76,-511.507 1278.83,-502.205 1269.06,-506.313 1273.76,-511.507"/>
</g>
<!-- yaml_serializer -->
<g id="node16" class="node"><title>yaml_serializer</title>
<ellipse fill="#b03ab0" stroke="black" cx="694.148" cy="-485.345" rx="39.6962" ry="21.4286"/>
<text text-anchor="middle" x="694.148" y="-488.345" font-family="Helvetica,sans-Serif" font-size="10.00" fill="#ffffff">yaml.</text>
<text text-anchor="middle" x="694.148" y="-477.345" font-family="Helvetica,sans-Serif" font-size="10.00" fill="#ffffff">serializer</text>
</g>
<!-- yaml_events&#45;&gt;yaml_serializer -->
<g id="edge49" class="edge"><title>yaml_events&#45;&gt;yaml_serializer</title>
<path fill="none" stroke="black" d="M682.552,-545.264C684.233,-536.724 686.31,-526.173 688.239,-516.369"/>
<polygon fill="#000000" stroke="black" points="691.677,-517.027 690.174,-506.539 684.809,-515.675 691.677,-517.027"/>
</g>
<!-- yaml&#45;&gt;pydeps_py2depgraph -->
<g id="edge28" class="edge"><title>yaml&#45;&gt;pydeps_py2depgraph</title>
<path fill="none" stroke="black" d="M623.808,-302.495C595.809,-294.736 568.072,-284.578 543.148,-271.279 519.462,-258.64 523.709,-241.724 500.148,-228.853 436.182,-193.908 410.335,-212.514 340.148,-192.853 336.04,-191.702 331.799,-190.436 327.559,-189.115"/>
<polygon fill="#000000" stroke="black" points="328.322,-185.684 317.731,-185.964 326.185,-192.35 328.322,-185.684"/>
</g>
<!-- yaml_error -->
<g id="node12" class="node"><title>yaml_error</title>
<ellipse fill="#f910f9" stroke="black" cx="992.148" cy="-635.558" rx="35.1405" ry="18"/>
<text text-anchor="middle" x="992.148" y="-633.058" font-family="Helvetica,sans-Serif" font-size="10.00" fill="#ffffff">yaml.error</text>
</g>
<!-- yaml_error&#45;&gt;yaml_emitter -->
<g id="edge38" class="edge"><title>yaml_error&#45;&gt;yaml_emitter</title>
<path fill="none" stroke="black" d="M956.834,-633.219C876.548,-629.574 683.177,-617.237 630.148,-581.558 606.002,-565.312 590.805,-534.868 582.431,-512.769"/>
<polygon fill="#000000" stroke="black" points="585.706,-511.531 579.057,-503.283 579.111,-513.877 585.706,-511.531"/>
</g>
<!-- yaml_error&#45;&gt;yaml_representer -->
<g id="edge41" class="edge"><title>yaml_error&#45;&gt;yaml_representer</title>
<path fill="none" stroke="black" d="M973.607,-620.235C949.853,-601.707 907.631,-568.171 873.148,-537.558 863.866,-529.318 853.887,-520.13 845.012,-511.836"/>
<polygon fill="#000000" stroke="black" points="847.228,-509.116 837.541,-504.824 842.437,-514.22 847.228,-509.116"/>
</g>
<!-- yaml_error&#45;&gt;yaml_composer -->
<g id="edge36" class="edge"><title>yaml_error&#45;&gt;yaml_composer</title>
<path fill="none" stroke="black" d="M1007.81,-619.192C1017.07,-609.264 1028.28,-595.612 1035.15,-581.558 1045.64,-560.078 1051.25,-533.398 1054.17,-513.751"/>
<polygon fill="#000000" stroke="black" points="1057.66,-514.014 1055.53,-503.636 1050.73,-513.081 1057.66,-514.014"/>
</g>
<!-- yaml_error&#45;&gt;yaml -->
<g id="edge35" class="edge"><title>yaml_error&#45;&gt;yaml</title>
<path fill="none" stroke="black" d="M956.662,-633.676C854.778,-630.235 565.905,-613.795 523.148,-537.558 481.03,-462.46 559.756,-418.656 637.148,-380.919 684.788,-357.689 744.744,-343.248 782.27,-335.786"/>
<polygon fill="#000000" stroke="black" points="783.074,-339.195 792.23,-333.865 781.748,-332.322 783.074,-339.195"/>
</g>
<!-- yaml_error&#45;&gt;yaml_parser -->
<g id="edge39" class="edge"><title>yaml_error&#45;&gt;yaml_parser</title>
<path fill="none" stroke="black" d="M1027,-632.072C1069.98,-627.611 1143.89,-615.288 1197.15,-581.558 1214.74,-570.415 1212.64,-560.498 1227.15,-545.558 1227.65,-545.039 1250.39,-524.955 1269.24,-508.321"/>
<polygon fill="#000000" stroke="black" points="1271.56,-510.944 1276.74,-501.703 1266.93,-505.695 1271.56,-510.944"/>
</g>
<!-- yaml_constructor -->
<g id="node14" class="node"><title>yaml_constructor</title>
<ellipse fill="#b83db8" stroke="black" cx="1170.15" cy="-485.345" rx="45.9239" ry="21.4286"/>
<text text-anchor="middle" x="1170.15" y="-488.345" font-family="Helvetica,sans-Serif" font-size="10.00" fill="#ffffff">yaml.</text>
<text text-anchor="middle" x="1170.15" y="-477.345" font-family="Helvetica,sans-Serif" font-size="10.00" fill="#ffffff">constructor</text>
</g>
<!-- yaml_error&#45;&gt;yaml_constructor -->
<g id="edge37" class="edge"><title>yaml_error&#45;&gt;yaml_constructor</title>
<path fill="none" stroke="black" d="M1007.91,-619.442C1028.01,-600.652 1064.36,-568.29 1099.15,-545.558 1105.8,-541.21 1108.62,-542.092 1115.15,-537.558 1125.7,-530.236 1136.27,-520.972 1145.28,-512.343"/>
<polygon fill="#000000" stroke="black" points="1147.77,-514.805 1152.45,-505.301 1142.87,-509.811 1147.77,-514.805"/>
</g>
<!-- yaml_error&#45;&gt;yaml_serializer -->
<g id="edge44" class="edge"><title>yaml_error&#45;&gt;yaml_serializer</title>
<path fill="none" stroke="black" d="M957.983,-630.645C898.978,-623.322 781.122,-606.047 748.148,-581.558 733.454,-570.645 737.15,-561.495 728.148,-545.558 722.449,-535.468 716.145,-524.45 710.528,-514.683"/>
<polygon fill="#000000" stroke="black" points="713.421,-512.693 705.396,-505.774 707.355,-516.186 713.421,-512.693"/>
</g>
<!-- yaml_reader -->
<g id="node18" class="node"><title>yaml_reader</title>
<ellipse fill="#b34cb3" stroke="black" cx="1148.15" cy="-563.558" rx="40.0582" ry="18"/>
<text text-anchor="middle" x="1148.15" y="-561.058" font-family="Helvetica,sans-Serif" font-size="10.00" fill="#ffffff">yaml.reader</text>
</g>
<!-- yaml_error&#45;&gt;yaml_reader -->
<g id="edge40" class="edge"><title>yaml_error&#45;&gt;yaml_reader</title>
<path fill="none" stroke="black" d="M1017.91,-622.999C1043.41,-611.556 1082.7,-593.926 1111.46,-581.021"/>
<polygon fill="#000000" stroke="black" points="1113.08,-584.129 1120.77,-576.842 1110.22,-577.742 1113.08,-584.129"/>
</g>
<!-- yaml_scanner -->
<g id="node19" class="node"><title>yaml_scanner</title>
<ellipse fill="#b83db8" stroke="black" cx="1280.15" cy="-563.558" rx="44.3" ry="18"/>
<text text-anchor="middle" x="1280.15" y="-561.058" font-family="Helvetica,sans-Serif" font-size="10.00" fill="#ffffff">yaml.scanner</text>
</g>
<!-- yaml_error&#45;&gt;yaml_scanner -->
<g id="edge43" class="edge"><title>yaml_error&#45;&gt;yaml_scanner</title>
<path fill="none" stroke="black" d="M1024.21,-627.524C1068.27,-617.753 1149.95,-599.27 1219.15,-581.558 1224.41,-580.212 1229.91,-578.753 1235.36,-577.275"/>
<polygon fill="#000000" stroke="black" points="1236.34,-580.635 1245.06,-574.612 1234.49,-573.884 1236.34,-580.635"/>
</g>
<!-- yaml_resolver -->
<g id="node22" class="node"><title>yaml_resolver</title>
<ellipse fill="#c431c4" stroke="black" cx="926.148" cy="-485.345" rx="43.6222" ry="18"/>
<text text-anchor="middle" x="926.148" y="-482.845" font-family="Helvetica,sans-Serif" font-size="10.00" fill="#ffffff">yaml.resolver</text>
</g>
<!-- yaml_error&#45;&gt;yaml_resolver -->
<g id="edge42" class="edge"><title>yaml_error&#45;&gt;yaml_resolver</title>
<path fill="none" stroke="black" d="M972.527,-620.347C960.845,-610.762 946.84,-597.062 939.148,-581.558 928.638,-560.374 925.781,-533.457 925.325,-513.652"/>
<polygon fill="#000000" stroke="black" points="928.824,-513.448 925.285,-503.462 921.824,-513.476 928.824,-513.448"/>
</g>
<!-- yaml_parser&#45;&gt;yaml_loader -->
<g id="edge57" class="edge"><title>yaml_parser&#45;&gt;yaml_loader</title>
<path fill="none" stroke="black" d="M1271.4,-470.327C1251.74,-458.208 1223.13,-440.571 1201.33,-427.136"/>
<polygon fill="#000000" stroke="black" points="1203.1,-424.115 1192.75,-421.848 1199.42,-430.074 1203.1,-424.115"/>
</g>
<!-- yaml_constructor&#45;&gt;yaml_cyaml -->
<g id="edge30" class="edge"><title>yaml_constructor&#45;&gt;yaml_cyaml</title>
<path fill="none" stroke="black" d="M1136.11,-470.843C1129.23,-468.4 1122.01,-466.029 1115.15,-464.132 1028.54,-440.198 924.928,-423.134 865.798,-414.456"/>
<polygon fill="#000000" stroke="black" points="866.041,-410.955 855.642,-412.984 865.037,-417.882 866.041,-410.955"/>
</g>
<!-- yaml_constructor&#45;&gt;yaml_loader -->
<g id="edge31" class="edge"><title>yaml_constructor&#45;&gt;yaml_loader</title>
<path fill="none" stroke="black" d="M1170.15,-463.864C1170.15,-455.126 1170.15,-444.799 1170.15,-435.41"/>
<polygon fill="#000000" stroke="black" points="1173.65,-435.345 1170.15,-425.345 1166.65,-435.345 1173.65,-435.345"/>
</g>
<!-- yaml_dumper&#45;&gt;yaml -->
<g id="edge33" class="edge"><title>yaml_dumper&#45;&gt;yaml</title>
<path fill="none" stroke="black" d="M737.905,-390.819C753.61,-378.817 775.69,-361.941 792.715,-348.93"/>
<polygon fill="#000000" stroke="black" points="795.276,-351.378 801.096,-342.525 791.026,-345.816 795.276,-351.378"/>
</g>
<!-- yaml_serializer&#45;&gt;yaml_cyaml -->
<g id="edge66" class="edge"><title>yaml_serializer&#45;&gt;yaml_cyaml</title>
<path fill="none" stroke="black" d="M725.842,-472.477C733.166,-469.735 740.928,-466.831 748.148,-464.132 757.925,-460.477 761.369,-461.563 770.148,-455.919 780.471,-449.283 790.337,-440.104 798.41,-431.549"/>
<polygon fill="#000000" stroke="black" points="801.166,-433.721 805.283,-423.958 795.976,-429.023 801.166,-433.721"/>
</g>
<!-- yaml_serializer&#45;&gt;yaml_dumper -->
<g id="edge67" class="edge"><title>yaml_serializer&#45;&gt;yaml_dumper</title>
<path fill="none" stroke="black" d="M700.454,-464.265C703.299,-455.206 706.7,-444.376 709.756,-434.643"/>
<polygon fill="#000000" stroke="black" points="713.122,-435.606 712.779,-425.017 706.444,-433.509 713.122,-435.606"/>
</g>
<!-- yaml_nodes -->
<g id="node17" class="node"><title>yaml_nodes</title>
<ellipse fill="#f316f3" stroke="black" cx="987.148" cy="-563.558" rx="39.3809" ry="18"/>
<text text-anchor="middle" x="987.148" y="-561.058" font-family="Helvetica,sans-Serif" font-size="10.00" fill="#ffffff">yaml.nodes</text>
</g>
<!-- yaml_nodes&#45;&gt;yaml_representer -->
<g id="edge54" class="edge"><title>yaml_nodes&#45;&gt;yaml_representer</title>
<path fill="none" stroke="black" d="M948.703,-559.276C925.734,-556.092 896.568,-549.835 873.148,-537.558 861.322,-531.359 850.161,-521.931 841.024,-512.847"/>
<polygon fill="#000000" stroke="black" points="843.303,-510.168 833.854,-505.376 838.253,-515.015 843.303,-510.168"/>
</g>
<!-- yaml_nodes&#45;&gt;yaml_composer -->
<g id="edge52" class="edge"><title>yaml_nodes&#45;&gt;yaml_composer</title>
<path fill="none" stroke="black" d="M1001.65,-546.767C1011.38,-536.18 1024.36,-522.046 1035.32,-510.109"/>
<polygon fill="#000000" stroke="black" points="1037.99,-512.375 1042.18,-502.642 1032.84,-507.64 1037.99,-512.375"/>
</g>
<!-- yaml_nodes&#45;&gt;yaml -->
<g id="edge51" class="edge"><title>yaml_nodes&#45;&gt;yaml</title>
<path fill="none" stroke="black" d="M989.583,-545.461C991.679,-524.926 992.548,-490.014 979.148,-464.132 950.038,-407.902 886.263,-365.972 848.298,-344.837"/>
<polygon fill="#000000" stroke="black" points="849.697,-341.614 839.239,-339.916 846.356,-347.765 849.697,-341.614"/>
</g>
<!-- yaml_nodes&#45;&gt;yaml_constructor -->
<g id="edge53" class="edge"><title>yaml_nodes&#45;&gt;yaml_constructor</title>
<path fill="none" stroke="black" d="M1022.24,-555.159C1037.02,-552.099 1054.4,-548.57 1070.15,-545.558 1090.1,-541.742 1096.97,-546.628 1115.15,-537.558 1127.31,-531.491 1138.68,-521.883 1147.89,-512.62"/>
<polygon fill="#000000" stroke="black" points="1150.45,-515.006 1154.78,-505.339 1145.37,-510.192 1150.45,-515.006"/>
</g>
<!-- yaml_nodes&#45;&gt;yaml_serializer -->
<g id="edge56" class="edge"><title>yaml_nodes&#45;&gt;yaml_serializer</title>
<path fill="none" stroke="black" d="M948.957,-558.819C887.26,-552.703 771.66,-540.907 763.148,-537.558 747.695,-531.479 732.635,-521.004 720.548,-511.105"/>
<polygon fill="#000000" stroke="black" points="722.568,-508.228 712.687,-504.405 718.028,-513.555 722.568,-508.228"/>
</g>
<!-- yaml_nodes&#45;&gt;yaml_resolver -->
<g id="edge55" class="edge"><title>yaml_nodes&#45;&gt;yaml_resolver</title>
<path fill="none" stroke="black" d="M974.212,-546.396C965.938,-536.058 955.049,-522.453 945.727,-510.807"/>
<polygon fill="#000000" stroke="black" points="948.258,-508.368 939.277,-502.748 942.793,-512.742 948.258,-508.368"/>
</g>
<!-- yaml_reader&#45;&gt;yaml_loader -->
<g id="edge58" class="edge"><title>yaml_reader&#45;&gt;yaml_loader</title>
<path fill="none" stroke="black" d="M1181.62,-553.655C1201.1,-548.138 1222.36,-541.396 1225.15,-537.558 1244.33,-511.159 1237.47,-494.35 1225.15,-464.132 1219.6,-450.531 1209,-438.435 1198.58,-428.98"/>
<polygon fill="#000000" stroke="black" points="1200.61,-426.11 1190.73,-422.283 1196.07,-431.436 1200.61,-426.11"/>
</g>
<!-- yaml_scanner&#45;&gt;yaml_parser -->
<g id="edge65" class="edge"><title>yaml_scanner&#45;&gt;yaml_parser</title>
<path fill="none" stroke="black" d="M1283.33,-545.264C1285.06,-535.844 1287.24,-523.976 1289.19,-513.364"/>
<polygon fill="#000000" stroke="black" points="1292.67,-513.776 1291.03,-503.308 1285.78,-512.511 1292.67,-513.776"/>
</g>
<!-- yaml_scanner&#45;&gt;yaml_loader -->
<g id="edge64" class="edge"><title>yaml_scanner&#45;&gt;yaml_loader</title>
<path fill="none" stroke="black" d="M1319.4,-555.073C1328.7,-551.369 1337.53,-545.833 1343.15,-537.558 1361.48,-510.56 1362.33,-490.534 1343.15,-464.132 1315.23,-425.704 1260.4,-413.027 1219.92,-409.107"/>
<polygon fill="#000000" stroke="black" points="1219.95,-405.598 1209.7,-408.271 1219.38,-412.575 1219.95,-405.598"/>
</g>
<!-- yaml_tokens -->
<g id="node20" class="node"><title>yaml_tokens</title>
<ellipse fill="#ce3bce" stroke="black" cx="1333.15" cy="-635.558" rx="41.4139" ry="18"/>
<text text-anchor="middle" x="1333.15" y="-633.058" font-family="Helvetica,sans-Serif" font-size="10.00" fill="#ffffff">yaml.tokens</text>
</g>
<!-- yaml_tokens&#45;&gt;yaml -->
<g id="edge68" class="edge"><title>yaml_tokens&#45;&gt;yaml</title>
<path fill="none" stroke="black" d="M1341.79,-617.79C1357.02,-585.693 1384.48,-514.306 1356.15,-464.132 1320.93,-401.769 1285.78,-404.482 1218.15,-380.919 1090.48,-336.441 927.843,-329.802 855.616,-329.225"/>
<polygon fill="#000000" stroke="black" points="855.24,-325.723 845.225,-329.18 855.209,-332.723 855.24,-325.723"/>
</g>
<!-- yaml_tokens&#45;&gt;yaml_parser -->
<g id="edge69" class="edge"><title>yaml_tokens&#45;&gt;yaml_parser</title>
<path fill="none" stroke="black" d="M1336.01,-617.407C1338.4,-599.169 1340.38,-569.684 1333.15,-545.558 1329.39,-533.03 1322.04,-520.702 1314.72,-510.565"/>
<polygon fill="#000000" stroke="black" points="1317.5,-508.442 1308.65,-502.609 1311.93,-512.685 1317.5,-508.442"/>
</g>
<!-- yaml_tokens&#45;&gt;yaml_scanner -->
<g id="edge70" class="edge"><title>yaml_tokens&#45;&gt;yaml_scanner</title>
<path fill="none" stroke="black" d="M1320.86,-618.323C1314.33,-609.701 1306.17,-598.923 1298.87,-589.285"/>
<polygon fill="#000000" stroke="black" points="1301.57,-587.052 1292.74,-581.192 1295.99,-591.277 1301.57,-587.052"/>
</g>
<!-- yaml_loader&#45;&gt;yaml -->
<g id="edge50" class="edge"><title>yaml_loader&#45;&gt;yaml</title>
<path fill="none" stroke="black" d="M1135.11,-398.311C1067.93,-383.725 921.668,-351.969 853.918,-337.259"/>
<polygon fill="#000000" stroke="black" points="854.257,-333.751 843.742,-335.049 852.772,-340.592 854.257,-333.751"/>
</g>
<!-- yaml_resolver&#45;&gt;yaml_cyaml -->
<g id="edge61" class="edge"><title>yaml_resolver&#45;&gt;yaml_cyaml</title>
<path fill="none" stroke="black" d="M905.068,-469.428C888.609,-457.781 865.552,-441.464 847.32,-428.562"/>
<polygon fill="#000000" stroke="black" points="848.993,-425.458 838.808,-422.539 844.949,-431.172 848.993,-425.458"/>
</g>
<!-- yaml_resolver&#45;&gt;yaml_dumper -->
<g id="edge62" class="edge"><title>yaml_resolver&#45;&gt;yaml_dumper</title>
<path fill="none" stroke="black" d="M897.45,-471.699C889.698,-468.755 881.218,-465.953 873.148,-464.132 828.352,-454.022 812.22,-474.329 770.148,-455.919 757.838,-450.532 746.554,-440.986 737.668,-431.818"/>
<polygon fill="#000000" stroke="black" points="740.128,-429.323 730.797,-424.306 734.963,-434.047 740.128,-429.323"/>
</g>
<!-- yaml_resolver&#45;&gt;yaml_loader -->
<g id="edge63" class="edge"><title>yaml_resolver&#45;&gt;yaml_loader</title>
<path fill="none" stroke="black" d="M959.819,-473.799C1003.88,-459.998 1081.07,-435.82 1128.68,-420.907"/>
<polygon fill="#000000" stroke="black" points="1129.87,-424.201 1138.37,-417.872 1127.78,-417.521 1129.87,-424.201"/>
</g>
<!-- _yaml -->
<g id="node23" class="node"><title>_yaml</title>
<ellipse fill="#b65353" stroke="black" cx="784.148" cy="-563.558" rx="27" ry="18"/>
<text text-anchor="middle" x="784.148" y="-561.058" font-family="Helvetica,sans-Serif" font-size="10.00" fill="#ffffff">_yaml</text>
</g>
<!-- _yaml&#45;&gt;yaml_cyaml -->
<g id="edge1" class="edge"><title>_yaml&#45;&gt;yaml_cyaml</title>
<path fill="none" stroke="black" d="M769.362,-548.322C766.817,-545.048 764.545,-541.393 763.148,-537.558 751.979,-506.895 750.824,-494.35 763.148,-464.132 764.048,-461.925 780.335,-445.397 794.952,-430.829"/>
<polygon fill="#000000" stroke="black" points="797.726,-433.007 802.354,-423.476 792.792,-428.041 797.726,-433.007"/>
</g>
<!-- pydeps_render_context -->
<g id="node24" class="node"><title>pydeps_render_context</title>
<ellipse fill="#47c2c2" stroke="black" cx="401.148" cy="-328.492" rx="57.0522" ry="21.4286"/>
<text text-anchor="middle" x="401.148" y="-331.492" font-family="Helvetica,sans-Serif" font-size="10.00" fill="#000000">pydeps.</text>
<text text-anchor="middle" x="401.148" y="-320.492" font-family="Helvetica,sans-Serif" font-size="10.00" fill="#000000">render_context</text>
</g>
<!-- pydeps_depgraph2dot -->
<g id="node34" class="node"><title>pydeps_depgraph2dot</title>
<ellipse fill="#3ab0b0" stroke="black" cx="391.148" cy="-250.066" rx="53.066" ry="21.4286"/>
<text text-anchor="middle" x="391.148" y="-253.066" font-family="Helvetica,sans-Serif" font-size="10.00" fill="#000000">pydeps.</text>
<text text-anchor="middle" x="391.148" y="-242.066" font-family="Helvetica,sans-Serif" font-size="10.00" fill="#000000">depgraph2dot</text>
</g>
<!-- pydeps_render_context&#45;&gt;pydeps_depgraph2dot -->
<g id="edge23" class="edge"><title>pydeps_render_context&#45;&gt;pydeps_depgraph2dot</title>
<path fill="none" stroke="black" d="M398.469,-307.012C397.44,-299.153 396.244,-290.009 395.12,-281.418"/>
<polygon fill="#47c2c2" stroke="black" points="398.569,-280.8 393.801,-271.338 391.628,-281.708 398.569,-280.8"/>
</g>
<!-- pydeps_mf27 -->
<g id="node25" class="node"><title>pydeps_mf27</title>
<ellipse fill="#47c2c2" stroke="black" cx="594.148" cy="-250.066" rx="42.2678" ry="18"/>
<text text-anchor="middle" x="594.148" y="-247.566" font-family="Helvetica,sans-Serif" font-size="10.00" fill="#000000">pydeps.mf27</text>
</g>
<!-- pydeps_mf27&#45;&gt;pydeps_py2depgraph -->
<g id="edge16" class="edge"><title>pydeps_mf27&#45;&gt;pydeps_py2depgraph</title>
<path fill="none" stroke="black" d="M564.217,-237.222C555.868,-234.205 546.731,-231.165 538.148,-228.853 451.784,-205.589 426.757,-215.189 340.148,-192.853 336.017,-191.787 331.76,-190.58 327.509,-189.299"/>
<polygon fill="#47c2c2" stroke="black" points="328.255,-185.865 317.665,-186.207 326.157,-192.543 328.255,-185.865"/>
</g>
<!-- pydeps_cli -->
<g id="node29" class="node"><title>pydeps_cli</title>
<ellipse fill="#17d3d3" stroke="black" cx="75.1483" cy="-328.492" rx="35.8171" ry="18"/>
<text text-anchor="middle" x="75.1483" y="-325.992" font-family="Helvetica,sans-Serif" font-size="10.00" fill="#000000">pydeps.cli</text>
</g>
<!-- pydeps_pycompat&#45;&gt;pydeps_cli -->
<g id="edge19" class="edge"><title>pydeps_pycompat&#45;&gt;pydeps_cli</title>
<path fill="none" stroke="black" d="M63.0713,-472.982C55.5626,-468.823 48.5448,-463.266 44.1483,-455.919 27.032,-427.316 35.2175,-413.033 44.1483,-380.919 46.7459,-371.578 51.5474,-362.237 56.6086,-354.129"/>
<polygon fill="#26d9d9" stroke="black" points="59.6857,-355.823 62.3297,-345.564 53.8648,-351.935 59.6857,-355.823"/>
</g>
<!-- pydeps_arguments -->
<g id="node31" class="node"><title>pydeps_arguments</title>
<ellipse fill="#40bfc0" stroke="black" cx="97.1483" cy="-406.919" rx="43.6818" ry="21.4286"/>
<text text-anchor="middle" x="97.1483" y="-409.919" font-family="Helvetica,sans-Serif" font-size="10.00" fill="#000000">pydeps.</text>
<text text-anchor="middle" x="97.1483" y="-398.919" font-family="Helvetica,sans-Serif" font-size="10.00" fill="#000000">arguments</text>
</g>
<!-- pydeps_pycompat&#45;&gt;pydeps_arguments -->
<g id="edge18" class="edge"><title>pydeps_pycompat&#45;&gt;pydeps_arguments</title>
<path fill="none" stroke="black" d="M97.1483,-463.864C97.1483,-456.006 97.1483,-446.861 97.1483,-438.271"/>
<polygon fill="#26d9d9" stroke="black" points="100.648,-438.191 97.1483,-428.191 93.6484,-438.191 100.648,-438.191"/>
</g>
<!-- pydeps_pycompat&#45;&gt;pydeps_depgraph -->
<g id="edge20" class="edge"><title>pydeps_pycompat&#45;&gt;pydeps_depgraph</title>
<path fill="none" stroke="black" d="M129.321,-471.566C136.866,-467.433 144.378,-462.244 150.148,-455.919 200.063,-401.211 170.266,-361.399 215.148,-302.492 223.766,-291.183 235.415,-280.942 246.471,-272.63"/>
<polygon fill="#26d9d9" stroke="black" points="248.684,-275.35 254.751,-266.664 244.591,-269.671 248.684,-275.35"/>
</g>
<!-- pydeps_pydeps -->
<g id="node27" class="node"><title>pydeps_pydeps</title>
<ellipse fill="#339999" stroke="black" cx="201.148" cy="-96.4264" rx="48.7185" ry="18"/>
<text text-anchor="middle" x="201.148" y="-93.9264" font-family="Helvetica,sans-Serif" font-size="10.00" fill="#ffffff">pydeps.pydeps</text>
</g>
<!-- pydeps___main__ -->
<g id="node28" class="node"><title>pydeps___main__</title>
<ellipse fill="#4cb3b3" stroke="black" cx="201.148" cy="-21.2132" rx="41.9398" ry="21.4286"/>
<text text-anchor="middle" x="201.148" y="-24.2132" font-family="Helvetica,sans-Serif" font-size="10.00" fill="#000000">pydeps.</text>
<text text-anchor="middle" x="201.148" y="-13.2132" font-family="Helvetica,sans-Serif" font-size="10.00" fill="#000000">__main__</text>
</g>
<!-- pydeps_pydeps&#45;&gt;pydeps___main__ -->
<g id="edge21" class="edge"><title>pydeps_pydeps&#45;&gt;pydeps___main__</title>
<path fill="none" stroke="black" d="M201.148,-78.0759C201.148,-70.5002 201.148,-61.3864 201.148,-52.7384"/>
<polygon fill="#339999" stroke="black" points="204.648,-52.5555 201.148,-42.5555 197.648,-52.5555 204.648,-52.5555"/>
</g>
<!-- pydeps_cli&#45;&gt;pydeps_pydeps -->
<g id="edge9" class="edge"><title>pydeps_cli&#45;&gt;pydeps_pydeps</title>
<path fill="none" stroke="black" d="M50.8607,-315.156C34.916,-305.583 15.3659,-290.678 6.14834,-271.279 -1.94432,-254.248 -2.10201,-245.808 6.14834,-228.853 35.6442,-168.235 108.218,-131.137 156.027,-112.437"/>
<polygon fill="#17d3d3" stroke="black" points="157.424,-115.651 165.533,-108.832 154.942,-109.105 157.424,-115.651"/>
</g>
<!-- pydeps_dummymodule -->
<g id="node30" class="node"><title>pydeps_dummymodule</title>
<ellipse fill="#3db8b8" stroke="black" cx="166.148" cy="-250.066" rx="56.6372" ry="21.4286"/>
<text text-anchor="middle" x="166.148" y="-253.066" font-family="Helvetica,sans-Serif" font-size="10.00" fill="#000000">pydeps.</text>
<text text-anchor="middle" x="166.148" y="-242.066" font-family="Helvetica,sans-Serif" font-size="10.00" fill="#000000">dummymodule</text>
</g>
<!-- pydeps_cli&#45;&gt;pydeps_dummymodule -->
<g id="edge8" class="edge"><title>pydeps_cli&#45;&gt;pydeps_dummymodule</title>
<path fill="none" stroke="black" d="M92.6941,-312.757C104.983,-302.436 121.714,-288.385 136.104,-276.299"/>
<polygon fill="#17d3d3" stroke="black" points="138.408,-278.935 143.814,-269.823 133.906,-273.574 138.408,-278.935"/>
</g>
<!-- pydeps_dot -->
<g id="node32" class="node"><title>pydeps_dot</title>
<ellipse fill="#3db8b8" stroke="black" cx="53.1483" cy="-250.066" rx="38.0276" ry="18"/>
<text text-anchor="middle" x="53.1483" y="-247.566" font-family="Helvetica,sans-Serif" font-size="10.00" fill="#000000">pydeps.dot</text>
</g>
<!-- pydeps_cli&#45;&gt;pydeps_dot -->
<g id="edge7" class="edge"><title>pydeps_cli&#45;&gt;pydeps_dot</title>
<path fill="none" stroke="black" d="M70.2658,-310.531C67.503,-300.933 63.9853,-288.713 60.8582,-277.85"/>
<polygon fill="#17d3d3" stroke="black" points="64.147,-276.622 58.0172,-267.98 57.4201,-278.558 64.147,-276.622"/>
</g>
<!-- pydeps_cli&#45;&gt;pydeps_depgraph -->
<g id="edge6" class="edge"><title>pydeps_cli&#45;&gt;pydeps_depgraph</title>
<path fill="none" stroke="black" d="M103.972,-317.703C135.596,-306.839 187.767,-288.554 232.148,-271.279 234.965,-270.183 237.864,-269.029 240.776,-267.85"/>
<polygon fill="#17d3d3" stroke="black" points="242.118,-271.082 250.037,-264.043 239.457,-264.608 242.118,-271.082"/>
</g>
<!-- pydeps_dummymodule&#45;&gt;pydeps_py2depgraph -->
<g id="edge15" class="edge"><title>pydeps_dummymodule&#45;&gt;pydeps_py2depgraph</title>
<path fill="none" stroke="black" d="M192.876,-231.147C208.568,-220.628 228.572,-207.217 245.468,-195.89"/>
<polygon fill="#3db8b8" stroke="black" points="247.624,-198.658 253.981,-190.182 243.726,-192.844 247.624,-198.658"/>
</g>
<!-- pydeps_arguments&#45;&gt;pydeps_cli -->
<g id="edge5" class="edge"><title>pydeps_arguments&#45;&gt;pydeps_cli</title>
<path fill="none" stroke="black" d="M91.3681,-385.839C88.7414,-376.714 85.5977,-365.793 82.7802,-356.005"/>
<polygon fill="#40bfc0" stroke="black" points="86.1274,-354.98 79.9976,-346.338 79.4005,-356.916 86.1274,-354.98"/>
</g>
<!-- pydeps_dot&#45;&gt;pydeps_pydeps -->
<g id="edge14" class="edge"><title>pydeps_dot&#45;&gt;pydeps_pydeps</title>
<path fill="none" stroke="black" d="M68.4295,-233.409C94.438,-206.761 147.455,-152.44 178.023,-121.12"/>
<polygon fill="#3db8b8" stroke="black" points="180.801,-123.285 185.281,-113.684 175.792,-118.396 180.801,-123.285"/>
</g>
<!-- pydeps_depgraph&#45;&gt;pydeps_py2depgraph -->
<g id="edge12" class="edge"><title>pydeps_depgraph&#45;&gt;pydeps_py2depgraph</title>
<path fill="none" stroke="black" d="M280.148,-228.585C280.148,-220.726 280.148,-211.582 280.148,-202.992"/>
<polygon fill="#35a1a1" stroke="black" points="283.648,-202.912 280.148,-192.912 276.648,-202.912 283.648,-202.912"/>
</g>
<!-- pydeps_depgraph2dot&#45;&gt;pydeps_pydeps -->
<g id="edge13" class="edge"><title>pydeps_depgraph2dot&#45;&gt;pydeps_pydeps</title>
<path fill="none" stroke="black" d="M351.141,-235.982C300.693,-219.473 220.432,-193.174 220.148,-192.853 203.744,-174.331 199.891,-145.766 199.597,-124.713"/>
<polygon fill="#3ab0b0" stroke="black" points="203.1,-124.523 199.721,-114.481 196.1,-124.438 203.1,-124.523"/>
</g>
<!-- pydeps_pystdlib&#45;&gt;pydeps_py2depgraph -->
<g id="edge22" class="edge"><title>pydeps_pystdlib&#45;&gt;pydeps_py2depgraph</title>
<path fill="none" stroke="black" d="M663.517,-235.505C657.594,-232.944 651.257,-230.542 645.148,-228.853 513.591,-192.467 473.319,-222.803 340.148,-192.853 335.746,-191.863 331.214,-190.671 326.705,-189.367"/>
<polygon fill="#40bfc0" stroke="black" points="327.521,-185.956 316.934,-186.368 325.467,-192.648 327.521,-185.956"/>
</g>
<!-- pydeps_target -->
<g id="node36" class="node"><title>pydeps_target</title>
<ellipse fill="#47c2c2" stroke="black" cx="394.148" cy="-171.64" rx="44.978" ry="18"/>
<text text-anchor="middle" x="394.148" y="-169.14" font-family="Helvetica,sans-Serif" font-size="10.00" fill="#000000">pydeps.target</text>
</g>
<!-- pydeps_target&#45;&gt;pydeps_pydeps -->
<g id="edge24" class="edge"><title>pydeps_target&#45;&gt;pydeps_pydeps</title>
<path fill="none" stroke="black" d="M362.71,-158.714C330.295,-146.417 279.548,-127.167 243.587,-113.525"/>
<polygon fill="#47c2c2" stroke="black" points="244.456,-110.111 233.864,-109.837 241.973,-116.656 244.456,-110.111"/>
</g>
<!-- pydeps_colors -->
<g id="node37" class="node"><title>pydeps_colors</title>
<ellipse fill="#3bcece" stroke="black" cx="280.148" cy="-328.492" rx="45.1548" ry="18"/>
<text text-anchor="middle" x="280.148" y="-325.992" font-family="Helvetica,sans-Serif" font-size="10.00" fill="#000000">pydeps.colors</text>
</g>
<!-- pydeps_colors&#45;&gt;pydeps_depgraph -->
<g id="edge10" class="edge"><title>pydeps_colors&#45;&gt;pydeps_depgraph</title>
<path fill="none" stroke="black" d="M280.148,-310.15C280.148,-301.676 280.148,-291.227 280.148,-281.485"/>
<polygon fill="#3bcece" stroke="black" points="283.648,-281.316 280.148,-271.317 276.648,-281.317 283.648,-281.316"/>
</g>
<!-- pydeps_colors&#45;&gt;pydeps_depgraph2dot -->
<g id="edge11" class="edge"><title>pydeps_colors&#45;&gt;pydeps_depgraph2dot</title>
<path fill="none" stroke="black" d="M301.814,-312.575C317.429,-301.824 338.823,-287.094 356.759,-274.744"/>
<polygon fill="#3bcece" stroke="black" points="358.995,-277.454 365.246,-268.9 355.025,-271.689 358.995,-277.454"/>
</g>
<!-- pydeps_py2depgraph&#45;&gt;pydeps_pydeps -->
<g id="edge17" class="edge"><title>pydeps_py2depgraph&#45;&gt;pydeps_pydeps</title>
<path fill="none" stroke="black" d="M259.804,-151.785C249.503,-142.239 236.909,-130.568 226.036,-120.491"/>
<polygon fill="#309191" stroke="black" points="228.193,-117.718 218.479,-113.488 223.435,-122.852 228.193,-117.718"/>
</g>
</g>
</svg>
