<?xml version="1.0" encoding="UTF-8" standalone="no"?>
<!DOCTYPE svg PUBLIC "-//W3C//DTD SVG 1.1//EN"
 "http://www.w3.org/Graphics/SVG/1.1/DTD/svg11.dtd">
<!-- Generated by graphviz version 2.38.0 (20140413.2041)
 -->
<!-- Title: G Pages: 1 -->
<svg width="758pt" height="627pt"
 viewBox="0.00 0.00 758.28 626.56" xmlns="http://www.w3.org/2000/svg" xmlns:xlink="http://www.w3.org/1999/xlink">
<g id="graph0" class="graph" transform="scale(1 1) rotate(0) translate(4 622.558)">
<title>G</title>
<polygon fill="white" stroke="none" points="-4,4 -4,-622.558 754.276,-622.558 754.276,4 -4,4"/>
<g id="clust1" class="cluster"><title>cluster_stdliblist</title>
<polygon fill="none" stroke="black" points="536.276,-380.919 536.276,-537.558 742.276,-537.558 742.276,-380.919 536.276,-380.919"/>
<text text-anchor="middle" x="639.276" y="-522.358" font-family="Times New Roman,serif" font-size="14.00">stdliblist</text>
</g>
<!-- stdlib_list__version -->
<g id="node1" class="node"><title>stdlib_list__version</title>
<ellipse fill="#5353b6" stroke="black" cx="691.276" cy="-485.345" rx="43.2674" ry="21.4286"/>
<text text-anchor="middle" x="691.276" y="-488.345" font-family="Helvetica,sans-Serif" font-size="10.00" fill="#ffffff">stdlib_list.</text>
<text text-anchor="middle" x="691.276" y="-477.345" font-family="Helvetica,sans-Serif" font-size="10.00" fill="#ffffff">_version</text>
</g>
<!-- stdlib_list -->
<g id="node2" class="node"><title>stdlib_list</title>
<ellipse fill="#3d3db8" stroke="black" cx="609.276" cy="-406.919" rx="34.2855" ry="18"/>
<text text-anchor="middle" x="609.276" y="-404.419" font-family="Helvetica,sans-Serif" font-size="10.00" fill="#ffffff">stdlib_list</text>
</g>
<!-- stdlib_list__version&#45;&gt;stdlib_list -->
<g id="edge25" class="edge"><title>stdlib_list__version&#45;&gt;stdlib_list</title>
<path fill="none" stroke="black" d="M671.843,-466.233C660.265,-455.443 645.481,-441.663 633.19,-430.208"/>
<polygon fill="#000000" stroke="black" points="635.235,-427.329 625.533,-423.071 630.462,-432.45 635.235,-427.329"/>
</g>
<!-- pydeps_pystdlib -->
<g id="node15" class="node"><title>pydeps_pystdlib</title>
<ellipse fill="#40bfc0" stroke="black" cx="605.276" cy="-250.066" rx="36.125" ry="21.4286"/>
<text text-anchor="middle" x="605.276" y="-253.066" font-family="Helvetica,sans-Serif" font-size="10.00" fill="#000000">pydeps.</text>
<text text-anchor="middle" x="605.276" y="-242.066" font-family="Helvetica,sans-Serif" font-size="10.00" fill="#000000">pystdlib</text>
</g>
<!-- stdlib_list&#45;&gt;pydeps_pystdlib -->
<g id="edge24" class="edge"><title>stdlib_list&#45;&gt;pydeps_pystdlib</title>
<path fill="none" stroke="black" d="M608.639,-381.258C607.94,-354.225 606.819,-310.824 606.066,-281.646"/>
<polygon fill="#000000" stroke="black" points="609.56,-281.397 605.803,-271.491 602.563,-281.578 609.56,-281.397"/>
</g>
<!-- stdlib_list_base -->
<g id="node3" class="node"><title>stdlib_list_base</title>
<ellipse fill="#4c4cb3" stroke="black" cx="587.276" cy="-485.345" rx="43.2674" ry="21.4286"/>
<text text-anchor="middle" x="587.276" y="-488.345" font-family="Helvetica,sans-Serif" font-size="10.00" fill="#ffffff">stdlib_list.</text>
<text text-anchor="middle" x="587.276" y="-477.345" font-family="Helvetica,sans-Serif" font-size="10.00" fill="#ffffff">base</text>
</g>
<!-- stdlib_list_base&#45;&gt;stdlib_list -->
<g id="edge26" class="edge"><title>stdlib_list_base&#45;&gt;stdlib_list</title>
<path fill="none" stroke="black" d="M593.056,-464.265C595.683,-455.14 598.826,-444.219 601.644,-434.431"/>
<polygon fill="#000000" stroke="black" points="605.023,-435.343 604.426,-424.765 598.297,-433.406 605.023,-435.343"/>
</g>
<!-- pydeps_render_context -->
<g id="node4" class="node"><title>pydeps_render_context</title>
<ellipse fill="#47c2c2" stroke="black" cx="57.2756" cy="-328.492" rx="57.0522" ry="21.4286"/>
<text text-anchor="middle" x="57.2756" y="-331.492" font-family="Helvetica,sans-Serif" font-size="10.00" fill="#000000">pydeps.</text>
<text text-anchor="middle" x="57.2756" y="-320.492" font-family="Helvetica,sans-Serif" font-size="10.00" fill="#000000">render_context</text>
</g>
<!-- pydeps_depgraph2dot -->
<g id="node14" class="node"><title>pydeps_depgraph2dot</title>
<ellipse fill="#3ab0b0" stroke="black" cx="57.2756" cy="-250.066" rx="53.066" ry="21.4286"/>
<text text-anchor="middle" x="57.2756" y="-253.066" font-family="Helvetica,sans-Serif" font-size="10.00" fill="#000000">pydeps.</text>
<text text-anchor="middle" x="57.2756" y="-242.066" font-family="Helvetica,sans-Serif" font-size="10.00" fill="#000000">depgraph2dot</text>
</g>
<!-- pydeps_render_context&#45;&gt;pydeps_depgraph2dot -->
<g id="edge22" class="edge"><title>pydeps_render_context&#45;&gt;pydeps_depgraph2dot</title>
<path fill="none" stroke="black" d="M57.2756,-307.012C57.2756,-299.153 57.2756,-290.009 57.2756,-281.418"/>
<polygon fill="#47c2c2" stroke="black" points="60.7757,-281.338 57.2756,-271.338 53.7757,-281.338 60.7757,-281.338"/>
</g>
<!-- pydeps_mf27 -->
<g id="node5" class="node"><title>pydeps_mf27</title>
<ellipse fill="#47c2c2" stroke="black" cx="701.276" cy="-250.066" rx="42.2678" ry="18"/>
<text text-anchor="middle" x="701.276" y="-247.566" font-family="Helvetica,sans-Serif" font-size="10.00" fill="#000000">pydeps.mf27</text>
</g>
<!-- pydeps_py2depgraph -->
<g id="node18" class="node"><title>pydeps_py2depgraph</title>
<ellipse fill="#309191" stroke="black" cx="431.276" cy="-171.64" rx="50.8235" ry="21.4286"/>
<text text-anchor="middle" x="431.276" y="-174.64" font-family="Helvetica,sans-Serif" font-size="10.00" fill="#ffffff">pydeps.</text>
<text text-anchor="middle" x="431.276" y="-163.64" font-family="Helvetica,sans-Serif" font-size="10.00" fill="#ffffff">py2depgraph</text>
</g>
<!-- pydeps_mf27&#45;&gt;pydeps_py2depgraph -->
<g id="edge15" class="edge"><title>pydeps_mf27&#45;&gt;pydeps_py2depgraph</title>
<path fill="none" stroke="black" d="M672.379,-236.881C665.22,-234.066 657.522,-231.208 650.276,-228.853 594.92,-210.858 530.214,-194.849 485.563,-184.563"/>
<polygon fill="#47c2c2" stroke="black" points="486.318,-181.146 475.789,-182.329 484.758,-187.97 486.318,-181.146"/>
</g>
<!-- pydeps_pycompat -->
<g id="node6" class="node"><title>pydeps_pycompat</title>
<ellipse fill="#26d9d9" stroke="black" cx="385.276" cy="-485.345" rx="41.9398" ry="21.4286"/>
<text text-anchor="middle" x="385.276" y="-488.345" font-family="Helvetica,sans-Serif" font-size="10.00" fill="#000000">pydeps.</text>
<text text-anchor="middle" x="385.276" y="-477.345" font-family="Helvetica,sans-Serif" font-size="10.00" fill="#000000">pycompat</text>
</g>
<!-- pydeps_cli -->
<g id="node9" class="node"><title>pydeps_cli</title>
<ellipse fill="#17d3d3" stroke="black" cx="315.276" cy="-328.492" rx="35.8171" ry="18"/>
<text text-anchor="middle" x="315.276" y="-325.992" font-family="Helvetica,sans-Serif" font-size="10.00" fill="#000000">pydeps.cli</text>
</g>
<!-- pydeps_pycompat&#45;&gt;pydeps_cli -->
<g id="edge18" class="edge"><title>pydeps_pycompat&#45;&gt;pydeps_cli</title>
<path fill="none" stroke="black" d="M385.031,-463.756C383.991,-442.012 380.056,-407.294 366.276,-380.919 360.316,-369.513 350.971,-359.008 341.899,-350.506"/>
<polygon fill="#26d9d9" stroke="black" points="344.223,-347.888 334.424,-343.859 339.572,-353.119 344.223,-347.888"/>
</g>
<!-- pydeps_arguments -->
<g id="node11" class="node"><title>pydeps_arguments</title>
<ellipse fill="#40bfc0" stroke="black" cx="313.276" cy="-406.919" rx="43.6818" ry="21.4286"/>
<text text-anchor="middle" x="313.276" y="-409.919" font-family="Helvetica,sans-Serif" font-size="10.00" fill="#000000">pydeps.</text>
<text text-anchor="middle" x="313.276" y="-398.919" font-family="Helvetica,sans-Serif" font-size="10.00" fill="#000000">arguments</text>
</g>
<!-- pydeps_pycompat&#45;&gt;pydeps_arguments -->
<g id="edge17" class="edge"><title>pydeps_pycompat&#45;&gt;pydeps_arguments</title>
<path fill="none" stroke="black" d="M367.846,-465.845C358.804,-456.246 347.609,-444.363 337.717,-433.863"/>
<polygon fill="#26d9d9" stroke="black" points="340.199,-431.393 330.794,-426.514 335.104,-436.193 340.199,-431.393"/>
</g>
<!-- pydeps_depgraph -->
<g id="node13" class="node"><title>pydeps_depgraph</title>
<ellipse fill="#35a1a1" stroke="black" cx="431.276" cy="-250.066" rx="39.6962" ry="21.4286"/>
<text text-anchor="middle" x="431.276" y="-253.066" font-family="Helvetica,sans-Serif" font-size="10.00" fill="#000000">pydeps.</text>
<text text-anchor="middle" x="431.276" y="-242.066" font-family="Helvetica,sans-Serif" font-size="10.00" fill="#000000">depgraph</text>
</g>
<!-- pydeps_pycompat&#45;&gt;pydeps_depgraph -->
<g id="edge19" class="edge"><title>pydeps_pycompat&#45;&gt;pydeps_depgraph</title>
<path fill="none" stroke="black" d="M389.277,-464.051C397.382,-422.949 415.775,-329.675 425.304,-281.352"/>
<polygon fill="#26d9d9" stroke="black" points="428.75,-281.967 427.25,-271.479 421.882,-280.613 428.75,-281.967"/>
</g>
<!-- pydeps_pydeps -->
<g id="node7" class="node"><title>pydeps_pydeps</title>
<ellipse fill="#339999" stroke="black" cx="232.276" cy="-96.4264" rx="48.7185" ry="18"/>
<text text-anchor="middle" x="232.276" y="-93.9264" font-family="Helvetica,sans-Serif" font-size="10.00" fill="#ffffff">pydeps.pydeps</text>
</g>
<!-- pydeps___main__ -->
<g id="node8" class="node"><title>pydeps___main__</title>
<ellipse fill="#4cb3b3" stroke="black" cx="232.276" cy="-21.2132" rx="41.9398" ry="21.4286"/>
<text text-anchor="middle" x="232.276" y="-24.2132" font-family="Helvetica,sans-Serif" font-size="10.00" fill="#000000">pydeps.</text>
<text text-anchor="middle" x="232.276" y="-13.2132" font-family="Helvetica,sans-Serif" font-size="10.00" fill="#000000">__main__</text>
</g>
<!-- pydeps_pydeps&#45;&gt;pydeps___main__ -->
<g id="edge20" class="edge"><title>pydeps_pydeps&#45;&gt;pydeps___main__</title>
<path fill="none" stroke="black" d="M232.276,-78.0759C232.276,-70.5002 232.276,-61.3864 232.276,-52.7384"/>
<polygon fill="#339999" stroke="black" points="235.776,-52.5555 232.276,-42.5555 228.776,-52.5555 235.776,-52.5555"/>
</g>
<!-- pydeps_cli&#45;&gt;pydeps_pydeps -->
<g id="edge8" class="edge"><title>pydeps_cli&#45;&gt;pydeps_pydeps</title>
<path fill="none" stroke="black" d="M293.019,-314.214C278.552,-304.306 260.69,-289.386 251.276,-271.279 226.841,-224.284 226.885,-160.605 229.393,-124.804"/>
<polygon fill="#17d3d3" stroke="black" points="232.898,-124.89 230.226,-114.638 225.921,-124.319 232.898,-124.89"/>
</g>
<!-- pydeps_dummymodule -->
<g id="node10" class="node"><title>pydeps_dummymodule</title>
<ellipse fill="#3db8b8" stroke="black" cx="317.276" cy="-250.066" rx="56.6372" ry="21.4286"/>
<text text-anchor="middle" x="317.276" y="-253.066" font-family="Helvetica,sans-Serif" font-size="10.00" fill="#000000">pydeps.</text>
<text text-anchor="middle" x="317.276" y="-242.066" font-family="Helvetica,sans-Serif" font-size="10.00" fill="#000000">dummymodule</text>
</g>
<!-- pydeps_cli&#45;&gt;pydeps_dummymodule -->
<g id="edge7" class="edge"><title>pydeps_cli&#45;&gt;pydeps_dummymodule</title>
<path fill="none" stroke="black" d="M315.729,-310.15C315.951,-301.676 316.225,-291.227 316.48,-281.485"/>
<polygon fill="#17d3d3" stroke="black" points="319.983,-281.405 316.746,-271.317 312.985,-281.221 319.983,-281.405"/>
</g>
<!-- pydeps_dot -->
<g id="node12" class="node"><title>pydeps_dot</title>
<ellipse fill="#3db8b8" stroke="black" cx="166.276" cy="-250.066" rx="38.0276" ry="18"/>
<text text-anchor="middle" x="166.276" y="-247.566" font-family="Helvetica,sans-Serif" font-size="10.00" fill="#000000">pydeps.dot</text>
</g>
<!-- pydeps_cli&#45;&gt;pydeps_dot -->
<g id="edge6" class="edge"><title>pydeps_cli&#45;&gt;pydeps_dot</title>
<path fill="none" stroke="black" d="M291.005,-315.043C266.333,-302.389 227.906,-282.678 200.223,-268.479"/>
<polygon fill="#17d3d3" stroke="black" points="201.778,-265.342 191.282,-263.893 198.583,-271.571 201.778,-265.342"/>
</g>
<!-- pydeps_cli&#45;&gt;pydeps_depgraph -->
<g id="edge5" class="edge"><title>pydeps_cli&#45;&gt;pydeps_depgraph</title>
<path fill="none" stroke="black" d="M336.282,-313.652C353.572,-302.261 378.388,-285.911 398.32,-272.779"/>
<polygon fill="#17d3d3" stroke="black" points="400.383,-275.611 406.808,-267.187 396.532,-269.766 400.383,-275.611"/>
</g>
<!-- pydeps_dummymodule&#45;&gt;pydeps_py2depgraph -->
<g id="edge14" class="edge"><title>pydeps_dummymodule&#45;&gt;pydeps_py2depgraph</title>
<path fill="none" stroke="black" d="M344.004,-231.147C359.695,-220.628 379.699,-207.217 396.595,-195.89"/>
<polygon fill="#3db8b8" stroke="black" points="398.751,-198.658 405.108,-190.182 394.853,-192.844 398.751,-198.658"/>
</g>
<!-- pydeps_arguments&#45;&gt;pydeps_cli -->
<g id="edge4" class="edge"><title>pydeps_arguments&#45;&gt;pydeps_cli</title>
<path fill="none" stroke="black" d="M313.812,-385.438C314.04,-376.7 314.311,-366.372 314.556,-356.984"/>
<polygon fill="#40bfc0" stroke="black" points="318.057,-357.007 314.82,-346.918 311.059,-356.823 318.057,-357.007"/>
</g>
<!-- pydeps_dot&#45;&gt;pydeps_pydeps -->
<g id="edge13" class="edge"><title>pydeps_dot&#45;&gt;pydeps_pydeps</title>
<path fill="none" stroke="black" d="M173.591,-232.259C185.039,-205.957 207.278,-154.86 220.85,-123.677"/>
<polygon fill="#3db8b8" stroke="black" points="224.146,-124.875 224.928,-114.309 217.727,-122.082 224.146,-124.875"/>
</g>
<!-- pydeps_depgraph&#45;&gt;pydeps_py2depgraph -->
<g id="edge11" class="edge"><title>pydeps_depgraph&#45;&gt;pydeps_py2depgraph</title>
<path fill="none" stroke="black" d="M431.276,-228.585C431.276,-220.726 431.276,-211.582 431.276,-202.992"/>
<polygon fill="#35a1a1" stroke="black" points="434.776,-202.912 431.276,-192.912 427.776,-202.912 434.776,-202.912"/>
</g>
<!-- pydeps_depgraph2dot&#45;&gt;pydeps_pydeps -->
<g id="edge12" class="edge"><title>pydeps_depgraph2dot&#45;&gt;pydeps_pydeps</title>
<path fill="none" stroke="black" d="M78.7341,-230.472C110.927,-202.577 171.634,-149.973 206.29,-119.944"/>
<polygon fill="#3ab0b0" stroke="black" points="208.829,-122.375 214.094,-113.181 204.245,-117.084 208.829,-122.375"/>
</g>
<!-- pydeps_pystdlib&#45;&gt;pydeps_py2depgraph -->
<g id="edge21" class="edge"><title>pydeps_pystdlib&#45;&gt;pydeps_py2depgraph</title>
<path fill="none" stroke="black" d="M576.932,-236.617C549.267,-224.465 506.791,-205.808 474.834,-191.772"/>
<polygon fill="#40bfc0" stroke="black" points="475.845,-188.393 465.282,-187.576 473.03,-194.802 475.845,-188.393"/>
</g>
<!-- pydeps_target -->
<g id="node16" class="node"><title>pydeps_target</title>
<ellipse fill="#47c2c2" stroke="black" cx="305.276" cy="-171.64" rx="44.978" ry="18"/>
<text text-anchor="middle" x="305.276" y="-169.14" font-family="Helvetica,sans-Serif" font-size="10.00" fill="#000000">pydeps.target</text>
</g>
<!-- pydeps_target&#45;&gt;pydeps_pydeps -->
<g id="edge23" class="edge"><title>pydeps_target&#45;&gt;pydeps_pydeps</title>
<path fill="none" stroke="black" d="M289.436,-154.753C279.555,-144.844 266.663,-131.914 255.624,-120.843"/>
<polygon fill="#47c2c2" stroke="black" points="257.876,-118.145 248.337,-113.534 252.919,-123.087 257.876,-118.145"/>
</g>
<!-- pydeps_colors -->
<g id="node17" class="node"><title>pydeps_colors</title>
<ellipse fill="#3bcece" stroke="black" cx="197.276" cy="-328.492" rx="45.1548" ry="18"/>
<text text-anchor="middle" x="197.276" y="-325.992" font-family="Helvetica,sans-Serif" font-size="10.00" fill="#000000">pydeps.colors</text>
</g>
<!-- pydeps_colors&#45;&gt;pydeps_depgraph -->
<g id="edge9" class="edge"><title>pydeps_colors&#45;&gt;pydeps_depgraph</title>
<path fill="none" stroke="black" d="M233.015,-317.177C278.786,-303.883 355.508,-281.291 383.276,-271.279 386.16,-270.239 389.122,-269.12 392.091,-267.962"/>
<polygon fill="#3bcece" stroke="black" points="393.538,-271.152 401.509,-264.172 390.926,-264.658 393.538,-271.152"/>
</g>
<!-- pydeps_colors&#45;&gt;pydeps_depgraph2dot -->
<g id="edge10" class="edge"><title>pydeps_colors&#45;&gt;pydeps_depgraph2dot</title>
<path fill="none" stroke="black" d="M171.597,-313.475C150.598,-302.011 120.559,-285.613 96.5427,-272.502"/>
<polygon fill="#3bcece" stroke="black" points="98.1187,-269.375 87.6643,-267.655 94.7646,-275.519 98.1187,-269.375"/>
</g>
<!-- pydeps_py2depgraph&#45;&gt;pydeps_pydeps -->
<g id="edge16" class="edge"><title>pydeps_py2depgraph&#45;&gt;pydeps_pydeps</title>
<path fill="none" stroke="black" d="M394.312,-157.04C360.612,-144.642 310.819,-126.323 275.335,-113.268"/>
<polygon fill="#309191" stroke="black" points="276.325,-109.903 265.731,-109.735 273.908,-116.472 276.325,-109.903"/>
</g>
<!-- configparser -->
<g id="node19" class="node"><title>configparser</title>
<ellipse fill="#b6b653" stroke="black" cx="385.276" cy="-600.558" rx="40.7358" ry="18"/>
<text text-anchor="middle" x="385.276" y="-598.058" font-family="Helvetica,sans-Serif" font-size="10.00" fill="#000000">configparser</text>
</g>
<!-- configparser&#45;&gt;pydeps_pycompat -->
<g id="edge1" class="edge"><title>configparser&#45;&gt;pydeps_pycompat</title>
<path fill="none" stroke="black" d="M385.276,-582.364C385.276,-565.007 385.276,-537.836 385.276,-516.821"/>
<polygon fill="#b6b653" stroke="black" points="388.776,-516.774 385.276,-506.774 381.776,-516.774 388.776,-516.774"/>
</g>
<!-- enum -->
<g id="node20" class="node"><title>enum</title>
<ellipse fill="#47c247" stroke="black" cx="488.276" cy="-406.919" rx="27" ry="18"/>
<text text-anchor="middle" x="488.276" y="-404.419" font-family="Helvetica,sans-Serif" font-size="10.00" fill="#000000">enum</text>
</g>
<!-- enum&#45;&gt;pydeps_depgraph -->
<g id="edge2" class="edge"><title>enum&#45;&gt;pydeps_depgraph</title>
<path fill="none" stroke="black" d="M482.176,-389.347C472.665,-363.509 454.163,-313.245 442.28,-280.962"/>
<polygon fill="#47c247" stroke="black" points="445.413,-279.342 438.674,-271.166 438.844,-281.76 445.413,-279.342"/>
</g>
<!-- enum&#45;&gt;pydeps_py2depgraph -->
<g id="edge3" class="edge"><title>enum&#45;&gt;pydeps_py2depgraph</title>
<path fill="none" stroke="black" d="M491.109,-388.79C495.728,-356.251 502.305,-283.84 480.276,-228.853 475.77,-217.606 468.01,-207.069 459.977,-198.227"/>
<polygon fill="#47c247" stroke="black" points="462.386,-195.683 452.923,-190.918 457.349,-200.544 462.386,-195.683"/>
</g>
<!-- yaml -->
<g id="node21" class="node"><title>yaml</title>
<polygon fill="#ac49ac" stroke="black" points="581.276,-346.492 578.276,-350.492 557.276,-350.492 554.276,-346.492 527.276,-346.492 527.276,-310.492 581.276,-310.492 581.276,-346.492"/>
<text text-anchor="middle" x="554.276" y="-325.992" font-family="Helvetica,sans-Serif" font-size="10.00" fill="#ffffff">yaml</text>
</g>
<!-- yaml&#45;&gt;pydeps_py2depgraph -->
<g id="edge27" class="edge"><title>yaml&#45;&gt;pydeps_py2depgraph</title>
<path fill="none" stroke="black" d="M550.328,-310.233C544.842,-289.214 533.263,-253.474 513.276,-228.853 502.015,-214.981 486.453,-203.137 471.911,-193.948"/>
<polygon fill="#ac49ac" stroke="black" points="473.402,-190.76 463.035,-188.575 469.777,-196.748 473.402,-190.76"/>
</g>
</g>
</svg>
