<?xml version="1.0" encoding="UTF-8" standalone="no"?>
<!DOCTYPE svg PUBLIC "-//W3C//DTD SVG 1.1//EN"
 "http://www.w3.org/Graphics/SVG/1.1/DTD/svg11.dtd">
<!-- Generated by graphviz version 2.28.0 (20110507.0327)
 -->
<!-- Title: G Pages: 1 -->
<svg width="331pt" height="386pt"
 viewBox="0.00 0.00 331.00 386.00" xmlns="http://www.w3.org/2000/svg" xmlns:xlink="http://www.w3.org/1999/xlink">
<g id="graph1" class="graph" transform="scale(1 1) rotate(0) translate(4 382)">
<title>G</title>
<polygon fill="white" stroke="white" points="-4,5 -4,-382 328,-382 328,5 -4,5"/>
<!-- pydeps_colors -->
<g id="node1" class="node"><title>pydeps_colors</title>
<ellipse fill="#529fea" stroke="black" cx="178" cy="-357" rx="44.9918" ry="18"/>
<text text-anchor="middle" x="178" y="-354.5" font-family="Helvetica,sans-Serif" font-size="10.00" fill="#000000">pydeps.colors</text>
</g>
<!-- pydeps_depgraph2dot -->
<g id="node3" class="node"><title>pydeps_depgraph2dot</title>
<ellipse fill="#529fea" stroke="black" cx="67" cy="-243" rx="53.0495" ry="21.4286"/>
<text text-anchor="middle" x="67" y="-246" font-family="Helvetica,sans-Serif" font-size="10.00" fill="#000000">pydeps.</text>
<text text-anchor="middle" x="67" y="-235" font-family="Helvetica,sans-Serif" font-size="10.00" fill="#000000">depgraph2dot</text>
</g>
<!-- pydeps_colors&#45;&gt;pydeps_depgraph2dot -->
<g id="edge2" class="edge"><title>pydeps_colors&#45;&gt;pydeps_depgraph2dot</title>
<path fill="none" stroke="black" d="M162.096,-339.953C144.079,-321.773 114.444,-291.871 93.0402,-270.275"/>
<polygon fill="black" stroke="black" points="95.3706,-267.654 85.8453,-263.015 90.3987,-272.582 95.3706,-267.654"/>
</g>
<!-- pydeps_depgraph -->
<g id="node7" class="node"><title>pydeps_depgraph</title>
<ellipse fill="#529fea" stroke="black" cx="178" cy="-243" rx="39.3965" ry="21.4286"/>
<text text-anchor="middle" x="178" y="-246" font-family="Helvetica,sans-Serif" font-size="10.00" fill="#000000">pydeps.</text>
<text text-anchor="middle" x="178" y="-235" font-family="Helvetica,sans-Serif" font-size="10.00" fill="#000000">depgraph</text>
</g>
<!-- pydeps_colors&#45;&gt;pydeps_depgraph -->
<g id="edge6" class="edge"><title>pydeps_colors&#45;&gt;pydeps_depgraph</title>
<path fill="none" stroke="black" d="M178,-338.99C178,-322.001 178,-295.51 178,-274.814"/>
<polygon fill="black" stroke="black" points="181.5,-274.602 178,-264.602 174.5,-274.602 181.5,-274.602"/>
</g>
<!-- pydeps_pydeps -->
<g id="node9" class="node"><title>pydeps_pydeps</title>
<ellipse fill="#529fea" stroke="black" cx="178" cy="-18" rx="48.2902" ry="18"/>
<text text-anchor="middle" x="178" y="-15.5" font-family="Helvetica,sans-Serif" font-size="10.00" fill="#000000">pydeps.pydeps</text>
</g>
<!-- pydeps_depgraph2dot&#45;&gt;pydeps_pydeps -->
<g id="edge8" class="edge"><title>pydeps_depgraph2dot&#45;&gt;pydeps_pydeps</title>
<path fill="none" stroke="black" d="M73.0632,-221.858C81.477,-195.089 97.9456,-146.67 118,-108 129.762,-85.32 146.135,-61.406 158.806,-44.0847"/>
<polygon fill="black" stroke="black" points="161.902,-45.7854 165.051,-35.6692 156.281,-41.614 161.902,-45.7854"/>
</g>
<!-- pydeps_render_context -->
<g id="node4" class="node"><title>pydeps_render_context</title>
<ellipse fill="#529fea" stroke="black" cx="57" cy="-357" rx="56.9149" ry="21.4286"/>
<text text-anchor="middle" x="57" y="-360" font-family="Helvetica,sans-Serif" font-size="10.00" fill="#000000">pydeps.</text>
<text text-anchor="middle" x="57" y="-349" font-family="Helvetica,sans-Serif" font-size="10.00" fill="#000000">render_context</text>
</g>
<!-- pydeps_render_context&#45;&gt;pydeps_depgraph2dot -->
<g id="edge4" class="edge"><title>pydeps_render_context&#45;&gt;pydeps_depgraph2dot</title>
<path fill="none" stroke="black" d="M58.8109,-335.718C60.3306,-318.697 62.5248,-294.122 64.2595,-274.694"/>
<polygon fill="black" stroke="black" points="67.7655,-274.782 65.1688,-264.51 60.7932,-274.159 67.7655,-274.782"/>
</g>
<!-- pydeps_py2depgraph -->
<g id="node10" class="node"><title>pydeps_py2depgraph</title>
<ellipse fill="#529fea" stroke="black" cx="178" cy="-129" rx="50.3685" ry="21.4286"/>
<text text-anchor="middle" x="178" y="-132" font-family="Helvetica,sans-Serif" font-size="10.00" fill="#000000">pydeps.</text>
<text text-anchor="middle" x="178" y="-121" font-family="Helvetica,sans-Serif" font-size="10.00" fill="#000000">py2depgraph</text>
</g>
<!-- pydeps_depgraph&#45;&gt;pydeps_py2depgraph -->
<g id="edge16" class="edge"><title>pydeps_depgraph&#45;&gt;pydeps_py2depgraph</title>
<path fill="none" stroke="black" d="M178,-221.718C178,-204.697 178,-180.122 178,-160.694"/>
<polygon fill="black" stroke="black" points="181.5,-160.51 178,-150.51 174.5,-160.51 181.5,-160.51"/>
</g>
<!-- pydeps_py2depgraph&#45;&gt;pydeps_pydeps -->
<g id="edge10" class="edge"><title>pydeps_py2depgraph&#45;&gt;pydeps_pydeps</title>
<path fill="none" stroke="black" d="M178,-107.753C178,-90.4835 178,-65.4968 178,-46.4325"/>
<polygon fill="black" stroke="black" points="181.5,-46.2666 178,-36.2667 174.5,-46.2667 181.5,-46.2666"/>
</g>
<!-- pydeps_dot -->
<g id="node12" class="node"><title>pydeps_dot</title>
<ellipse fill="#529fea" stroke="black" cx="285" cy="-129" rx="37.8969" ry="18"/>
<text text-anchor="middle" x="285" y="-126.5" font-family="Helvetica,sans-Serif" font-size="10.00" fill="#000000">pydeps.dot</text>
</g>
<!-- pydeps_dot&#45;&gt;pydeps_pydeps -->
<g id="edge12" class="edge"><title>pydeps_dot&#45;&gt;pydeps_pydeps</title>
<path fill="none" stroke="black" d="M269.67,-112.383C251.759,-94.1381 221.941,-63.7625 201.195,-42.6285"/>
<polygon fill="black" stroke="black" points="203.504,-39.9844 194.001,-35.3 198.509,-44.8881 203.504,-39.9844"/>
</g>
<!-- pydeps_mf27 -->
<g id="node14" class="node"><title>pydeps_mf27</title>
<ellipse fill="#529fea" stroke="black" cx="278" cy="-243" rx="42.0764" ry="18"/>
<text text-anchor="middle" x="278" y="-240.5" font-family="Helvetica,sans-Serif" font-size="10.00" fill="#000000">pydeps.mf27</text>
</g>
<!-- pydeps_mf27&#45;&gt;pydeps_py2depgraph -->
<g id="edge14" class="edge"><title>pydeps_mf27&#45;&gt;pydeps_py2depgraph</title>
<path fill="none" stroke="black" d="M263.672,-225.953C247.511,-207.853 220.975,-178.132 201.713,-156.558"/>
<polygon fill="black" stroke="black" points="204.249,-154.143 194.978,-149.015 199.027,-158.806 204.249,-154.143"/>
</g>
</g>
</svg>
