<?xml version="1.0" encoding="UTF-8" standalone="no"?>
<!DOCTYPE svg PUBLIC "-//W3C//DTD SVG 1.1//EN"
 "http://www.w3.org/Graphics/SVG/1.1/DTD/svg11.dtd">
<!-- Generated by graphviz version 2.50.0 (20211204.2007)
 -->
<!-- Title: G Pages: 1 -->
<svg width="134pt" height="153pt"
 viewBox="0.00 0.00 134.00 153.00" xmlns="http://www.w3.org/2000/svg" xmlns:xlink="http://www.w3.org/1999/xlink">
<g id="graph0" class="graph" transform="scale(1 1) rotate(0) translate(4 149)">
<title>G</title><style>.edge>path:hover{stroke-width:8}</style>
<polygon fill="white" stroke="transparent" points="-4,4 -4,-149 130,-149 130,4 -4,4"/>
<!-- pydeps -->
<g id="node1" class="node">
<title>pydeps</title><style>.edge>path:hover{stroke-width:8}</style>
<polygon fill="#b34c4c" stroke="black" points="126,-36 123,-40 102,-40 99,-36 72,-36 72,0 126,0 126,-36"/>
<text text-anchor="middle" x="99" y="-15.5" font-family="Helvetica,sans-Serif" font-size="10.00" fill="#ffffff">pydeps</text>
</g>
<!-- stdliblist -->
<g id="node2" class="node">
<title>stdliblist</title><style>.edge>path:hover{stroke-width:8}</style>
<polygon fill="#53b653" stroke="black" points="54,-145 51,-149 30,-149 27,-145 0,-145 0,-109 54,-109 54,-145"/>
<text text-anchor="middle" x="27" y="-124.5" font-family="Helvetica,sans-Serif" font-size="10.00" fill="#000000">stdliblist</text>
</g>
<!-- stdliblist&#45;&gt;pydeps -->
<g id="edge1" class="edge">
<title>stdliblist&#45;&gt;pydeps</title><style>.edge>path:hover{stroke-width:8}</style>
<path fill="none" stroke="black" d="M54.04,-110.83C73.09,-99.35 95.76,-83.78 99,-73"/>
<path fill="none" stroke="black" d="M99,-72C101.46,-63.82 102.13,-54.61 102,-46.18"/>
<polygon fill="#53b653" stroke="black" points="105.48,-45.87 101.46,-36.07 98.49,-46.24 105.48,-45.87"/>
</g>
<!-- yaml -->
<g id="node3" class="node">
<title>yaml</title><style>.edge>path:hover{stroke-width:8}</style>
<polygon fill="#5353b6" stroke="black" points="126,-145 123,-149 102,-149 99,-145 72,-145 72,-109 126,-109 126,-145"/>
<text text-anchor="middle" x="99" y="-124.5" font-family="Helvetica,sans-Serif" font-size="10.00" fill="#ffffff">yaml</text>
</g>
<!-- yaml&#45;&gt;pydeps -->
<g id="edge2" class="edge">
<title>yaml&#45;&gt;pydeps</title><style>.edge>path:hover{stroke-width:8}</style>
<path fill="none" stroke="black" d="M96.54,-108.93C95.61,-98.36 95.51,-84.63 99,-73"/>
</g>
</g>
</svg>
