<?xml version="1.0" encoding="UTF-8" standalone="no"?>
<!DOCTYPE svg PUBLIC "-//W3C//DTD SVG 1.1//EN"
 "http://www.w3.org/Graphics/SVG/1.1/DTD/svg11.dtd">
<!-- Generated by graphviz version 2.38.0 (20140413.2041)
 -->
<!-- Title: G Pages: 1 -->
<svg width="725pt" height="604pt"
 viewBox="0.00 0.00 725.00 604.00" xmlns="http://www.w3.org/2000/svg" xmlns:xlink="http://www.w3.org/1999/xlink">
<g id="graph0" class="graph" transform="scale(1 1) rotate(0) translate(4 600)">
<title>G</title><style>.edge>path:hover{stroke-width:8}</style>
<polygon fill="white" stroke="none" points="-4,4 -4,-600 721,-600 721,4 -4,4"/>
<g id="clust1" class="cluster"><title>cluster_pydeps</title><style>.edge>path:hover{stroke-width:8}</style>
<polygon fill="none" stroke="black" points="62,-8 62,-515 551,-515 551,-8 62,-8"/>
<text text-anchor="middle" x="306.5" y="-499.8" font-family="Times New Roman,serif" font-size="14.00">pydeps</text>
</g>
<g id="clust2" class="cluster"><title>cluster_stdliblist</title><style>.edge>path:hover{stroke-width:8}</style>
<polygon fill="none" stroke="black" points="559,-368 559,-515 709,-515 709,-368 559,-368"/>
<text text-anchor="middle" x="634" y="-499.8" font-family="Times New Roman,serif" font-size="14.00">stdliblist</text>
</g>
<!-- pydeps_render_context -->
<g id="node1" class="node"><title>pydeps_render_context</title><style>.edge>path:hover{stroke-width:8}</style>
<ellipse fill="#47c2c2" stroke="black" cx="434" cy="-322" rx="47.8641" ry="18"/>
<text text-anchor="middle" x="434" y="-319.5" font-family="Helvetica,sans-Serif" font-size="10.00" fill="#000000">render_context</text>
</g>
<!-- pydeps_depgraph2dot -->
<g id="node11" class="node"><title>pydeps_depgraph2dot</title><style>.edge>path:hover{stroke-width:8}</style>
<ellipse fill="#3ab0b0" stroke="black" cx="422" cy="-250" rx="44.3" ry="18"/>
<text text-anchor="middle" x="422" y="-247.5" font-family="Helvetica,sans-Serif" font-size="10.00" fill="#000000">depgraph2dot</text>
</g>
<!-- pydeps_render_context&#45;&gt;pydeps_depgraph2dot -->
<g id="edge22" class="edge"><title>pydeps_render_context&#45;&gt;pydeps_depgraph2dot</title><style>.edge>path:hover{stroke-width:8}</style>
<path fill="none" stroke="black" d="M431.034,-303.697C429.711,-295.983 428.122,-286.712 426.648,-278.112"/>
<polygon fill="#000000" stroke="black" points="430.072,-277.369 424.932,-268.104 423.172,-278.552 430.072,-277.369"/>
</g>
<!-- pydeps_mf27 -->
<g id="node2" class="node"><title>pydeps_mf27</title><style>.edge>path:hover{stroke-width:8}</style>
<ellipse fill="#47c2c2" stroke="black" cx="137" cy="-250" rx="27" ry="18"/>
<text text-anchor="middle" x="137" y="-247.5" font-family="Helvetica,sans-Serif" font-size="10.00" fill="#000000">mf27</text>
</g>
<!-- pydeps_py2depgraph -->
<g id="node15" class="node"><title>pydeps_py2depgraph</title><style>.edge>path:hover{stroke-width:8}</style>
<ellipse fill="#309191" stroke="black" cx="276" cy="-178" rx="42.2678" ry="18"/>
<text text-anchor="middle" x="276" y="-175.5" font-family="Helvetica,sans-Serif" font-size="10.00" fill="#ffffff">py2depgraph</text>
</g>
<!-- pydeps_mf27&#45;&gt;pydeps_py2depgraph -->
<g id="edge15" class="edge"><title>pydeps_mf27&#45;&gt;pydeps_py2depgraph</title><style>.edge>path:hover{stroke-width:8}</style>
<path fill="none" stroke="black" d="M157.81,-238.52C179.664,-227.515 214.427,-210.008 240.605,-196.825"/>
<polygon fill="#000000" stroke="black" points="242.465,-199.807 249.822,-192.183 239.316,-193.555 242.465,-199.807"/>
</g>
<!-- pydeps_pycompat -->
<g id="node3" class="node"><title>pydeps_pycompat</title><style>.edge>path:hover{stroke-width:8}</style>
<ellipse fill="#26d9d9" stroke="black" cx="240" cy="-466" rx="34.9638" ry="18"/>
<text text-anchor="middle" x="240" y="-463.5" font-family="Helvetica,sans-Serif" font-size="10.00" fill="#000000">pycompat</text>
</g>
<!-- pydeps_cli -->
<g id="node6" class="node"><title>pydeps_cli</title><style>.edge>path:hover{stroke-width:8}</style>
<ellipse fill="#17d3d3" stroke="black" cx="212" cy="-322" rx="27" ry="18"/>
<text text-anchor="middle" x="212" y="-319.5" font-family="Helvetica,sans-Serif" font-size="10.00" fill="#000000">cli</text>
</g>
<!-- pydeps_pycompat&#45;&gt;pydeps_cli -->
<g id="edge18" class="edge"><title>pydeps_pycompat&#45;&gt;pydeps_cli</title><style>.edge>path:hover{stroke-width:8}</style>
<path fill="none" stroke="black" d="M222.421,-450.269C212.285,-440.58 200.493,-426.956 195,-412 187.404,-391.318 193.209,-366.626 200.024,-348.502"/>
<polygon fill="#000000" stroke="black" points="203.292,-349.758 203.836,-339.177 196.813,-347.109 203.292,-349.758"/>
</g>
<!-- pydeps_arguments -->
<g id="node8" class="node"><title>pydeps_arguments</title><style>.edge>path:hover{stroke-width:8}</style>
<ellipse fill="#40bfc0" stroke="black" cx="240" cy="-394" rx="36.4942" ry="18"/>
<text text-anchor="middle" x="240" y="-391.5" font-family="Helvetica,sans-Serif" font-size="10.00" fill="#000000">arguments</text>
</g>
<!-- pydeps_pycompat&#45;&gt;pydeps_arguments -->
<g id="edge17" class="edge"><title>pydeps_pycompat&#45;&gt;pydeps_arguments</title><style>.edge>path:hover{stroke-width:8}</style>
<path fill="none" stroke="black" d="M240,-447.697C240,-439.983 240,-430.712 240,-422.112"/>
<polygon fill="#000000" stroke="black" points="243.5,-422.104 240,-412.104 236.5,-422.104 243.5,-422.104"/>
</g>
<!-- pydeps_depgraph -->
<g id="node10" class="node"><title>pydeps_depgraph</title><style>.edge>path:hover{stroke-width:8}</style>
<ellipse fill="#35a1a1" stroke="black" cx="327" cy="-250" rx="32.9303" ry="18"/>
<text text-anchor="middle" x="327" y="-247.5" font-family="Helvetica,sans-Serif" font-size="10.00" fill="#000000">depgraph</text>
</g>
<!-- pydeps_pycompat&#45;&gt;pydeps_depgraph -->
<g id="edge19" class="edge"><title>pydeps_pycompat&#45;&gt;pydeps_depgraph</title><style>.edge>path:hover{stroke-width:8}</style>
<path fill="none" stroke="black" d="M256.633,-449.871C266.412,-440.033 278.163,-426.392 285,-412 305.948,-367.907 291.121,-350.802 305,-304 307.647,-295.075 311.292,-285.605 314.855,-277.176"/>
<polygon fill="#000000" stroke="black" points="318.131,-278.419 318.934,-267.855 311.718,-275.613 318.131,-278.419"/>
</g>
<!-- pydeps_pydeps -->
<g id="node4" class="node"><title>pydeps_pydeps</title><style>.edge>path:hover{stroke-width:8}</style>
<ellipse fill="#339999" stroke="black" cx="189" cy="-106" rx="28.0137" ry="18"/>
<text text-anchor="middle" x="189" y="-103.5" font-family="Helvetica,sans-Serif" font-size="10.00" fill="#ffffff">pydeps</text>
</g>
<!-- pydeps___main__ -->
<g id="node5" class="node"><title>pydeps___main__</title><style>.edge>path:hover{stroke-width:8}</style>
<ellipse fill="#4cb3b3" stroke="black" cx="189" cy="-34" rx="34.9638" ry="18"/>
<text text-anchor="middle" x="189" y="-31.5" font-family="Helvetica,sans-Serif" font-size="10.00" fill="#000000">__main__</text>
</g>
<!-- pydeps_pydeps&#45;&gt;pydeps___main__ -->
<g id="edge20" class="edge"><title>pydeps_pydeps&#45;&gt;pydeps___main__</title><style>.edge>path:hover{stroke-width:8}</style>
<path fill="none" stroke="black" d="M189,-87.6966C189,-79.9827 189,-70.7125 189,-62.1124"/>
<polygon fill="#000000" stroke="black" points="192.5,-62.1043 189,-52.1043 185.5,-62.1044 192.5,-62.1043"/>
</g>
<!-- pydeps_cli&#45;&gt;pydeps_pydeps -->
<g id="edge8" class="edge"><title>pydeps_cli&#45;&gt;pydeps_pydeps</title><style>.edge>path:hover{stroke-width:8}</style>
<path fill="none" stroke="black" d="M185.915,-317.158C157.768,-311.547 113.909,-298.262 91,-268 71.5002,-242.241 83.2275,-228.23 81,-196 79.8968,-180.038 72.5378,-173.579 81,-160 96.437,-135.229 127.203,-121.709 151.963,-114.537"/>
<polygon fill="#000000" stroke="black" points="153.034,-117.874 161.799,-111.922 151.235,-111.109 153.034,-117.874"/>
</g>
<!-- pydeps_dummymodule -->
<g id="node7" class="node"><title>pydeps_dummymodule</title><style>.edge>path:hover{stroke-width:8}</style>
<ellipse fill="#3db8b8" stroke="black" cx="229" cy="-250" rx="47.1863" ry="18"/>
<text text-anchor="middle" x="229" y="-247.5" font-family="Helvetica,sans-Serif" font-size="10.00" fill="#000000">dummymodule</text>
</g>
<!-- pydeps_cli&#45;&gt;pydeps_dummymodule -->
<g id="edge7" class="edge"><title>pydeps_cli&#45;&gt;pydeps_dummymodule</title><style>.edge>path:hover{stroke-width:8}</style>
<path fill="none" stroke="black" d="M216.115,-304.055C218.008,-296.261 220.3,-286.822 222.424,-278.079"/>
<polygon fill="#000000" stroke="black" points="225.846,-278.819 224.805,-268.275 219.043,-277.167 225.846,-278.819"/>
</g>
<!-- pydeps_dot -->
<g id="node9" class="node"><title>pydeps_dot</title><style>.edge>path:hover{stroke-width:8}</style>
<ellipse fill="#3db8b8" stroke="black" cx="117" cy="-178" rx="27" ry="18"/>
<text text-anchor="middle" x="117" y="-175.5" font-family="Helvetica,sans-Serif" font-size="10.00" fill="#000000">dot</text>
</g>
<!-- pydeps_cli&#45;&gt;pydeps_dot -->
<g id="edge6" class="edge"><title>pydeps_cli&#45;&gt;pydeps_dot</title><style>.edge>path:hover{stroke-width:8}</style>
<path fill="none" stroke="black" d="M186.048,-316.755C159.492,-310.878 119.568,-297.442 101,-268 88.9478,-248.89 95.5027,-223.139 103.553,-204.254"/>
<polygon fill="#000000" stroke="black" points="106.778,-205.619 107.809,-195.075 100.427,-202.675 106.778,-205.619"/>
</g>
<!-- pydeps_cli&#45;&gt;pydeps_depgraph -->
<g id="edge5" class="edge"><title>pydeps_cli&#45;&gt;pydeps_depgraph</title><style>.edge>path:hover{stroke-width:8}</style>
<path fill="none" stroke="black" d="M231.248,-309.284C249.183,-298.367 276.205,-281.919 296.974,-269.276"/>
<polygon fill="#000000" stroke="black" points="299.012,-272.133 305.734,-263.944 295.373,-266.154 299.012,-272.133"/>
</g>
<!-- pydeps_dummymodule&#45;&gt;pydeps_py2depgraph -->
<g id="edge14" class="edge"><title>pydeps_dummymodule&#45;&gt;pydeps_py2depgraph</title><style>.edge>path:hover{stroke-width:8}</style>
<path fill="none" stroke="black" d="M240.138,-232.411C245.875,-223.868 252.984,-213.278 259.357,-203.787"/>
<polygon fill="#000000" stroke="black" points="262.273,-205.723 264.942,-195.47 256.461,-201.821 262.273,-205.723"/>
</g>
<!-- pydeps_arguments&#45;&gt;pydeps_cli -->
<g id="edge4" class="edge"><title>pydeps_arguments&#45;&gt;pydeps_cli</title><style>.edge>path:hover{stroke-width:8}</style>
<path fill="none" stroke="black" d="M233.222,-376.055C229.989,-367.973 226.049,-358.121 222.445,-349.112"/>
<polygon fill="#000000" stroke="black" points="225.679,-347.774 218.716,-339.789 219.18,-350.374 225.679,-347.774"/>
</g>
<!-- pydeps_dot&#45;&gt;pydeps_pydeps -->
<g id="edge13" class="edge"><title>pydeps_dot&#45;&gt;pydeps_pydeps</title><style>.edge>path:hover{stroke-width:8}</style>
<path fill="none" stroke="black" d="M131.57,-162.834C141.75,-152.938 155.524,-139.546 167.031,-128.359"/>
<polygon fill="#000000" stroke="black" points="169.474,-130.865 174.204,-121.385 164.595,-125.846 169.474,-130.865"/>
</g>
<!-- pydeps_depgraph&#45;&gt;pydeps_py2depgraph -->
<g id="edge11" class="edge"><title>pydeps_depgraph&#45;&gt;pydeps_py2depgraph</title><style>.edge>path:hover{stroke-width:8}</style>
<path fill="none" stroke="black" d="M315.427,-233.116C309.063,-224.38 301.028,-213.353 293.876,-203.535"/>
<polygon fill="#000000" stroke="black" points="296.598,-201.328 287.881,-195.307 290.941,-205.45 296.598,-201.328"/>
</g>
<!-- pydeps_depgraph2dot&#45;&gt;pydeps_pydeps -->
<g id="edge12" class="edge"><title>pydeps_depgraph2dot&#45;&gt;pydeps_pydeps</title><style>.edge>path:hover{stroke-width:8}</style>
<path fill="none" stroke="black" d="M408.366,-232.867C391.134,-213.337 359.748,-180.52 327,-160 294.706,-139.765 253.445,-125.172 224.486,-116.485"/>
<polygon fill="#000000" stroke="black" points="225.37,-113.097 214.79,-113.658 223.411,-119.817 225.37,-113.097"/>
</g>
<!-- pydeps_pystdlib -->
<g id="node12" class="node"><title>pydeps_pystdlib</title><style>.edge>path:hover{stroke-width:8}</style>
<ellipse fill="#40bfc0" stroke="black" cx="514" cy="-250" rx="29.3664" ry="18"/>
<text text-anchor="middle" x="514" y="-247.5" font-family="Helvetica,sans-Serif" font-size="10.00" fill="#000000">pystdlib</text>
</g>
<!-- pydeps_pystdlib&#45;&gt;pydeps_py2depgraph -->
<g id="edge21" class="edge"><title>pydeps_pystdlib&#45;&gt;pydeps_py2depgraph</title><style>.edge>path:hover{stroke-width:8}</style>
<path fill="none" stroke="black" d="M491.132,-238.348C485.891,-236.099 480.3,-233.849 475,-232 423.807,-214.14 363.434,-198.841 322.721,-189.337"/>
<polygon fill="#000000" stroke="black" points="323.343,-185.888 312.812,-187.047 321.767,-192.709 323.343,-185.888"/>
</g>
<!-- pydeps_target -->
<g id="node13" class="node"><title>pydeps_target</title><style>.edge>path:hover{stroke-width:8}</style>
<ellipse fill="#47c2c2" stroke="black" cx="189" cy="-178" rx="27" ry="18"/>
<text text-anchor="middle" x="189" y="-175.5" font-family="Helvetica,sans-Serif" font-size="10.00" fill="#000000">target</text>
</g>
<!-- pydeps_target&#45;&gt;pydeps_pydeps -->
<g id="edge23" class="edge"><title>pydeps_target&#45;&gt;pydeps_pydeps</title><style>.edge>path:hover{stroke-width:8}</style>
<path fill="none" stroke="black" d="M189,-159.697C189,-151.983 189,-142.712 189,-134.112"/>
<polygon fill="#000000" stroke="black" points="192.5,-134.104 189,-124.104 185.5,-134.104 192.5,-134.104"/>
</g>
<!-- pydeps_colors -->
<g id="node14" class="node"><title>pydeps_colors</title><style>.edge>path:hover{stroke-width:8}</style>
<ellipse fill="#3bcece" stroke="black" cx="341" cy="-322" rx="27" ry="18"/>
<text text-anchor="middle" x="341" y="-319.5" font-family="Helvetica,sans-Serif" font-size="10.00" fill="#000000">colors</text>
</g>
<!-- pydeps_colors&#45;&gt;pydeps_depgraph -->
<g id="edge9" class="edge"><title>pydeps_colors&#45;&gt;pydeps_depgraph</title><style>.edge>path:hover{stroke-width:8}</style>
<path fill="none" stroke="black" d="M337.611,-304.055C336.069,-296.346 334.205,-287.027 332.473,-278.364"/>
<polygon fill="#000000" stroke="black" points="335.848,-277.395 330.455,-268.275 328.984,-278.768 335.848,-277.395"/>
</g>
<!-- pydeps_colors&#45;&gt;pydeps_depgraph2dot -->
<g id="edge10" class="edge"><title>pydeps_colors&#45;&gt;pydeps_depgraph2dot</title><style>.edge>path:hover{stroke-width:8}</style>
<path fill="none" stroke="black" d="M357.003,-307.17C368.228,-297.469 383.475,-284.293 396.38,-273.14"/>
<polygon fill="#000000" stroke="black" points="398.779,-275.694 404.056,-266.507 394.202,-270.397 398.779,-275.694"/>
</g>
<!-- pydeps_py2depgraph&#45;&gt;pydeps_pydeps -->
<g id="edge16" class="edge"><title>pydeps_py2depgraph&#45;&gt;pydeps_pydeps</title><style>.edge>path:hover{stroke-width:8}</style>
<path fill="none" stroke="black" d="M257.122,-161.811C244.458,-151.622 227.643,-138.092 213.887,-127.024"/>
<polygon fill="#000000" stroke="black" points="215.768,-124.045 205.783,-120.503 211.38,-129.499 215.768,-124.045"/>
</g>
<!-- stdlib_list__version -->
<g id="node16" class="node"><title>stdlib_list__version</title><style>.edge>path:hover{stroke-width:8}</style>
<ellipse fill="#5353b6" stroke="black" cx="670" cy="-466" rx="30.7213" ry="18"/>
<text text-anchor="middle" x="670" y="-463.5" font-family="Helvetica,sans-Serif" font-size="10.00" fill="#ffffff">_version</text>
</g>
<!-- stdlib_list -->
<g id="node17" class="node"><title>stdlib_list</title><style>.edge>path:hover{stroke-width:8}</style>
<ellipse fill="#3d3db8" stroke="black" cx="601" cy="-394" rx="34.2855" ry="18"/>
<text text-anchor="middle" x="601" y="-391.5" font-family="Helvetica,sans-Serif" font-size="10.00" fill="#ffffff">stdlib_list</text>
</g>
<!-- stdlib_list__version&#45;&gt;stdlib_list -->
<g id="edge25" class="edge"><title>stdlib_list__version&#45;&gt;stdlib_list</title><style>.edge>path:hover{stroke-width:8}</style>
<path fill="none" stroke="black" d="M655.367,-450.155C646.072,-440.725 633.858,-428.334 623.362,-417.686"/>
<polygon fill="#000000" stroke="black" points="625.602,-414.972 616.089,-410.308 620.616,-419.887 625.602,-414.972"/>
</g>
<!-- stdlib_list&#45;&gt;pydeps_pystdlib -->
<g id="edge24" class="edge"><title>stdlib_list&#45;&gt;pydeps_pystdlib</title><style>.edge>path:hover{stroke-width:8}</style>
<path fill="none" stroke="black" d="M573.317,-368.18C567.76,-362.541 562.061,-356.263 556.945,-349.702"/>
<polygon fill="#000000" stroke="black" points="559.589,-347.385 550.885,-341.344 553.922,-351.495 559.589,-347.385"/>
</g>
<!-- stdlib_list_base -->
<g id="node18" class="node"><title>stdlib_list_base</title><style>.edge>path:hover{stroke-width:8}</style>
<ellipse fill="#4c4cb3" stroke="black" cx="594" cy="-466" rx="27" ry="18"/>
<text text-anchor="middle" x="594" y="-463.5" font-family="Helvetica,sans-Serif" font-size="10.00" fill="#ffffff">base</text>
</g>
<!-- stdlib_list_base&#45;&gt;stdlib_list -->
<g id="edge26" class="edge"><title>stdlib_list_base&#45;&gt;stdlib_list</title><style>.edge>path:hover{stroke-width:8}</style>
<path fill="none" stroke="black" d="M595.73,-447.697C596.502,-439.983 597.429,-430.712 598.289,-422.112"/>
<polygon fill="#000000" stroke="black" points="601.777,-422.403 599.29,-412.104 594.812,-421.706 601.777,-422.403"/>
</g>
<!-- configparser -->
<g id="node19" class="node"><title>configparser</title><style>.edge>path:hover{stroke-width:8}</style>
<ellipse fill="#b6b653" stroke="black" cx="240" cy="-578" rx="40.7358" ry="18"/>
<text text-anchor="middle" x="240" y="-575.5" font-family="Helvetica,sans-Serif" font-size="10.00" fill="#000000">configparser</text>
</g>
<!-- configparser&#45;&gt;pydeps_pycompat -->
<g id="edge1" class="edge"><title>configparser&#45;&gt;pydeps_pycompat</title><style>.edge>path:hover{stroke-width:8}</style>
<path fill="none" stroke="black" d="M240,-559.813C240,-550.266 240,-537.774 240,-525.063"/>
<polygon fill="#b6b653" stroke="black" points="243.5,-524.874 240,-514.874 236.5,-524.874 243.5,-524.874"/>
</g>
<!-- enum -->
<g id="node20" class="node"><title>enum</title><style>.edge>path:hover{stroke-width:8}</style>
<ellipse fill="#47c247" stroke="black" cx="27" cy="-394" rx="27" ry="18"/>
<text text-anchor="middle" x="27" y="-391.5" font-family="Helvetica,sans-Serif" font-size="10.00" fill="#000000">enum</text>
</g>
<!-- enum&#45;&gt;pydeps_depgraph -->
<g id="edge2" class="edge"><title>enum&#45;&gt;pydeps_depgraph</title><style>.edge>path:hover{stroke-width:8}</style>
<path fill="none" stroke="black" d="M42.9876,-379.191C46.0746,-376.692 49.3947,-374.106 53.951,-370.867"/>
<polygon fill="#47c247" stroke="black" points="56.007,-373.701 62.2727,-365.158 52.0467,-367.929 56.007,-373.701"/>
</g>
<!-- enum&#45;&gt;pydeps_py2depgraph -->
<g id="edge3" class="edge"><title>enum&#45;&gt;pydeps_py2depgraph</title><style>.edge>path:hover{stroke-width:8}</style>
<path fill="none" stroke="black" d="M29.9637,-376.099C33.9001,-356.676 42.2434,-323.341 57.8003,-291.296"/>
<polygon fill="#47c247" stroke="black" points="60.9602,-292.804 62.3818,-282.305 54.7232,-289.626 60.9602,-292.804"/>
</g>
<!-- yaml -->
<g id="node21" class="node"><title>yaml</title><style>.edge>path:hover{stroke-width:8}</style>
<polygon fill="#ac49ac" stroke="black" points="613,-340 610,-344 589,-344 586,-340 559,-340 559,-304 613,-304 613,-340"/>
<text text-anchor="middle" x="586" y="-319.5" font-family="Helvetica,sans-Serif" font-size="10.00" fill="#ffffff">yaml</text>
</g>
<!-- yaml&#45;&gt;pydeps_py2depgraph -->
<g id="edge27" class="edge"><title>yaml&#45;&gt;pydeps_py2depgraph</title><style>.edge>path:hover{stroke-width:8}</style>
<path fill="none" stroke="black" d="M584.362,-303.733C581.797,-285.691 575.277,-257.45 557.968,-238.004"/>
<polygon fill="#ac49ac" stroke="black" points="560.399,-235.487 550.791,-231.022 555.518,-240.504 560.399,-235.487"/>
</g>
</g>
</svg>
