<?xml version="1.0" encoding="UTF-8" standalone="no"?>
<!DOCTYPE svg PUBLIC "-//W3C//DTD SVG 1.1//EN"
 "http://www.w3.org/Graphics/SVG/1.1/DTD/svg11.dtd">
<!-- Generated by graphviz version 2.38.0 (20140413.2041)
 -->
<!-- Title: G Pages: 1 -->
<svg width="713pt" height="515pt"
 viewBox="0.00 0.00 713.28 514.56" xmlns="http://www.w3.org/2000/svg" xmlns:xlink="http://www.w3.org/1999/xlink">
<g id="graph0" class="graph" transform="scale(1 1) rotate(0) translate(4 510.558)">
<title>G</title><style>.edge>path:hover{stroke-width:8}</style>
<polygon fill="white" stroke="none" points="-4,4 -4,-510.558 709.276,-510.558 709.276,4 -4,4"/>
<!-- pydeps___main__ -->
<g id="node1" class="node"><title>pydeps___main__</title><style>.edge>path:hover{stroke-width:8}</style>
<ellipse fill="#b34c4c" stroke="black" cx="369.276" cy="-21.2132" rx="41.9398" ry="21.4286"/>
<text text-anchor="middle" x="369.276" y="-24.2132" font-family="Helvetica,sans-Serif" font-size="10.00" fill="#ffffff">pydeps.</text>
<text text-anchor="middle" x="369.276" y="-13.2132" font-family="Helvetica,sans-Serif" font-size="10.00" fill="#ffffff">__main__</text>
</g>
<!-- pydeps_arguments -->
<g id="node2" class="node"><title>pydeps_arguments</title><style>.edge>path:hover{stroke-width:8}</style>
<ellipse fill="#c04040" stroke="black" cx="323.276" cy="-406.919" rx="43.6818" ry="21.4286"/>
<text text-anchor="middle" x="323.276" y="-409.919" font-family="Helvetica,sans-Serif" font-size="10.00" fill="#ffffff">pydeps.</text>
<text text-anchor="middle" x="323.276" y="-398.919" font-family="Helvetica,sans-Serif" font-size="10.00" fill="#ffffff">arguments</text>
</g>
<!-- pydeps_cli -->
<g id="node3" class="node"><title>pydeps_cli</title><style>.edge>path:hover{stroke-width:8}</style>
<ellipse fill="#dd1818" stroke="black" cx="320.276" cy="-328.492" rx="35.8171" ry="18"/>
<text text-anchor="middle" x="320.276" y="-325.992" font-family="Helvetica,sans-Serif" font-size="10.00" fill="#ffffff">pydeps.cli</text>
</g>
<!-- pydeps_arguments&#45;&gt;pydeps_cli -->
<g id="edge1" class="edge"><title>pydeps_arguments&#45;&gt;pydeps_cli</title><style>.edge>path:hover{stroke-width:8}</style>
<path fill="none" stroke="black" d="M322.472,-385.438C322.129,-376.7 321.723,-366.372 321.355,-356.984"/>
<polygon fill="#c04040" stroke="black" points="324.849,-356.773 320.96,-346.918 317.855,-357.048 324.849,-356.773"/>
</g>
<!-- pydeps_depgraph -->
<g id="node5" class="node"><title>pydeps_depgraph</title><style>.edge>path:hover{stroke-width:8}</style>
<ellipse fill="#a83838" stroke="black" cx="248.276" cy="-250.066" rx="39.6962" ry="21.4286"/>
<text text-anchor="middle" x="248.276" y="-253.066" font-family="Helvetica,sans-Serif" font-size="10.00" fill="#ffffff">pydeps.</text>
<text text-anchor="middle" x="248.276" y="-242.066" font-family="Helvetica,sans-Serif" font-size="10.00" fill="#ffffff">depgraph</text>
</g>
<!-- pydeps_cli&#45;&gt;pydeps_depgraph -->
<g id="edge2" class="edge"><title>pydeps_cli&#45;&gt;pydeps_depgraph</title><style>.edge>path:hover{stroke-width:8}</style>
<path fill="none" stroke="black" d="M305.705,-312.026C296.2,-301.937 283.56,-288.52 272.559,-276.843"/>
<polygon fill="#dd1818" stroke="black" points="275.021,-274.351 265.616,-269.472 269.926,-279.151 275.021,-274.351"/>
</g>
<!-- pydeps_dot -->
<g id="node7" class="node"><title>pydeps_dot</title><style>.edge>path:hover{stroke-width:8}</style>
<ellipse fill="#b83d3d" stroke="black" cx="316.276" cy="-171.64" rx="38.0276" ry="18"/>
<text text-anchor="middle" x="316.276" y="-169.14" font-family="Helvetica,sans-Serif" font-size="10.00" fill="#ffffff">pydeps.dot</text>
</g>
<!-- pydeps_cli&#45;&gt;pydeps_dot -->
<g id="edge3" class="edge"><title>pydeps_cli&#45;&gt;pydeps_dot</title><style>.edge>path:hover{stroke-width:8}</style>
<path fill="none" stroke="black" d="M316.276,-249.066C311.203,-233.313 311.073,-214.769 312.274,-199.892"/>
<polygon fill="#dd1818" stroke="black" points="315.77,-200.11 313.332,-189.8 308.809,-199.38 315.77,-200.11"/>
</g>
<!-- pydeps_dummymodule -->
<g id="node8" class="node"><title>pydeps_dummymodule</title><style>.edge>path:hover{stroke-width:8}</style>
<ellipse fill="#b83d3d" stroke="black" cx="503.276" cy="-250.066" rx="56.6372" ry="21.4286"/>
<text text-anchor="middle" x="503.276" y="-253.066" font-family="Helvetica,sans-Serif" font-size="10.00" fill="#ffffff">pydeps.</text>
<text text-anchor="middle" x="503.276" y="-242.066" font-family="Helvetica,sans-Serif" font-size="10.00" fill="#ffffff">dummymodule</text>
</g>
<!-- pydeps_cli&#45;&gt;pydeps_dummymodule -->
<g id="edge4" class="edge"><title>pydeps_cli&#45;&gt;pydeps_dummymodule</title><style>.edge>path:hover{stroke-width:8}</style>
<path fill="none" stroke="black" d="M346.885,-316.379C375.7,-304.346 422.202,-284.925 457.023,-270.383"/>
<polygon fill="#dd1818" stroke="black" points="458.631,-273.504 466.509,-266.421 455.933,-267.045 458.631,-273.504"/>
</g>
<!-- pydeps_pydeps -->
<g id="node12" class="node"><title>pydeps_pydeps</title><style>.edge>path:hover{stroke-width:8}</style>
<ellipse fill="#913030" stroke="black" cx="369.276" cy="-96.4264" rx="48.7185" ry="18"/>
<text text-anchor="middle" x="369.276" y="-93.9264" font-family="Helvetica,sans-Serif" font-size="10.00" fill="#ffffff">pydeps.pydeps</text>
</g>
<!-- pydeps_cli&#45;&gt;pydeps_pydeps -->
<g id="edge5" class="edge"><title>pydeps_cli&#45;&gt;pydeps_pydeps</title><style>.edge>path:hover{stroke-width:8}</style>
<path fill="none" stroke="black" d="M321.847,-310.345C322.723,-294.551 322.588,-270.669 316.276,-251.066"/>
<path fill="none" stroke="black" d="M316.276,-249.066C299.022,-195.483 180.632,-217.008 215.276,-172.64"/>
</g>
<!-- pydeps_colors -->
<g id="node4" class="node"><title>pydeps_colors</title><style>.edge>path:hover{stroke-width:8}</style>
<ellipse fill="#db2f2f" stroke="black" cx="178.276" cy="-328.492" rx="45.1548" ry="18"/>
<text text-anchor="middle" x="178.276" y="-325.992" font-family="Helvetica,sans-Serif" font-size="10.00" fill="#ffffff">pydeps.colors</text>
</g>
<!-- pydeps_colors&#45;&gt;pydeps_depgraph -->
<g id="edge6" class="edge"><title>pydeps_colors&#45;&gt;pydeps_depgraph</title><style>.edge>path:hover{stroke-width:8}</style>
<path fill="none" stroke="black" d="M193.121,-311.284C202.251,-301.316 214.157,-288.317 224.569,-276.949"/>
<polygon fill="#db2f2f" stroke="black" points="227.313,-279.135 231.487,-269.396 222.151,-274.407 227.313,-279.135"/>
</g>
<!-- pydeps_depgraph2dot -->
<g id="node6" class="node"><title>pydeps_depgraph2dot</title><style>.edge>path:hover{stroke-width:8}</style>
<ellipse fill="#b03a3a" stroke="black" cx="99.2756" cy="-250.066" rx="53.066" ry="21.4286"/>
<text text-anchor="middle" x="99.2756" y="-253.066" font-family="Helvetica,sans-Serif" font-size="10.00" fill="#ffffff">pydeps.</text>
<text text-anchor="middle" x="99.2756" y="-242.066" font-family="Helvetica,sans-Serif" font-size="10.00" fill="#ffffff">depgraph2dot</text>
</g>
<!-- pydeps_colors&#45;&gt;pydeps_depgraph2dot -->
<g id="edge7" class="edge"><title>pydeps_colors&#45;&gt;pydeps_depgraph2dot</title><style>.edge>path:hover{stroke-width:8}</style>
<path fill="none" stroke="black" d="M161.907,-311.657C151.6,-301.686 138.05,-288.577 126.19,-277.103"/>
<polygon fill="#db2f2f" stroke="black" points="128.312,-274.287 118.691,-269.849 123.445,-279.318 128.312,-274.287"/>
</g>
<!-- pydeps_colors&#45;&gt;pydeps_pydeps -->
<g id="edge8" class="edge"><title>pydeps_colors&#45;&gt;pydeps_pydeps</title><style>.edge>path:hover{stroke-width:8}</style>
<path fill="none" stroke="black" d="M177.941,-310.176C178.229,-279.283 182.954,-214.034 215.276,-172.64"/>
</g>
<!-- pydeps_py2depgraph -->
<g id="node10" class="node"><title>pydeps_py2depgraph</title><style>.edge>path:hover{stroke-width:8}</style>
<ellipse fill="#993333" stroke="black" cx="423.276" cy="-171.64" rx="50.8235" ry="21.4286"/>
<text text-anchor="middle" x="423.276" y="-174.64" font-family="Helvetica,sans-Serif" font-size="10.00" fill="#ffffff">pydeps.</text>
<text text-anchor="middle" x="423.276" y="-163.64" font-family="Helvetica,sans-Serif" font-size="10.00" fill="#ffffff">py2depgraph</text>
</g>
<!-- pydeps_depgraph&#45;&gt;pydeps_py2depgraph -->
<g id="edge9" class="edge"><title>pydeps_depgraph&#45;&gt;pydeps_py2depgraph</title><style>.edge>path:hover{stroke-width:8}</style>
<path fill="none" stroke="black" d="M278.359,-235.928C306.257,-223.744 348.095,-205.473 379.657,-191.689"/>
<polygon fill="#a83838" stroke="black" points="381.331,-194.777 389.095,-187.567 378.53,-188.362 381.331,-194.777"/>
</g>
<!-- pydeps_depgraph2dot&#45;&gt;pydeps_pydeps -->
<g id="edge10" class="edge"><title>pydeps_depgraph2dot&#45;&gt;pydeps_pydeps</title><style>.edge>path:hover{stroke-width:8}</style>
<path fill="none" stroke="black" d="M215.276,-170.64C240.646,-138.147 283.983,-119.341 318.234,-108.945"/>
<polygon fill="#b03a3a" stroke="black" points="319.444,-112.239 328.085,-106.107 317.507,-105.512 319.444,-112.239"/>
<path fill="none" stroke="black" d="M133.917,-233.833C159.635,-220.916 193.828,-200.107 215.276,-172.64"/>
</g>
<!-- pydeps_dot&#45;&gt;pydeps_pydeps -->
<g id="edge11" class="edge"><title>pydeps_dot&#45;&gt;pydeps_pydeps</title><style>.edge>path:hover{stroke-width:8}</style>
<path fill="none" stroke="black" d="M328.038,-154.391C334.872,-144.951 343.624,-132.862 351.305,-122.251"/>
<polygon fill="#b83d3d" stroke="black" points="354.15,-124.29 357.179,-114.137 348.48,-120.185 354.15,-124.29"/>
</g>
<!-- pydeps_dummymodule&#45;&gt;pydeps_py2depgraph -->
<g id="edge12" class="edge"><title>pydeps_dummymodule&#45;&gt;pydeps_py2depgraph</title><style>.edge>path:hover{stroke-width:8}</style>
<path fill="none" stroke="black" d="M483.5,-230.174C473.425,-220.549 461.027,-208.704 450.103,-198.269"/>
<polygon fill="#b83d3d" stroke="black" points="452.472,-195.691 442.823,-191.314 447.636,-200.753 452.472,-195.691"/>
</g>
<!-- pydeps_mf27 -->
<g id="node9" class="node"><title>pydeps_mf27</title><style>.edge>path:hover{stroke-width:8}</style>
<ellipse fill="#c24747" stroke="black" cx="386.276" cy="-250.066" rx="42.2678" ry="18"/>
<text text-anchor="middle" x="386.276" y="-247.566" font-family="Helvetica,sans-Serif" font-size="10.00" fill="#ffffff">pydeps.mf27</text>
</g>
<!-- pydeps_mf27&#45;&gt;pydeps_py2depgraph -->
<g id="edge13" class="edge"><title>pydeps_mf27&#45;&gt;pydeps_py2depgraph</title><style>.edge>path:hover{stroke-width:8}</style>
<path fill="none" stroke="black" d="M394.487,-232.105C398.823,-223.148 404.264,-211.909 409.246,-201.619"/>
<polygon fill="#c24747" stroke="black" points="412.439,-203.055 413.646,-192.53 406.139,-200.005 412.439,-203.055"/>
</g>
<!-- pydeps_py2depgraph&#45;&gt;pydeps_pydeps -->
<g id="edge14" class="edge"><title>pydeps_py2depgraph&#45;&gt;pydeps_pydeps</title><style>.edge>path:hover{stroke-width:8}</style>
<path fill="none" stroke="black" d="M408.805,-151.02C402.299,-142.199 394.546,-131.687 387.636,-122.32"/>
<polygon fill="#993333" stroke="black" points="390.341,-120.09 381.588,-114.12 384.707,-124.245 390.341,-120.09"/>
</g>
<!-- pydeps_pycompat -->
<g id="node11" class="node"><title>pydeps_pycompat</title><style>.edge>path:hover{stroke-width:8}</style>
<ellipse fill="#ce3b3b" stroke="black" cx="287.276" cy="-485.345" rx="41.9398" ry="21.4286"/>
<text text-anchor="middle" x="287.276" y="-488.345" font-family="Helvetica,sans-Serif" font-size="10.00" fill="#ffffff">pydeps.</text>
<text text-anchor="middle" x="287.276" y="-477.345" font-family="Helvetica,sans-Serif" font-size="10.00" fill="#ffffff">pycompat</text>
</g>
<!-- pydeps_pycompat&#45;&gt;pydeps_arguments -->
<g id="edge15" class="edge"><title>pydeps_pycompat&#45;&gt;pydeps_arguments</title><style>.edge>path:hover{stroke-width:8}</style>
<path fill="none" stroke="black" d="M296.734,-464.265C300.661,-455.928 305.295,-446.091 309.582,-436.99"/>
<polygon fill="#ce3b3b" stroke="black" points="312.785,-438.403 313.88,-427.865 306.453,-435.42 312.785,-438.403"/>
</g>
<!-- pydeps_pycompat&#45;&gt;pydeps_depgraph -->
<g id="edge16" class="edge"><title>pydeps_pycompat&#45;&gt;pydeps_depgraph</title><style>.edge>path:hover{stroke-width:8}</style>
<path fill="none" stroke="black" d="M280.296,-464.266C276.834,-453.638 272.852,-440.301 270.276,-428.132 259.518,-377.323 253.415,-317.12 250.484,-281.62"/>
<polygon fill="#ce3b3b" stroke="black" points="253.956,-281.125 249.674,-271.433 246.978,-281.679 253.956,-281.125"/>
</g>
<!-- pydeps_pydeps&#45;&gt;pydeps___main__ -->
<g id="edge17" class="edge"><title>pydeps_pydeps&#45;&gt;pydeps___main__</title><style>.edge>path:hover{stroke-width:8}</style>
<path fill="none" stroke="black" d="M369.276,-78.0759C369.276,-70.5002 369.276,-61.3864 369.276,-52.7384"/>
<polygon fill="#913030" stroke="black" points="372.776,-52.5555 369.276,-42.5555 365.776,-52.5555 372.776,-52.5555"/>
</g>
<!-- pydeps_pystdlib -->
<g id="node13" class="node"><title>pydeps_pystdlib</title><style>.edge>path:hover{stroke-width:8}</style>
<ellipse fill="#c04040" stroke="black" cx="614.276" cy="-250.066" rx="36.125" ry="21.4286"/>
<text text-anchor="middle" x="614.276" y="-253.066" font-family="Helvetica,sans-Serif" font-size="10.00" fill="#ffffff">pydeps.</text>
<text text-anchor="middle" x="614.276" y="-242.066" font-family="Helvetica,sans-Serif" font-size="10.00" fill="#ffffff">pystdlib</text>
</g>
<!-- pydeps_pystdlib&#45;&gt;pydeps_py2depgraph -->
<g id="edge18" class="edge"><title>pydeps_pystdlib&#45;&gt;pydeps_py2depgraph</title><style>.edge>path:hover{stroke-width:8}</style>
<path fill="none" stroke="black" d="M586.293,-236.212C580.682,-233.715 574.809,-231.159 569.276,-228.853 536.277,-215.101 498.616,-200.63 469.81,-189.815"/>
<polygon fill="#c04040" stroke="black" points="470.993,-186.521 460.4,-186.294 468.539,-193.077 470.993,-186.521"/>
</g>
<!-- pydeps_render_context -->
<g id="node14" class="node"><title>pydeps_render_context</title><style>.edge>path:hover{stroke-width:8}</style>
<ellipse fill="#c24747" stroke="black" cx="57.2756" cy="-328.492" rx="57.0522" ry="21.4286"/>
<text text-anchor="middle" x="57.2756" y="-331.492" font-family="Helvetica,sans-Serif" font-size="10.00" fill="#ffffff">pydeps.</text>
<text text-anchor="middle" x="57.2756" y="-320.492" font-family="Helvetica,sans-Serif" font-size="10.00" fill="#ffffff">render_context</text>
</g>
<!-- pydeps_render_context&#45;&gt;pydeps_depgraph2dot -->
<g id="edge19" class="edge"><title>pydeps_render_context&#45;&gt;pydeps_depgraph2dot</title><style>.edge>path:hover{stroke-width:8}</style>
<path fill="none" stroke="black" d="M68.3107,-307.412C72.9407,-298.987 78.412,-289.031 83.4576,-279.85"/>
<polygon fill="#c24747" stroke="black" points="86.5655,-281.462 88.3143,-271.012 80.4308,-278.09 86.5655,-281.462"/>
</g>
<!-- pydeps_target -->
<g id="node15" class="node"><title>pydeps_target</title><style>.edge>path:hover{stroke-width:8}</style>
<ellipse fill="#c24747" stroke="black" cx="537.276" cy="-171.64" rx="44.978" ry="18"/>
<text text-anchor="middle" x="537.276" y="-169.14" font-family="Helvetica,sans-Serif" font-size="10.00" fill="#ffffff">pydeps.target</text>
</g>
<!-- pydeps_target&#45;&gt;pydeps_pydeps -->
<g id="edge20" class="edge"><title>pydeps_target&#45;&gt;pydeps_pydeps</title><style>.edge>path:hover{stroke-width:8}</style>
<path fill="none" stroke="black" d="M508.012,-157.887C480.612,-145.946 439.45,-128.008 409.073,-114.77"/>
<polygon fill="#c24747" stroke="black" points="410.186,-111.437 399.62,-110.65 407.389,-117.854 410.186,-111.437"/>
</g>
<!-- stdlib_list -->
<g id="node16" class="node"><title>stdlib_list</title><style>.edge>path:hover{stroke-width:8}</style>
<ellipse fill="#53b653" stroke="black" cx="614.276" cy="-406.919" rx="34.2855" ry="18"/>
<text text-anchor="middle" x="614.276" y="-404.419" font-family="Helvetica,sans-Serif" font-size="10.00" fill="#000000">stdlib_list</text>
</g>
<!-- stdlib_list&#45;&gt;pydeps_pystdlib -->
<g id="edge21" class="edge"><title>stdlib_list&#45;&gt;pydeps_pystdlib</title><style>.edge>path:hover{stroke-width:8}</style>
<path fill="none" stroke="black" d="M614.276,-388.755C614.276,-362.932 614.276,-313.704 614.276,-281.646"/>
<polygon fill="#53b653" stroke="black" points="617.776,-281.491 614.276,-271.491 610.776,-281.491 617.776,-281.491"/>
</g>
<!-- yaml -->
<g id="node17" class="node"><title>yaml</title><style>.edge>path:hover{stroke-width:8}</style>
<ellipse fill="#5353b6" stroke="black" cx="678.276" cy="-328.492" rx="27" ry="18"/>
<text text-anchor="middle" x="678.276" y="-325.992" font-family="Helvetica,sans-Serif" font-size="10.00" fill="#ffffff">yaml</text>
</g>
<!-- yaml&#45;&gt;pydeps_py2depgraph -->
<g id="edge22" class="edge"><title>yaml&#45;&gt;pydeps_py2depgraph</title><style>.edge>path:hover{stroke-width:8}</style>
<path fill="none" stroke="black" d="M680.243,-310.257C681.72,-288.247 680.609,-250.433 659.276,-228.853 603.144,-172.073 560.365,-213.637 483.276,-192.853 479.157,-191.742 474.907,-190.504 470.662,-189.202"/>
<polygon fill="#5353b6" stroke="black" points="471.417,-185.769 460.827,-186.079 469.298,-192.441 471.417,-185.769"/>
</g>
</g>
</svg>
