<?xml version="1.0" encoding="UTF-8" standalone="no"?>
<!DOCTYPE svg PUBLIC "-//W3C//DTD SVG 1.1//EN" "http://www.w3.org/Graphics/SVG/1.1/DTD/svg11.dtd">
<!-- Generated by graphviz version 2.28.0 (20110507.0327)
 -->
<!-- Title: G Pages: 1 -->
<svg width="72pt" height="116pt" viewBox="0.00 0.00 72.00 116.00" xmlns="http://www.w3.org/2000/svg" xmlns:xlink="http://www.w3.org/1999/xlink">
<g id="graph1" class="graph" transform="scale(1 1) rotate(0) translate(4 112)">
<title>G</title>
<polygon fill="white" stroke="white" points="-4,5 -4,-112 69,-112 69,5 -4,5"/>
<!-- relimp_b -->
<g id="node1" class="node"><title>relimp_b</title>
<polygon fill="#23b36b" stroke="black" points="64.2431,-82.5442 64.2431,-97.4558 45.3555,-108 18.6445,-108 -0.243096,-97.4558 -0.243096,-82.5442 18.6445,-72 45.3555,-72 64.2431,-82.5442"/>
<text text-anchor="middle" x="32" y="-87.5" font-family="Helvetica,sans-Serif" font-size="10.00" fill="#ffffff">relimp.b</text>
</g>
<!-- relimp_a -->
<g id="node3" class="node"><title>relimp_a</title>
<polygon fill="#23b36b" stroke="black" points="64.2431,-10.5442 64.2431,-25.4558 45.3555,-36 18.6445,-36 -0.243096,-25.4558 -0.243096,-10.5442 18.6445,-3.55271e-015 45.3555,-0 64.2431,-10.5442"/>
<text text-anchor="middle" x="32" y="-15.5" font-family="Helvetica,sans-Serif" font-size="10.00" fill="#ffffff">relimp.a</text>
</g>
<!-- relimp_b&#45;&gt;relimp_a -->
<g id="edge2" class="edge"><title>relimp_b-&gt;relimp_a</title>
<path fill="none" stroke="black" d="M26.0843,-71.6966C25.2886,-63.9827 25.0621,-54.7125 25.4047,-46.1124"/>
<polygon fill="black" stroke="black" points="28.8984,-46.3243 26.105,-36.1043 21.9154,-45.8356 28.8984,-46.3243"/>
</g>
<!-- relimp_a&#45;&gt;relimp_b -->
<g id="edge4" class="edge"><title>relimp_a-&gt;relimp_b</title>
<path fill="none" stroke="black" d="M37.895,-36.1043C38.7005,-43.7913 38.9369,-53.0537 38.604,-61.6651"/>
<polygon fill="black" stroke="black" points="35.1085,-61.4805 37.9157,-71.6966 42.0921,-61.9597 35.1085,-61.4805"/>
</g>
</g>
</svg>