<?xml version="1.0" encoding="UTF-8" standalone="no"?>
<!DOCTYPE svg PUBLIC "-//W3C//DTD SVG 1.1//EN"
 "http://www.w3.org/Graphics/SVG/1.1/DTD/svg11.dtd">
<!-- Generated by graphviz version 2.38.0 (20140413.2041)
 -->
<!-- Title: G Pages: 1 -->
<svg width="875pt" height="643pt"
 viewBox="0.00 0.00 875.00 642.56" xmlns="http://www.w3.org/2000/svg" xmlns:xlink="http://www.w3.org/1999/xlink">
<g id="graph0" class="graph" transform="scale(1 1) rotate(0) translate(4 638.558)">
<title>G</title>
<polygon fill="white" stroke="none" points="-4,4 -4,-638.558 871,-638.558 871,4 -4,4"/>
<g id="clust1" class="cluster"><title>cluster_pydeps</title>
<polygon fill="none" stroke="black" points="62,-8 62,-553.558 645,-553.558 645,-8 62,-8"/>
<text text-anchor="middle" x="353.5" y="-538.358" font-family="Times New Roman,serif" font-size="14.00">pydeps</text>
</g>
<g id="clust2" class="cluster"><title>cluster_stdliblist</title>
<polygon fill="none" stroke="black" points="653,-396.919 653,-553.558 859,-553.558 859,-396.919 653,-396.919"/>
<text text-anchor="middle" x="756" y="-538.358" font-family="Times New Roman,serif" font-size="14.00">stdliblist</text>
</g>
<!-- pydeps_render_context -->
<g id="node1" class="node"><title>pydeps_render_context</title>
<ellipse fill="#47c2c2" stroke="black" cx="516" cy="-344.492" rx="57.0522" ry="21.4286"/>
<text text-anchor="middle" x="516" y="-347.492" font-family="Helvetica,sans-Serif" font-size="10.00" fill="#000000">pydeps.</text>
<text text-anchor="middle" x="516" y="-336.492" font-family="Helvetica,sans-Serif" font-size="10.00" fill="#000000">render_context</text>
</g>
<!-- pydeps_depgraph2dot -->
<g id="node11" class="node"><title>pydeps_depgraph2dot</title>
<ellipse fill="#3ab0b0" stroke="black" cx="494" cy="-266.066" rx="53.066" ry="21.4286"/>
<text text-anchor="middle" x="494" y="-269.066" font-family="Helvetica,sans-Serif" font-size="10.00" fill="#000000">pydeps.</text>
<text text-anchor="middle" x="494" y="-258.066" font-family="Helvetica,sans-Serif" font-size="10.00" fill="#000000">depgraph2dot</text>
</g>
<!-- pydeps_render_context&#45;&gt;pydeps_depgraph2dot -->
<g id="edge22" class="edge"><title>pydeps_render_context&#45;&gt;pydeps_depgraph2dot</title>
<path fill="none" stroke="black" d="M510.104,-323.012C507.817,-315.067 505.152,-305.808 502.656,-297.135"/>
<polygon fill="#000000" stroke="black" points="505.965,-295.98 499.836,-287.338 499.238,-297.916 505.965,-295.98"/>
</g>
<!-- pydeps_mf27 -->
<g id="node2" class="node"><title>pydeps_mf27</title>
<ellipse fill="#47c2c2" stroke="black" cx="152" cy="-266.066" rx="42.2678" ry="18"/>
<text text-anchor="middle" x="152" y="-263.566" font-family="Helvetica,sans-Serif" font-size="10.00" fill="#000000">pydeps.mf27</text>
</g>
<!-- pydeps_py2depgraph -->
<g id="node15" class="node"><title>pydeps_py2depgraph</title>
<ellipse fill="#309191" stroke="black" cx="343" cy="-187.64" rx="50.8235" ry="21.4286"/>
<text text-anchor="middle" x="343" y="-190.64" font-family="Helvetica,sans-Serif" font-size="10.00" fill="#ffffff">pydeps.</text>
<text text-anchor="middle" x="343" y="-179.64" font-family="Helvetica,sans-Serif" font-size="10.00" fill="#ffffff">py2depgraph</text>
</g>
<!-- pydeps_mf27&#45;&gt;pydeps_py2depgraph -->
<g id="edge15" class="edge"><title>pydeps_mf27&#45;&gt;pydeps_py2depgraph</title>
<path fill="none" stroke="black" d="M181.844,-253.124C212.82,-240.729 261.66,-221.187 297.46,-206.862"/>
<polygon fill="#000000" stroke="black" points="299.202,-209.935 307.186,-202.97 296.602,-203.436 299.202,-209.935"/>
</g>
<!-- pydeps_pycompat -->
<g id="node3" class="node"><title>pydeps_pycompat</title>
<ellipse fill="#26d9d9" stroke="black" cx="268" cy="-501.345" rx="41.9398" ry="21.4286"/>
<text text-anchor="middle" x="268" y="-504.345" font-family="Helvetica,sans-Serif" font-size="10.00" fill="#000000">pydeps.</text>
<text text-anchor="middle" x="268" y="-493.345" font-family="Helvetica,sans-Serif" font-size="10.00" fill="#000000">pycompat</text>
</g>
<!-- pydeps_cli -->
<g id="node6" class="node"><title>pydeps_cli</title>
<ellipse fill="#17d3d3" stroke="black" cx="236" cy="-344.492" rx="35.8171" ry="18"/>
<text text-anchor="middle" x="236" y="-341.992" font-family="Helvetica,sans-Serif" font-size="10.00" fill="#000000">pydeps.cli</text>
</g>
<!-- pydeps_pycompat&#45;&gt;pydeps_cli -->
<g id="edge18" class="edge"><title>pydeps_pycompat&#45;&gt;pydeps_cli</title>
<path fill="none" stroke="black" d="M245.429,-483.492C233.969,-473.482 221.188,-459.715 215,-444.132 205.56,-420.359 213.733,-391.595 222.492,-371.279"/>
<polygon fill="#000000" stroke="black" points="225.742,-372.588 226.763,-362.043 219.389,-369.65 225.742,-372.588"/>
</g>
<!-- pydeps_arguments -->
<g id="node8" class="node"><title>pydeps_arguments</title>
<ellipse fill="#40bfc0" stroke="black" cx="268" cy="-422.919" rx="43.6818" ry="21.4286"/>
<text text-anchor="middle" x="268" y="-425.919" font-family="Helvetica,sans-Serif" font-size="10.00" fill="#000000">pydeps.</text>
<text text-anchor="middle" x="268" y="-414.919" font-family="Helvetica,sans-Serif" font-size="10.00" fill="#000000">arguments</text>
</g>
<!-- pydeps_pycompat&#45;&gt;pydeps_arguments -->
<g id="edge17" class="edge"><title>pydeps_pycompat&#45;&gt;pydeps_arguments</title>
<path fill="none" stroke="black" d="M268,-479.864C268,-472.006 268,-462.861 268,-454.271"/>
<polygon fill="#000000" stroke="black" points="271.5,-454.191 268,-444.191 264.5,-454.191 271.5,-454.191"/>
</g>
<!-- pydeps_depgraph -->
<g id="node10" class="node"><title>pydeps_depgraph</title>
<ellipse fill="#35a1a1" stroke="black" cx="383" cy="-266.066" rx="39.6962" ry="21.4286"/>
<text text-anchor="middle" x="383" y="-269.066" font-family="Helvetica,sans-Serif" font-size="10.00" fill="#000000">pydeps.</text>
<text text-anchor="middle" x="383" y="-258.066" font-family="Helvetica,sans-Serif" font-size="10.00" fill="#000000">depgraph</text>
</g>
<!-- pydeps_pycompat&#45;&gt;pydeps_depgraph -->
<g id="edge19" class="edge"><title>pydeps_pycompat&#45;&gt;pydeps_depgraph</title>
<path fill="none" stroke="black" d="M289.584,-483.053C300.746,-472.91 313.557,-459.156 321,-444.132 345.17,-395.348 319.657,-373.364 341,-323.279 345.534,-312.639 352.482,-302.16 359.429,-293.186"/>
<polygon fill="#000000" stroke="black" points="362.158,-295.377 365.739,-285.405 356.722,-290.967 362.158,-295.377"/>
</g>
<!-- pydeps_pydeps -->
<g id="node4" class="node"><title>pydeps_pydeps</title>
<ellipse fill="#339999" stroke="black" cx="229" cy="-112.426" rx="48.7185" ry="18"/>
<text text-anchor="middle" x="229" y="-109.926" font-family="Helvetica,sans-Serif" font-size="10.00" fill="#ffffff">pydeps.pydeps</text>
</g>
<!-- pydeps___main__ -->
<g id="node5" class="node"><title>pydeps___main__</title>
<ellipse fill="#4cb3b3" stroke="black" cx="229" cy="-37.2132" rx="41.9398" ry="21.4286"/>
<text text-anchor="middle" x="229" y="-40.2132" font-family="Helvetica,sans-Serif" font-size="10.00" fill="#000000">pydeps.</text>
<text text-anchor="middle" x="229" y="-29.2132" font-family="Helvetica,sans-Serif" font-size="10.00" fill="#000000">__main__</text>
</g>
<!-- pydeps_pydeps&#45;&gt;pydeps___main__ -->
<g id="edge20" class="edge"><title>pydeps_pydeps&#45;&gt;pydeps___main__</title>
<path fill="none" stroke="black" d="M229,-94.0759C229,-86.5002 229,-77.3864 229,-68.7384"/>
<polygon fill="#000000" stroke="black" points="232.5,-68.5555 229,-58.5555 225.5,-68.5555 232.5,-68.5555"/>
</g>
<!-- pydeps_cli&#45;&gt;pydeps_pydeps -->
<g id="edge8" class="edge"><title>pydeps_cli&#45;&gt;pydeps_pydeps</title>
<path fill="none" stroke="black" d="M201.034,-340.01C167.292,-334.671 117.535,-321.196 91,-287.279 69.3482,-259.604 83.2267,-243.921 81,-208.853 79.8051,-190.035 70.1445,-181.844 81,-166.426 101.345,-137.53 138.973,-124.306 171.195,-118.293"/>
<polygon fill="#000000" stroke="black" points="172.151,-121.682 181.438,-116.584 170.999,-114.778 172.151,-121.682"/>
</g>
<!-- pydeps_dummymodule -->
<g id="node7" class="node"><title>pydeps_dummymodule</title>
<ellipse fill="#3db8b8" stroke="black" cx="269" cy="-266.066" rx="56.6372" ry="21.4286"/>
<text text-anchor="middle" x="269" y="-269.066" font-family="Helvetica,sans-Serif" font-size="10.00" fill="#000000">pydeps.</text>
<text text-anchor="middle" x="269" y="-258.066" font-family="Helvetica,sans-Serif" font-size="10.00" fill="#000000">dummymodule</text>
</g>
<!-- pydeps_cli&#45;&gt;pydeps_dummymodule -->
<g id="edge7" class="edge"><title>pydeps_cli&#45;&gt;pydeps_dummymodule</title>
<path fill="none" stroke="black" d="M243.324,-326.531C247.123,-317.733 251.873,-306.731 256.251,-296.591"/>
<polygon fill="#000000" stroke="black" points="259.541,-297.802 260.292,-287.234 253.114,-295.027 259.541,-297.802"/>
</g>
<!-- pydeps_dot -->
<g id="node9" class="node"><title>pydeps_dot</title>
<ellipse fill="#3db8b8" stroke="black" cx="128" cy="-187.64" rx="38.0276" ry="18"/>
<text text-anchor="middle" x="128" y="-185.14" font-family="Helvetica,sans-Serif" font-size="10.00" fill="#000000">pydeps.dot</text>
</g>
<!-- pydeps_cli&#45;&gt;pydeps_dot -->
<g id="edge6" class="edge"><title>pydeps_cli&#45;&gt;pydeps_dot</title>
<path fill="none" stroke="black" d="M201.275,-339.706C169.171,-334.158 123.184,-320.547 101,-287.279 86.1556,-265.018 98.1444,-234.784 110.519,-213.678"/>
<polygon fill="#000000" stroke="black" points="113.631,-215.301 115.952,-204.964 107.691,-211.598 113.631,-215.301"/>
</g>
<!-- pydeps_cli&#45;&gt;pydeps_depgraph -->
<g id="edge5" class="edge"><title>pydeps_cli&#45;&gt;pydeps_depgraph</title>
<path fill="none" stroke="black" d="M259.945,-331.043C283.306,-318.898 319.168,-300.253 346.162,-286.218"/>
<polygon fill="#000000" stroke="black" points="348.047,-289.183 355.305,-281.465 344.818,-282.972 348.047,-289.183"/>
</g>
<!-- pydeps_dummymodule&#45;&gt;pydeps_py2depgraph -->
<g id="edge14" class="edge"><title>pydeps_dummymodule&#45;&gt;pydeps_py2depgraph</title>
<path fill="none" stroke="black" d="M287.673,-245.78C296.681,-236.478 307.627,-225.173 317.398,-215.081"/>
<polygon fill="#000000" stroke="black" points="320.147,-217.273 324.589,-207.654 315.118,-212.404 320.147,-217.273"/>
</g>
<!-- pydeps_arguments&#45;&gt;pydeps_cli -->
<g id="edge4" class="edge"><title>pydeps_arguments&#45;&gt;pydeps_cli</title>
<path fill="none" stroke="black" d="M259.592,-401.839C255.731,-392.618 251.103,-381.562 246.972,-371.696"/>
<polygon fill="#000000" stroke="black" points="250.144,-370.211 243.053,-362.338 243.687,-372.914 250.144,-370.211"/>
</g>
<!-- pydeps_dot&#45;&gt;pydeps_pydeps -->
<g id="edge13" class="edge"><title>pydeps_dot&#45;&gt;pydeps_pydeps</title>
<path fill="none" stroke="black" d="M147.954,-172.175C162.641,-161.529 182.849,-146.881 199.412,-134.874"/>
<polygon fill="#000000" stroke="black" points="201.65,-137.575 207.692,-128.872 197.542,-131.907 201.65,-137.575"/>
</g>
<!-- pydeps_depgraph&#45;&gt;pydeps_py2depgraph -->
<g id="edge11" class="edge"><title>pydeps_depgraph&#45;&gt;pydeps_py2depgraph</title>
<path fill="none" stroke="black" d="M372.699,-245.384C368.255,-236.893 362.967,-226.79 358.094,-217.479"/>
<polygon fill="#000000" stroke="black" points="361.143,-215.757 353.405,-208.52 354.941,-219.003 361.143,-215.757"/>
</g>
<!-- pydeps_depgraph2dot&#45;&gt;pydeps_pydeps -->
<g id="edge12" class="edge"><title>pydeps_depgraph2dot&#45;&gt;pydeps_pydeps</title>
<path fill="none" stroke="black" d="M480.885,-245.491C464.981,-223.217 436.15,-187.241 403,-166.426 366.332,-143.403 319.029,-129.839 283.002,-122.205"/>
<polygon fill="#000000" stroke="black" points="283.654,-118.766 273.158,-120.206 282.261,-125.626 283.654,-118.766"/>
</g>
<!-- pydeps_pystdlib -->
<g id="node12" class="node"><title>pydeps_pystdlib</title>
<ellipse fill="#40bfc0" stroke="black" cx="601" cy="-266.066" rx="36.125" ry="21.4286"/>
<text text-anchor="middle" x="601" y="-269.066" font-family="Helvetica,sans-Serif" font-size="10.00" fill="#000000">pydeps.</text>
<text text-anchor="middle" x="601" y="-258.066" font-family="Helvetica,sans-Serif" font-size="10.00" fill="#000000">pystdlib</text>
</g>
<!-- pydeps_pystdlib&#45;&gt;pydeps_py2depgraph -->
<g id="edge21" class="edge"><title>pydeps_pystdlib&#45;&gt;pydeps_py2depgraph</title>
<path fill="none" stroke="black" d="M573.686,-251.938C567.916,-249.409 561.813,-246.91 556,-244.853 503.15,-226.152 440.99,-210.437 397.508,-200.42"/>
<polygon fill="#000000" stroke="black" points="398.228,-196.994 387.7,-198.184 396.672,-203.819 398.228,-196.994"/>
</g>
<!-- pydeps_target -->
<g id="node13" class="node"><title>pydeps_target</title>
<ellipse fill="#47c2c2" stroke="black" cx="229" cy="-187.64" rx="44.978" ry="18"/>
<text text-anchor="middle" x="229" y="-185.14" font-family="Helvetica,sans-Serif" font-size="10.00" fill="#000000">pydeps.target</text>
</g>
<!-- pydeps_target&#45;&gt;pydeps_pydeps -->
<g id="edge23" class="edge"><title>pydeps_target&#45;&gt;pydeps_pydeps</title>
<path fill="none" stroke="black" d="M229,-169.289C229,-160.81 229,-150.403 229,-140.88"/>
<polygon fill="#000000" stroke="black" points="232.5,-140.652 229,-130.652 225.5,-140.652 232.5,-140.652"/>
</g>
<!-- pydeps_colors -->
<g id="node14" class="node"><title>pydeps_colors</title>
<ellipse fill="#3bcece" stroke="black" cx="395" cy="-344.492" rx="45.1548" ry="18"/>
<text text-anchor="middle" x="395" y="-341.992" font-family="Helvetica,sans-Serif" font-size="10.00" fill="#000000">pydeps.colors</text>
</g>
<!-- pydeps_colors&#45;&gt;pydeps_depgraph -->
<g id="edge9" class="edge"><title>pydeps_colors&#45;&gt;pydeps_depgraph</title>
<path fill="none" stroke="black" d="M392.277,-326.15C390.947,-317.676 389.306,-307.227 387.776,-297.485"/>
<polygon fill="#000000" stroke="black" points="391.188,-296.653 386.18,-287.317 384.273,-297.738 391.188,-296.653"/>
</g>
<!-- pydeps_colors&#45;&gt;pydeps_depgraph2dot -->
<g id="edge10" class="edge"><title>pydeps_colors&#45;&gt;pydeps_depgraph2dot</title>
<path fill="none" stroke="black" d="M415.034,-328.026C428.573,-317.575 446.736,-303.553 462.229,-291.593"/>
<polygon fill="#000000" stroke="black" points="464.738,-294.078 470.515,-285.196 460.46,-288.536 464.738,-294.078"/>
</g>
<!-- pydeps_py2depgraph&#45;&gt;pydeps_pydeps -->
<g id="edge16" class="edge"><title>pydeps_py2depgraph&#45;&gt;pydeps_pydeps</title>
<path fill="none" stroke="black" d="M316.272,-169.474C299.796,-158.893 278.566,-145.258 261.17,-134.087"/>
<polygon fill="#000000" stroke="black" points="262.774,-130.957 252.469,-128.498 258.992,-136.847 262.774,-130.957"/>
</g>
<!-- stdlib_list__version -->
<g id="node16" class="node"><title>stdlib_list__version</title>
<ellipse fill="#5353b6" stroke="black" cx="808" cy="-501.345" rx="43.2674" ry="21.4286"/>
<text text-anchor="middle" x="808" y="-504.345" font-family="Helvetica,sans-Serif" font-size="10.00" fill="#ffffff">stdlib_list.</text>
<text text-anchor="middle" x="808" y="-493.345" font-family="Helvetica,sans-Serif" font-size="10.00" fill="#ffffff">_version</text>
</g>
<!-- stdlib_list -->
<g id="node17" class="node"><title>stdlib_list</title>
<ellipse fill="#3d3db8" stroke="black" cx="704" cy="-422.919" rx="34.2855" ry="18"/>
<text text-anchor="middle" x="704" y="-420.419" font-family="Helvetica,sans-Serif" font-size="10.00" fill="#ffffff">stdlib_list</text>
</g>
<!-- stdlib_list__version&#45;&gt;stdlib_list -->
<g id="edge25" class="edge"><title>stdlib_list__version&#45;&gt;stdlib_list</title>
<path fill="none" stroke="black" d="M784.919,-483.384C769.122,-471.775 748.103,-456.329 731.447,-444.089"/>
<polygon fill="#000000" stroke="black" points="733.316,-441.119 723.185,-438.017 729.171,-446.759 733.316,-441.119"/>
</g>
<!-- stdlib_list&#45;&gt;pydeps_pystdlib -->
<g id="edge24" class="edge"><title>stdlib_list&#45;&gt;pydeps_pystdlib</title>
<path fill="none" stroke="black" d="M672.616,-396.95C665.248,-390.29 657.592,-382.684 650.877,-374.628"/>
<polygon fill="#000000" stroke="black" points="653.441,-372.223 644.544,-366.47 647.912,-376.515 653.441,-372.223"/>
</g>
<!-- stdlib_list_base -->
<g id="node18" class="node"><title>stdlib_list_base</title>
<ellipse fill="#4c4cb3" stroke="black" cx="704" cy="-501.345" rx="43.2674" ry="21.4286"/>
<text text-anchor="middle" x="704" y="-504.345" font-family="Helvetica,sans-Serif" font-size="10.00" fill="#ffffff">stdlib_list.</text>
<text text-anchor="middle" x="704" y="-493.345" font-family="Helvetica,sans-Serif" font-size="10.00" fill="#ffffff">base</text>
</g>
<!-- stdlib_list_base&#45;&gt;stdlib_list -->
<g id="edge26" class="edge"><title>stdlib_list_base&#45;&gt;stdlib_list</title>
<path fill="none" stroke="black" d="M704,-479.864C704,-471.126 704,-460.799 704,-451.41"/>
<polygon fill="#000000" stroke="black" points="707.5,-451.345 704,-441.345 700.5,-451.345 707.5,-451.345"/>
</g>
<!-- configparser -->
<g id="node19" class="node"><title>configparser</title>
<ellipse fill="#b6b653" stroke="black" cx="268" cy="-616.558" rx="40.7358" ry="18"/>
<text text-anchor="middle" x="268" y="-614.058" font-family="Helvetica,sans-Serif" font-size="10.00" fill="#000000">configparser</text>
</g>
<!-- configparser&#45;&gt;pydeps_pycompat -->
<g id="edge1" class="edge"><title>configparser&#45;&gt;pydeps_pycompat</title>
<path fill="none" stroke="black" d="M268,-598.364C268,-588.888 268,-576.487 268,-563.759"/>
<polygon fill="#b6b653" stroke="black" points="271.5,-563.531 268,-553.532 264.5,-563.532 271.5,-563.531"/>
</g>
<!-- enum -->
<g id="node20" class="node"><title>enum</title>
<ellipse fill="#47c247" stroke="black" cx="27" cy="-422.919" rx="27" ry="18"/>
<text text-anchor="middle" x="27" y="-420.419" font-family="Helvetica,sans-Serif" font-size="10.00" fill="#000000">enum</text>
</g>
<!-- enum&#45;&gt;pydeps_depgraph -->
<g id="edge2" class="edge"><title>enum&#45;&gt;pydeps_depgraph</title>
<path fill="none" stroke="black" d="M43.0067,-408.138C46.0938,-405.639 49.412,-403.051 53.9397,-399.809"/>
<polygon fill="#47c247" stroke="black" points="55.9612,-402.667 62.1907,-394.097 51.9765,-396.912 55.9612,-402.667"/>
</g>
<!-- enum&#45;&gt;pydeps_py2depgraph -->
<g id="edge3" class="edge"><title>enum&#45;&gt;pydeps_py2depgraph</title>
<path fill="none" stroke="black" d="M28.8444,-404.929C31.8975,-382.361 39.5779,-340.922 57.7209,-302.982"/>
<polygon fill="#47c247" stroke="black" points="60.9054,-304.44 62.2892,-293.936 54.657,-301.285 60.9054,-304.44"/>
</g>
<!-- yaml -->
<g id="node21" class="node"><title>yaml</title>
<polygon fill="#ac49ac" stroke="black" points="707,-362.492 704,-366.492 683,-366.492 680,-362.492 653,-362.492 653,-326.492 707,-326.492 707,-362.492"/>
<text text-anchor="middle" x="680" y="-341.992" font-family="Helvetica,sans-Serif" font-size="10.00" fill="#ffffff">yaml</text>
</g>
<!-- yaml&#45;&gt;pydeps_py2depgraph -->
<g id="edge27" class="edge"><title>yaml&#45;&gt;pydeps_py2depgraph</title>
<path fill="none" stroke="black" d="M679.155,-326.33C677.296,-306.304 671.4,-273.195 651.87,-250.895"/>
<polygon fill="#ac49ac" stroke="black" points="654.271,-248.347 644.71,-243.781 649.337,-253.312 654.271,-248.347"/>
</g>
</g>
</svg>
