<?xml version="1.0" encoding="UTF-8" standalone="no"?>
<!DOCTYPE svg PUBLIC "-//W3C//DTD SVG 1.1//EN"
 "http://www.w3.org/Graphics/SVG/1.1/DTD/svg11.dtd">
<!-- Generated by graphviz version 2.38.0 (20140413.2041)
 -->
<!-- Title: G Pages: 1 -->
<svg width="713pt" height="515pt"
 viewBox="0.00 0.00 713.28 514.56" xmlns="http://www.w3.org/2000/svg" xmlns:xlink="http://www.w3.org/1999/xlink">
<g id="graph0" class="graph" transform="scale(1 1) rotate(0) translate(4 510.558)">
<title>G</title><style>.edge>path:hover{stroke-width:8}</style>
<polygon fill="white" stroke="none" points="-4,4 -4,-510.558 709.276,-510.558 709.276,4 -4,4"/>
<!-- pydeps___main__ -->
<g id="node1" class="node"><title>pydeps___main__</title><style>.edge>path:hover{stroke-width:8}</style>
<ellipse fill="#b34c4c" stroke="black" cx="369.276" cy="-485.345" rx="41.9398" ry="21.4286"/>
<text text-anchor="middle" x="369.276" y="-488.345" font-family="Helvetica,sans-Serif" font-size="10.00" fill="#ffffff">pydeps.</text>
<text text-anchor="middle" x="369.276" y="-477.345" font-family="Helvetica,sans-Serif" font-size="10.00" fill="#ffffff">__main__</text>
</g>
<!-- pydeps_arguments -->
<g id="node2" class="node"><title>pydeps_arguments</title><style>.edge>path:hover{stroke-width:8}</style>
<ellipse fill="#c04040" stroke="black" cx="323.276" cy="-99.6396" rx="43.6818" ry="21.4286"/>
<text text-anchor="middle" x="323.276" y="-102.64" font-family="Helvetica,sans-Serif" font-size="10.00" fill="#ffffff">pydeps.</text>
<text text-anchor="middle" x="323.276" y="-91.6396" font-family="Helvetica,sans-Serif" font-size="10.00" fill="#ffffff">arguments</text>
</g>
<!-- pydeps_cli -->
<g id="node3" class="node"><title>pydeps_cli</title><style>.edge>path:hover{stroke-width:8}</style>
<ellipse fill="#dd1818" stroke="black" cx="320.276" cy="-178.066" rx="35.8171" ry="18"/>
<text text-anchor="middle" x="320.276" y="-175.566" font-family="Helvetica,sans-Serif" font-size="10.00" fill="#ffffff">pydeps.cli</text>
</g>
<!-- pydeps_arguments&#45;&gt;pydeps_cli -->
<g id="edge1" class="edge"><title>pydeps_arguments&#45;&gt;pydeps_cli</title><style>.edge>path:hover{stroke-width:8}</style>
<path fill="none" stroke="black" d="M322.472,-121.12C322.129,-129.859 321.723,-140.186 321.355,-149.574"/>
<polygon fill="#c04040" stroke="black" points="317.855,-149.51 320.96,-159.64 324.849,-149.785 317.855,-149.51"/>
</g>
<!-- pydeps_depgraph -->
<g id="node5" class="node"><title>pydeps_depgraph</title><style>.edge>path:hover{stroke-width:8}</style>
<ellipse fill="#a83838" stroke="black" cx="248.276" cy="-256.492" rx="39.6962" ry="21.4286"/>
<text text-anchor="middle" x="248.276" y="-259.492" font-family="Helvetica,sans-Serif" font-size="10.00" fill="#ffffff">pydeps.</text>
<text text-anchor="middle" x="248.276" y="-248.492" font-family="Helvetica,sans-Serif" font-size="10.00" fill="#ffffff">depgraph</text>
</g>
<!-- pydeps_cli&#45;&gt;pydeps_depgraph -->
<g id="edge2" class="edge"><title>pydeps_cli&#45;&gt;pydeps_depgraph</title><style>.edge>path:hover{stroke-width:8}</style>
<path fill="none" stroke="black" d="M305.705,-194.532C296.2,-204.622 283.56,-218.038 272.559,-229.716"/>
<polygon fill="#dd1818" stroke="black" points="269.926,-227.407 265.616,-237.086 275.021,-232.207 269.926,-227.407"/>
</g>
<!-- pydeps_dot -->
<g id="node7" class="node"><title>pydeps_dot</title><style>.edge>path:hover{stroke-width:8}</style>
<ellipse fill="#b83d3d" stroke="black" cx="316.276" cy="-334.919" rx="38.0276" ry="18"/>
<text text-anchor="middle" x="316.276" y="-332.419" font-family="Helvetica,sans-Serif" font-size="10.00" fill="#ffffff">pydeps.dot</text>
</g>
<!-- pydeps_cli&#45;&gt;pydeps_dot -->
<g id="edge3" class="edge"><title>pydeps_cli&#45;&gt;pydeps_dot</title><style>.edge>path:hover{stroke-width:8}</style>
<path fill="none" stroke="black" d="M316.276,-257.492C311.203,-273.245 311.073,-291.79 312.274,-306.667"/>
<polygon fill="#dd1818" stroke="black" points="308.809,-307.178 313.332,-316.759 315.77,-306.448 308.809,-307.178"/>
</g>
<!-- pydeps_dummymodule -->
<g id="node8" class="node"><title>pydeps_dummymodule</title><style>.edge>path:hover{stroke-width:8}</style>
<ellipse fill="#b83d3d" stroke="black" cx="503.276" cy="-256.492" rx="56.6372" ry="21.4286"/>
<text text-anchor="middle" x="503.276" y="-259.492" font-family="Helvetica,sans-Serif" font-size="10.00" fill="#ffffff">pydeps.</text>
<text text-anchor="middle" x="503.276" y="-248.492" font-family="Helvetica,sans-Serif" font-size="10.00" fill="#ffffff">dummymodule</text>
</g>
<!-- pydeps_cli&#45;&gt;pydeps_dummymodule -->
<g id="edge4" class="edge"><title>pydeps_cli&#45;&gt;pydeps_dummymodule</title><style>.edge>path:hover{stroke-width:8}</style>
<path fill="none" stroke="black" d="M346.885,-190.179C375.7,-202.213 422.202,-221.634 457.023,-236.176"/>
<polygon fill="#dd1818" stroke="black" points="455.933,-239.514 466.509,-240.138 458.631,-233.054 455.933,-239.514"/>
</g>
<!-- pydeps_pydeps -->
<g id="node12" class="node"><title>pydeps_pydeps</title><style>.edge>path:hover{stroke-width:8}</style>
<ellipse fill="#913030" stroke="black" cx="369.276" cy="-410.132" rx="48.7185" ry="18"/>
<text text-anchor="middle" x="369.276" y="-407.632" font-family="Helvetica,sans-Serif" font-size="10.00" fill="#ffffff">pydeps.pydeps</text>
</g>
<!-- pydeps_cli&#45;&gt;pydeps_pydeps -->
<g id="edge5" class="edge"><title>pydeps_cli&#45;&gt;pydeps_pydeps</title><style>.edge>path:hover{stroke-width:8}</style>
<path fill="none" stroke="black" d="M321.847,-196.214C322.723,-212.007 322.588,-235.889 316.276,-255.492"/>
<path fill="none" stroke="black" d="M316.276,-257.492C299.022,-311.075 180.632,-289.55 215.276,-333.919"/>
</g>
<!-- pydeps_colors -->
<g id="node4" class="node"><title>pydeps_colors</title><style>.edge>path:hover{stroke-width:8}</style>
<ellipse fill="#db2f2f" stroke="black" cx="178.276" cy="-178.066" rx="45.1548" ry="18"/>
<text text-anchor="middle" x="178.276" y="-175.566" font-family="Helvetica,sans-Serif" font-size="10.00" fill="#ffffff">pydeps.colors</text>
</g>
<!-- pydeps_colors&#45;&gt;pydeps_depgraph -->
<g id="edge6" class="edge"><title>pydeps_colors&#45;&gt;pydeps_depgraph</title><style>.edge>path:hover{stroke-width:8}</style>
<path fill="none" stroke="black" d="M193.121,-195.274C202.251,-205.242 214.157,-218.241 224.569,-229.61"/>
<polygon fill="#db2f2f" stroke="black" points="222.151,-232.152 231.487,-237.162 227.313,-227.424 222.151,-232.152"/>
</g>
<!-- pydeps_depgraph2dot -->
<g id="node6" class="node"><title>pydeps_depgraph2dot</title><style>.edge>path:hover{stroke-width:8}</style>
<ellipse fill="#b03a3a" stroke="black" cx="99.2756" cy="-256.492" rx="53.066" ry="21.4286"/>
<text text-anchor="middle" x="99.2756" y="-259.492" font-family="Helvetica,sans-Serif" font-size="10.00" fill="#ffffff">pydeps.</text>
<text text-anchor="middle" x="99.2756" y="-248.492" font-family="Helvetica,sans-Serif" font-size="10.00" fill="#ffffff">depgraph2dot</text>
</g>
<!-- pydeps_colors&#45;&gt;pydeps_depgraph2dot -->
<g id="edge7" class="edge"><title>pydeps_colors&#45;&gt;pydeps_depgraph2dot</title><style>.edge>path:hover{stroke-width:8}</style>
<path fill="none" stroke="black" d="M161.907,-194.902C151.6,-204.872 138.05,-217.981 126.19,-229.455"/>
<polygon fill="#db2f2f" stroke="black" points="123.445,-227.241 118.691,-236.709 128.312,-232.272 123.445,-227.241"/>
</g>
<!-- pydeps_colors&#45;&gt;pydeps_pydeps -->
<g id="edge8" class="edge"><title>pydeps_colors&#45;&gt;pydeps_pydeps</title><style>.edge>path:hover{stroke-width:8}</style>
<path fill="none" stroke="black" d="M177.941,-196.383C178.229,-227.276 182.954,-292.525 215.276,-333.919"/>
</g>
<!-- pydeps_py2depgraph -->
<g id="node10" class="node"><title>pydeps_py2depgraph</title><style>.edge>path:hover{stroke-width:8}</style>
<ellipse fill="#993333" stroke="black" cx="423.276" cy="-334.919" rx="50.8235" ry="21.4286"/>
<text text-anchor="middle" x="423.276" y="-337.919" font-family="Helvetica,sans-Serif" font-size="10.00" fill="#ffffff">pydeps.</text>
<text text-anchor="middle" x="423.276" y="-326.919" font-family="Helvetica,sans-Serif" font-size="10.00" fill="#ffffff">py2depgraph</text>
</g>
<!-- pydeps_depgraph&#45;&gt;pydeps_py2depgraph -->
<g id="edge9" class="edge"><title>pydeps_depgraph&#45;&gt;pydeps_py2depgraph</title><style>.edge>path:hover{stroke-width:8}</style>
<path fill="none" stroke="black" d="M278.359,-270.631C306.257,-282.814 348.095,-301.086 379.657,-314.869"/>
<polygon fill="#a83838" stroke="black" points="378.53,-318.197 389.095,-318.991 381.331,-311.782 378.53,-318.197"/>
</g>
<!-- pydeps_depgraph2dot&#45;&gt;pydeps_pydeps -->
<g id="edge10" class="edge"><title>pydeps_depgraph2dot&#45;&gt;pydeps_pydeps</title><style>.edge>path:hover{stroke-width:8}</style>
<path fill="none" stroke="black" d="M215.276,-335.919C240.646,-368.411 283.983,-387.218 318.234,-397.613"/>
<polygon fill="#b03a3a" stroke="black" points="317.507,-401.046 328.085,-400.451 319.444,-394.32 317.507,-401.046"/>
<path fill="none" stroke="black" d="M133.917,-272.726C159.635,-285.642 193.828,-306.451 215.276,-333.919"/>
</g>
<!-- pydeps_dot&#45;&gt;pydeps_pydeps -->
<g id="edge11" class="edge"><title>pydeps_dot&#45;&gt;pydeps_pydeps</title><style>.edge>path:hover{stroke-width:8}</style>
<path fill="none" stroke="black" d="M328.038,-352.167C334.872,-361.608 343.624,-373.697 351.305,-384.308"/>
<polygon fill="#b83d3d" stroke="black" points="348.48,-386.374 357.179,-392.421 354.15,-382.269 348.48,-386.374"/>
</g>
<!-- pydeps_dummymodule&#45;&gt;pydeps_py2depgraph -->
<g id="edge12" class="edge"><title>pydeps_dummymodule&#45;&gt;pydeps_py2depgraph</title><style>.edge>path:hover{stroke-width:8}</style>
<path fill="none" stroke="black" d="M483.5,-276.384C473.425,-286.01 461.027,-297.854 450.103,-308.29"/>
<polygon fill="#b83d3d" stroke="black" points="447.636,-305.806 442.823,-315.244 452.472,-310.867 447.636,-305.806"/>
</g>
<!-- pydeps_mf27 -->
<g id="node9" class="node"><title>pydeps_mf27</title><style>.edge>path:hover{stroke-width:8}</style>
<ellipse fill="#c24747" stroke="black" cx="386.276" cy="-256.492" rx="42.2678" ry="18"/>
<text text-anchor="middle" x="386.276" y="-253.992" font-family="Helvetica,sans-Serif" font-size="10.00" fill="#ffffff">pydeps.mf27</text>
</g>
<!-- pydeps_mf27&#45;&gt;pydeps_py2depgraph -->
<g id="edge13" class="edge"><title>pydeps_mf27&#45;&gt;pydeps_py2depgraph</title><style>.edge>path:hover{stroke-width:8}</style>
<path fill="none" stroke="black" d="M394.487,-274.454C398.823,-283.41 404.264,-294.65 409.246,-304.939"/>
<polygon fill="#c24747" stroke="black" points="406.139,-306.553 413.646,-314.029 412.439,-303.503 406.139,-306.553"/>
</g>
<!-- pydeps_py2depgraph&#45;&gt;pydeps_pydeps -->
<g id="edge14" class="edge"><title>pydeps_py2depgraph&#45;&gt;pydeps_pydeps</title><style>.edge>path:hover{stroke-width:8}</style>
<path fill="none" stroke="black" d="M408.805,-355.539C402.299,-364.359 394.546,-374.871 387.636,-384.239"/>
<polygon fill="#993333" stroke="black" points="384.707,-382.313 381.588,-392.439 390.341,-386.468 384.707,-382.313"/>
</g>
<!-- pydeps_pycompat -->
<g id="node11" class="node"><title>pydeps_pycompat</title><style>.edge>path:hover{stroke-width:8}</style>
<ellipse fill="#ce3b3b" stroke="black" cx="287.276" cy="-21.2132" rx="41.9398" ry="21.4286"/>
<text text-anchor="middle" x="287.276" y="-24.2132" font-family="Helvetica,sans-Serif" font-size="10.00" fill="#ffffff">pydeps.</text>
<text text-anchor="middle" x="287.276" y="-13.2132" font-family="Helvetica,sans-Serif" font-size="10.00" fill="#ffffff">pycompat</text>
</g>
<!-- pydeps_pycompat&#45;&gt;pydeps_arguments -->
<g id="edge15" class="edge"><title>pydeps_pycompat&#45;&gt;pydeps_arguments</title><style>.edge>path:hover{stroke-width:8}</style>
<path fill="none" stroke="black" d="M296.734,-42.2933C300.661,-50.6307 305.295,-60.4672 309.582,-69.5686"/>
<polygon fill="#ce3b3b" stroke="black" points="306.453,-71.1384 313.88,-78.6936 312.785,-68.1555 306.453,-71.1384"/>
</g>
<!-- pydeps_pycompat&#45;&gt;pydeps_depgraph -->
<g id="edge16" class="edge"><title>pydeps_pycompat&#45;&gt;pydeps_depgraph</title><style>.edge>path:hover{stroke-width:8}</style>
<path fill="none" stroke="black" d="M280.296,-42.2921C276.834,-52.9202 272.852,-66.2574 270.276,-78.4264 259.518,-129.235 253.415,-189.438 250.484,-224.938"/>
<polygon fill="#ce3b3b" stroke="black" points="246.978,-224.879 249.674,-235.125 253.956,-225.434 246.978,-224.879"/>
</g>
<!-- pydeps_pydeps&#45;&gt;pydeps___main__ -->
<g id="edge17" class="edge"><title>pydeps_pydeps&#45;&gt;pydeps___main__</title><style>.edge>path:hover{stroke-width:8}</style>
<path fill="none" stroke="black" d="M369.276,-428.483C369.276,-436.058 369.276,-445.172 369.276,-453.82"/>
<polygon fill="#913030" stroke="black" points="365.776,-454.003 369.276,-464.003 372.776,-454.003 365.776,-454.003"/>
</g>
<!-- pydeps_pystdlib -->
<g id="node13" class="node"><title>pydeps_pystdlib</title><style>.edge>path:hover{stroke-width:8}</style>
<ellipse fill="#c04040" stroke="black" cx="614.276" cy="-256.492" rx="36.125" ry="21.4286"/>
<text text-anchor="middle" x="614.276" y="-259.492" font-family="Helvetica,sans-Serif" font-size="10.00" fill="#ffffff">pydeps.</text>
<text text-anchor="middle" x="614.276" y="-248.492" font-family="Helvetica,sans-Serif" font-size="10.00" fill="#ffffff">pystdlib</text>
</g>
<!-- pydeps_pystdlib&#45;&gt;pydeps_py2depgraph -->
<g id="edge18" class="edge"><title>pydeps_pystdlib&#45;&gt;pydeps_py2depgraph</title><style>.edge>path:hover{stroke-width:8}</style>
<path fill="none" stroke="black" d="M586.293,-270.346C580.682,-272.843 574.809,-275.399 569.276,-277.706 536.277,-291.457 498.616,-305.928 469.81,-316.743"/>
<polygon fill="#c04040" stroke="black" points="468.539,-313.482 460.4,-320.264 470.993,-320.038 468.539,-313.482"/>
</g>
<!-- pydeps_render_context -->
<g id="node14" class="node"><title>pydeps_render_context</title><style>.edge>path:hover{stroke-width:8}</style>
<ellipse fill="#c24747" stroke="black" cx="57.2756" cy="-178.066" rx="57.0522" ry="21.4286"/>
<text text-anchor="middle" x="57.2756" y="-181.066" font-family="Helvetica,sans-Serif" font-size="10.00" fill="#ffffff">pydeps.</text>
<text text-anchor="middle" x="57.2756" y="-170.066" font-family="Helvetica,sans-Serif" font-size="10.00" fill="#ffffff">render_context</text>
</g>
<!-- pydeps_render_context&#45;&gt;pydeps_depgraph2dot -->
<g id="edge19" class="edge"><title>pydeps_render_context&#45;&gt;pydeps_depgraph2dot</title><style>.edge>path:hover{stroke-width:8}</style>
<path fill="none" stroke="black" d="M68.3107,-199.146C72.9407,-207.571 78.412,-217.527 83.4576,-226.709"/>
<polygon fill="#c24747" stroke="black" points="80.4308,-228.468 88.3143,-235.546 86.5655,-225.097 80.4308,-228.468"/>
</g>
<!-- pydeps_target -->
<g id="node15" class="node"><title>pydeps_target</title><style>.edge>path:hover{stroke-width:8}</style>
<ellipse fill="#c24747" stroke="black" cx="537.276" cy="-334.919" rx="44.978" ry="18"/>
<text text-anchor="middle" x="537.276" y="-332.419" font-family="Helvetica,sans-Serif" font-size="10.00" fill="#ffffff">pydeps.target</text>
</g>
<!-- pydeps_target&#45;&gt;pydeps_pydeps -->
<g id="edge20" class="edge"><title>pydeps_target&#45;&gt;pydeps_pydeps</title><style>.edge>path:hover{stroke-width:8}</style>
<path fill="none" stroke="black" d="M508.012,-348.672C480.612,-360.612 439.45,-378.551 409.073,-391.789"/>
<polygon fill="#c24747" stroke="black" points="407.389,-388.704 399.62,-395.908 410.186,-395.122 407.389,-388.704"/>
</g>
<!-- stdlib_list -->
<g id="node16" class="node"><title>stdlib_list</title><style>.edge>path:hover{stroke-width:8}</style>
<ellipse fill="#53b653" stroke="black" cx="614.276" cy="-99.6396" rx="34.2855" ry="18"/>
<text text-anchor="middle" x="614.276" y="-97.1396" font-family="Helvetica,sans-Serif" font-size="10.00" fill="#000000">stdlib_list</text>
</g>
<!-- stdlib_list&#45;&gt;pydeps_pystdlib -->
<g id="edge21" class="edge"><title>stdlib_list&#45;&gt;pydeps_pystdlib</title><style>.edge>path:hover{stroke-width:8}</style>
<path fill="none" stroke="black" d="M614.276,-117.803C614.276,-143.626 614.276,-192.854 614.276,-224.913"/>
<polygon fill="#53b653" stroke="black" points="610.776,-225.068 614.276,-235.068 617.776,-225.068 610.776,-225.068"/>
</g>
<!-- yaml -->
<g id="node17" class="node"><title>yaml</title><style>.edge>path:hover{stroke-width:8}</style>
<ellipse fill="#5353b6" stroke="black" cx="678.276" cy="-178.066" rx="27" ry="18"/>
<text text-anchor="middle" x="678.276" y="-175.566" font-family="Helvetica,sans-Serif" font-size="10.00" fill="#ffffff">yaml</text>
</g>
<!-- yaml&#45;&gt;pydeps_py2depgraph -->
<g id="edge22" class="edge"><title>yaml&#45;&gt;pydeps_py2depgraph</title><style>.edge>path:hover{stroke-width:8}</style>
<path fill="none" stroke="black" d="M680.243,-196.302C681.72,-218.312 680.609,-256.126 659.276,-277.706 603.144,-334.485 560.365,-292.921 483.276,-313.706 479.157,-314.816 474.907,-316.055 470.662,-317.357"/>
<polygon fill="#5353b6" stroke="black" points="469.298,-314.117 460.827,-320.48 471.417,-320.789 469.298,-314.117"/>
</g>
</g>
</svg>
