<?xml version="1.0" encoding="UTF-8" standalone="no"?>
<!DOCTYPE svg PUBLIC "-//W3C//DTD SVG 1.1//EN"
 "http://www.w3.org/Graphics/SVG/1.1/DTD/svg11.dtd">
<!-- Generated by graphviz version 2.38.0 (20140413.2041)
 -->
<!-- Title: G Pages: 1 -->
<svg width="764pt" height="666pt"
 viewBox="0.00 0.00 764.15 665.56" xmlns="http://www.w3.org/2000/svg" xmlns:xlink="http://www.w3.org/1999/xlink">
<g id="graph0" class="graph" transform="scale(1 1) rotate(0) translate(4 661.558)">
<title>G</title>
<polygon fill="white" stroke="none" points="-4,4 -4,-661.558 760.148,-661.558 760.148,4 -4,4"/>
<g id="clust1" class="cluster"><title>cluster_configparser</title>
<polygon fill="none" stroke="black" points="48.1483,-574.558 48.1483,-649.558 146.148,-649.558 146.148,-574.558 48.1483,-574.558"/>
<text text-anchor="middle" x="97.1483" y="-634.358" font-family="Times New Roman,serif" font-size="14.00">configparser</text>
</g>
<g id="clust2" class="cluster"><title>cluster_enum</title>
<polygon fill="none" stroke="black" points="320.148,-380.919 320.148,-455.919 390.148,-455.919 390.148,-380.919 320.148,-380.919"/>
<text text-anchor="middle" x="355.148" y="-440.719" font-family="Times New Roman,serif" font-size="14.00">enum</text>
</g>
<g id="clust3" class="cluster"><title>cluster_stdliblist</title>
<polygon fill="none" stroke="black" points="542.148,-380.919 542.148,-537.558 748.148,-537.558 748.148,-380.919 542.148,-380.919"/>
<text text-anchor="middle" x="645.148" y="-522.358" font-family="Times New Roman,serif" font-size="14.00">stdliblist</text>
</g>
<!-- configparser -->
<g id="node1" class="node"><title>configparser</title>
<ellipse fill="#b6b653" stroke="black" cx="97.1483" cy="-600.558" rx="40.7358" ry="18"/>
<text text-anchor="middle" x="97.1483" y="-598.058" font-family="Helvetica,sans-Serif" font-size="10.00" fill="#000000">configparser</text>
</g>
<!-- pydeps_pycompat -->
<g id="node8" class="node"><title>pydeps_pycompat</title>
<ellipse fill="#26d9d9" stroke="black" cx="97.1483" cy="-485.345" rx="41.9398" ry="21.4286"/>
<text text-anchor="middle" x="97.1483" y="-488.345" font-family="Helvetica,sans-Serif" font-size="10.00" fill="#000000">pydeps.</text>
<text text-anchor="middle" x="97.1483" y="-477.345" font-family="Helvetica,sans-Serif" font-size="10.00" fill="#000000">pycompat</text>
</g>
<!-- configparser&#45;&gt;pydeps_pycompat -->
<g id="edge1" class="edge"><title>configparser&#45;&gt;pydeps_pycompat</title>
<path fill="none" stroke="black" d="M97.1483,-575.426C97.1483,-558.31 97.1483,-535.209 97.1483,-516.821"/>
<polygon fill="#000000" stroke="black" points="100.648,-516.774 97.1483,-506.774 93.6484,-516.774 100.648,-516.774"/>
</g>
<!-- enum -->
<g id="node2" class="node"><title>enum</title>
<ellipse fill="#47c247" stroke="black" cx="355.148" cy="-406.919" rx="27" ry="18"/>
<text text-anchor="middle" x="355.148" y="-404.419" font-family="Helvetica,sans-Serif" font-size="10.00" fill="#000000">enum</text>
</g>
<!-- pydeps_depgraph -->
<g id="node15" class="node"><title>pydeps_depgraph</title>
<ellipse fill="#35a1a1" stroke="black" cx="280.148" cy="-250.066" rx="39.6962" ry="21.4286"/>
<text text-anchor="middle" x="280.148" y="-253.066" font-family="Helvetica,sans-Serif" font-size="10.00" fill="#000000">pydeps.</text>
<text text-anchor="middle" x="280.148" y="-242.066" font-family="Helvetica,sans-Serif" font-size="10.00" fill="#000000">depgraph</text>
</g>
<!-- enum&#45;&gt;pydeps_depgraph -->
<g id="edge2" class="edge"><title>enum&#45;&gt;pydeps_depgraph</title>
<path fill="none" stroke="black" d="M320.404,-401.357C289.774,-395.295 246.889,-381.367 226.148,-349.706 215.816,-333.932 219.108,-324.772 226.148,-307.279 231.172,-294.798 240.438,-283.533 249.894,-274.421"/>
<polygon fill="#000000" stroke="black" points="252.373,-276.899 257.441,-267.594 247.677,-271.708 252.373,-276.899"/>
</g>
<!-- pydeps_py2depgraph -->
<g id="node20" class="node"><title>pydeps_py2depgraph</title>
<ellipse fill="#309191" stroke="black" cx="280.148" cy="-171.64" rx="50.8235" ry="21.4286"/>
<text text-anchor="middle" x="280.148" y="-174.64" font-family="Helvetica,sans-Serif" font-size="10.00" fill="#ffffff">pydeps.</text>
<text text-anchor="middle" x="280.148" y="-163.64" font-family="Helvetica,sans-Serif" font-size="10.00" fill="#ffffff">py2depgraph</text>
</g>
<!-- enum&#45;&gt;pydeps_py2depgraph -->
<g id="edge3" class="edge"><title>enum&#45;&gt;pydeps_py2depgraph</title>
<path fill="none" stroke="black" d="M390.142,-398.685C416.357,-391.233 450.462,-376.75 467.148,-349.706 481.544,-326.374 458.199,-234.617 453.148,-228.853 418.412,-189.209 390.237,-209.267 340.148,-192.853 336.212,-191.563 332.134,-190.214 328.042,-188.853"/>
<polygon fill="#000000" stroke="black" points="329.12,-185.523 318.527,-185.674 326.902,-192.163 329.12,-185.523"/>
</g>
<!-- stdlib_list__version -->
<g id="node3" class="node"><title>stdlib_list__version</title>
<ellipse fill="#5353b6" stroke="black" cx="697.148" cy="-485.345" rx="43.2674" ry="21.4286"/>
<text text-anchor="middle" x="697.148" y="-488.345" font-family="Helvetica,sans-Serif" font-size="10.00" fill="#ffffff">stdlib_list.</text>
<text text-anchor="middle" x="697.148" y="-477.345" font-family="Helvetica,sans-Serif" font-size="10.00" fill="#ffffff">_version</text>
</g>
<!-- stdlib_list -->
<g id="node4" class="node"><title>stdlib_list</title>
<ellipse fill="#3d3db8" stroke="black" cx="645.148" cy="-406.919" rx="34.2855" ry="18"/>
<text text-anchor="middle" x="645.148" y="-404.419" font-family="Helvetica,sans-Serif" font-size="10.00" fill="#ffffff">stdlib_list</text>
</g>
<!-- stdlib_list__version&#45;&gt;stdlib_list -->
<g id="edge25" class="edge"><title>stdlib_list__version&#45;&gt;stdlib_list</title>
<path fill="none" stroke="black" d="M684.027,-465.06C677.304,-455.179 669.045,-443.04 661.87,-432.496"/>
<polygon fill="#000000" stroke="black" points="664.675,-430.397 656.156,-424.098 658.888,-434.334 664.675,-430.397"/>
</g>
<!-- pydeps_pystdlib -->
<g id="node17" class="node"><title>pydeps_pystdlib</title>
<ellipse fill="#40bfc0" stroke="black" cx="645.148" cy="-250.066" rx="36.125" ry="21.4286"/>
<text text-anchor="middle" x="645.148" y="-253.066" font-family="Helvetica,sans-Serif" font-size="10.00" fill="#000000">pydeps.</text>
<text text-anchor="middle" x="645.148" y="-242.066" font-family="Helvetica,sans-Serif" font-size="10.00" fill="#000000">pystdlib</text>
</g>
<!-- stdlib_list&#45;&gt;pydeps_pystdlib -->
<g id="edge24" class="edge"><title>stdlib_list&#45;&gt;pydeps_pystdlib</title>
<path fill="none" stroke="black" d="M645.148,-381.258C645.148,-354.225 645.148,-310.824 645.148,-281.646"/>
<polygon fill="#000000" stroke="black" points="648.648,-281.491 645.148,-271.491 641.648,-281.491 648.648,-281.491"/>
</g>
<!-- stdlib_list_base -->
<g id="node5" class="node"><title>stdlib_list_base</title>
<ellipse fill="#4c4cb3" stroke="black" cx="593.148" cy="-485.345" rx="43.2674" ry="21.4286"/>
<text text-anchor="middle" x="593.148" y="-488.345" font-family="Helvetica,sans-Serif" font-size="10.00" fill="#ffffff">stdlib_list.</text>
<text text-anchor="middle" x="593.148" y="-477.345" font-family="Helvetica,sans-Serif" font-size="10.00" fill="#ffffff">base</text>
</g>
<!-- stdlib_list_base&#45;&gt;stdlib_list -->
<g id="edge26" class="edge"><title>stdlib_list_base&#45;&gt;stdlib_list</title>
<path fill="none" stroke="black" d="M606.27,-465.06C612.993,-455.179 621.252,-443.04 628.426,-432.496"/>
<polygon fill="#000000" stroke="black" points="631.409,-434.334 634.14,-424.098 625.621,-430.397 631.409,-434.334"/>
</g>
<!-- pydeps_render_context -->
<g id="node6" class="node"><title>pydeps_render_context</title>
<ellipse fill="#47c2c2" stroke="black" cx="401.148" cy="-328.492" rx="57.0522" ry="21.4286"/>
<text text-anchor="middle" x="401.148" y="-331.492" font-family="Helvetica,sans-Serif" font-size="10.00" fill="#000000">pydeps.</text>
<text text-anchor="middle" x="401.148" y="-320.492" font-family="Helvetica,sans-Serif" font-size="10.00" fill="#000000">render_context</text>
</g>
<!-- pydeps_depgraph2dot -->
<g id="node16" class="node"><title>pydeps_depgraph2dot</title>
<ellipse fill="#3ab0b0" stroke="black" cx="391.148" cy="-250.066" rx="53.066" ry="21.4286"/>
<text text-anchor="middle" x="391.148" y="-253.066" font-family="Helvetica,sans-Serif" font-size="10.00" fill="#000000">pydeps.</text>
<text text-anchor="middle" x="391.148" y="-242.066" font-family="Helvetica,sans-Serif" font-size="10.00" fill="#000000">depgraph2dot</text>
</g>
<!-- pydeps_render_context&#45;&gt;pydeps_depgraph2dot -->
<g id="edge22" class="edge"><title>pydeps_render_context&#45;&gt;pydeps_depgraph2dot</title>
<path fill="none" stroke="black" d="M398.469,-307.012C397.44,-299.153 396.244,-290.009 395.12,-281.418"/>
<polygon fill="#47c2c2" stroke="black" points="398.569,-280.8 393.801,-271.338 391.628,-281.708 398.569,-280.8"/>
</g>
<!-- pydeps_mf27 -->
<g id="node7" class="node"><title>pydeps_mf27</title>
<ellipse fill="#47c2c2" stroke="black" cx="549.148" cy="-250.066" rx="42.2678" ry="18"/>
<text text-anchor="middle" x="549.148" y="-247.566" font-family="Helvetica,sans-Serif" font-size="10.00" fill="#000000">pydeps.mf27</text>
</g>
<!-- pydeps_mf27&#45;&gt;pydeps_py2depgraph -->
<g id="edge15" class="edge"><title>pydeps_mf27&#45;&gt;pydeps_py2depgraph</title>
<path fill="none" stroke="black" d="M518.843,-237.407C510.573,-234.423 501.57,-231.355 493.148,-228.853 426.183,-208.961 407.323,-212.025 340.148,-192.853 336.105,-191.699 331.931,-190.439 327.755,-189.129"/>
<polygon fill="#47c2c2" stroke="black" points="328.66,-185.744 318.068,-186.013 326.516,-192.407 328.66,-185.744"/>
</g>
<!-- pydeps_cli -->
<g id="node11" class="node"><title>pydeps_cli</title>
<ellipse fill="#17d3d3" stroke="black" cx="75.1483" cy="-328.492" rx="35.8171" ry="18"/>
<text text-anchor="middle" x="75.1483" y="-325.992" font-family="Helvetica,sans-Serif" font-size="10.00" fill="#000000">pydeps.cli</text>
</g>
<!-- pydeps_pycompat&#45;&gt;pydeps_cli -->
<g id="edge18" class="edge"><title>pydeps_pycompat&#45;&gt;pydeps_cli</title>
<path fill="none" stroke="black" d="M63.0713,-472.982C55.5626,-468.823 48.5448,-463.266 44.1483,-455.919 27.032,-427.316 35.2175,-413.033 44.1483,-380.919 46.7459,-371.578 51.5474,-362.237 56.6086,-354.129"/>
<polygon fill="#26d9d9" stroke="black" points="59.6857,-355.823 62.3297,-345.564 53.8648,-351.935 59.6857,-355.823"/>
</g>
<!-- pydeps_arguments -->
<g id="node13" class="node"><title>pydeps_arguments</title>
<ellipse fill="#40bfc0" stroke="black" cx="97.1483" cy="-406.919" rx="43.6818" ry="21.4286"/>
<text text-anchor="middle" x="97.1483" y="-409.919" font-family="Helvetica,sans-Serif" font-size="10.00" fill="#000000">pydeps.</text>
<text text-anchor="middle" x="97.1483" y="-398.919" font-family="Helvetica,sans-Serif" font-size="10.00" fill="#000000">arguments</text>
</g>
<!-- pydeps_pycompat&#45;&gt;pydeps_arguments -->
<g id="edge17" class="edge"><title>pydeps_pycompat&#45;&gt;pydeps_arguments</title>
<path fill="none" stroke="black" d="M97.1483,-463.864C97.1483,-456.006 97.1483,-446.861 97.1483,-438.271"/>
<polygon fill="#26d9d9" stroke="black" points="100.648,-438.191 97.1483,-428.191 93.6484,-438.191 100.648,-438.191"/>
</g>
<!-- pydeps_pycompat&#45;&gt;pydeps_depgraph -->
<g id="edge19" class="edge"><title>pydeps_pycompat&#45;&gt;pydeps_depgraph</title>
<path fill="none" stroke="black" d="M129.246,-471.497C136.793,-467.366 144.324,-462.194 150.148,-455.919 199.322,-402.942 173.332,-365.515 216.148,-307.279 225.242,-294.911 237.483,-283.331 248.825,-273.933"/>
<polygon fill="#26d9d9" stroke="black" points="251.247,-276.477 256.867,-267.495 246.873,-271.012 251.247,-276.477"/>
</g>
<!-- pydeps_pydeps -->
<g id="node9" class="node"><title>pydeps_pydeps</title>
<ellipse fill="#339999" stroke="black" cx="201.148" cy="-96.4264" rx="48.7185" ry="18"/>
<text text-anchor="middle" x="201.148" y="-93.9264" font-family="Helvetica,sans-Serif" font-size="10.00" fill="#ffffff">pydeps.pydeps</text>
</g>
<!-- pydeps___main__ -->
<g id="node10" class="node"><title>pydeps___main__</title>
<ellipse fill="#4cb3b3" stroke="black" cx="201.148" cy="-21.2132" rx="41.9398" ry="21.4286"/>
<text text-anchor="middle" x="201.148" y="-24.2132" font-family="Helvetica,sans-Serif" font-size="10.00" fill="#000000">pydeps.</text>
<text text-anchor="middle" x="201.148" y="-13.2132" font-family="Helvetica,sans-Serif" font-size="10.00" fill="#000000">__main__</text>
</g>
<!-- pydeps_pydeps&#45;&gt;pydeps___main__ -->
<g id="edge20" class="edge"><title>pydeps_pydeps&#45;&gt;pydeps___main__</title>
<path fill="none" stroke="black" d="M201.148,-78.0759C201.148,-70.5002 201.148,-61.3864 201.148,-52.7384"/>
<polygon fill="#339999" stroke="black" points="204.648,-52.5555 201.148,-42.5555 197.648,-52.5555 204.648,-52.5555"/>
</g>
<!-- pydeps_cli&#45;&gt;pydeps_pydeps -->
<g id="edge8" class="edge"><title>pydeps_cli&#45;&gt;pydeps_pydeps</title>
<path fill="none" stroke="black" d="M50.8607,-315.156C34.916,-305.583 15.3659,-290.678 6.14834,-271.279 -1.94432,-254.248 -2.10201,-245.808 6.14834,-228.853 35.6442,-168.235 108.218,-131.137 156.027,-112.437"/>
<polygon fill="#17d3d3" stroke="black" points="157.424,-115.651 165.533,-108.832 154.942,-109.105 157.424,-115.651"/>
</g>
<!-- pydeps_dummymodule -->
<g id="node12" class="node"><title>pydeps_dummymodule</title>
<ellipse fill="#3db8b8" stroke="black" cx="166.148" cy="-250.066" rx="56.6372" ry="21.4286"/>
<text text-anchor="middle" x="166.148" y="-253.066" font-family="Helvetica,sans-Serif" font-size="10.00" fill="#000000">pydeps.</text>
<text text-anchor="middle" x="166.148" y="-242.066" font-family="Helvetica,sans-Serif" font-size="10.00" fill="#000000">dummymodule</text>
</g>
<!-- pydeps_cli&#45;&gt;pydeps_dummymodule -->
<g id="edge7" class="edge"><title>pydeps_cli&#45;&gt;pydeps_dummymodule</title>
<path fill="none" stroke="black" d="M92.6941,-312.757C104.983,-302.436 121.714,-288.385 136.104,-276.299"/>
<polygon fill="#17d3d3" stroke="black" points="138.408,-278.935 143.814,-269.823 133.906,-273.574 138.408,-278.935"/>
</g>
<!-- pydeps_dot -->
<g id="node14" class="node"><title>pydeps_dot</title>
<ellipse fill="#3db8b8" stroke="black" cx="53.1483" cy="-250.066" rx="38.0276" ry="18"/>
<text text-anchor="middle" x="53.1483" y="-247.566" font-family="Helvetica,sans-Serif" font-size="10.00" fill="#000000">pydeps.dot</text>
</g>
<!-- pydeps_cli&#45;&gt;pydeps_dot -->
<g id="edge6" class="edge"><title>pydeps_cli&#45;&gt;pydeps_dot</title>
<path fill="none" stroke="black" d="M70.2658,-310.531C67.503,-300.933 63.9853,-288.713 60.8582,-277.85"/>
<polygon fill="#17d3d3" stroke="black" points="64.147,-276.622 58.0172,-267.98 57.4201,-278.558 64.147,-276.622"/>
</g>
<!-- pydeps_cli&#45;&gt;pydeps_depgraph -->
<g id="edge5" class="edge"><title>pydeps_cli&#45;&gt;pydeps_depgraph</title>
<path fill="none" stroke="black" d="M103.972,-317.703C135.596,-306.839 187.767,-288.554 232.148,-271.279 234.965,-270.183 237.864,-269.029 240.776,-267.85"/>
<polygon fill="#17d3d3" stroke="black" points="242.118,-271.082 250.037,-264.043 239.457,-264.608 242.118,-271.082"/>
</g>
<!-- pydeps_dummymodule&#45;&gt;pydeps_py2depgraph -->
<g id="edge14" class="edge"><title>pydeps_dummymodule&#45;&gt;pydeps_py2depgraph</title>
<path fill="none" stroke="black" d="M192.876,-231.147C208.568,-220.628 228.572,-207.217 245.468,-195.89"/>
<polygon fill="#3db8b8" stroke="black" points="247.624,-198.658 253.981,-190.182 243.726,-192.844 247.624,-198.658"/>
</g>
<!-- pydeps_arguments&#45;&gt;pydeps_cli -->
<g id="edge4" class="edge"><title>pydeps_arguments&#45;&gt;pydeps_cli</title>
<path fill="none" stroke="black" d="M91.3681,-385.839C88.7414,-376.714 85.5977,-365.793 82.7802,-356.005"/>
<polygon fill="#40bfc0" stroke="black" points="86.1274,-354.98 79.9976,-346.338 79.4005,-356.916 86.1274,-354.98"/>
</g>
<!-- pydeps_dot&#45;&gt;pydeps_pydeps -->
<g id="edge13" class="edge"><title>pydeps_dot&#45;&gt;pydeps_pydeps</title>
<path fill="none" stroke="black" d="M68.4295,-233.409C94.438,-206.761 147.455,-152.44 178.023,-121.12"/>
<polygon fill="#3db8b8" stroke="black" points="180.801,-123.285 185.281,-113.684 175.792,-118.396 180.801,-123.285"/>
</g>
<!-- pydeps_depgraph&#45;&gt;pydeps_py2depgraph -->
<g id="edge11" class="edge"><title>pydeps_depgraph&#45;&gt;pydeps_py2depgraph</title>
<path fill="none" stroke="black" d="M280.148,-228.585C280.148,-220.726 280.148,-211.582 280.148,-202.992"/>
<polygon fill="#35a1a1" stroke="black" points="283.648,-202.912 280.148,-192.912 276.648,-202.912 283.648,-202.912"/>
</g>
<!-- pydeps_depgraph2dot&#45;&gt;pydeps_pydeps -->
<g id="edge12" class="edge"><title>pydeps_depgraph2dot&#45;&gt;pydeps_pydeps</title>
<path fill="none" stroke="black" d="M351.141,-235.982C300.693,-219.473 220.432,-193.174 220.148,-192.853 203.744,-174.331 199.891,-145.766 199.597,-124.713"/>
<polygon fill="#3ab0b0" stroke="black" points="203.1,-124.523 199.721,-114.481 196.1,-124.438 203.1,-124.523"/>
</g>
<!-- pydeps_pystdlib&#45;&gt;pydeps_py2depgraph -->
<g id="edge21" class="edge"><title>pydeps_pystdlib&#45;&gt;pydeps_py2depgraph</title>
<path fill="none" stroke="black" d="M618.491,-235.598C612.569,-233.031 606.239,-230.604 600.148,-228.853 488.03,-196.627 453.701,-219.592 340.148,-192.853 335.818,-191.833 331.358,-190.631 326.917,-189.329"/>
<polygon fill="#40bfc0" stroke="black" points="327.87,-185.96 317.282,-186.352 325.804,-192.648 327.87,-185.96"/>
</g>
<!-- pydeps_target -->
<g id="node18" class="node"><title>pydeps_target</title>
<ellipse fill="#47c2c2" stroke="black" cx="394.148" cy="-171.64" rx="44.978" ry="18"/>
<text text-anchor="middle" x="394.148" y="-169.14" font-family="Helvetica,sans-Serif" font-size="10.00" fill="#000000">pydeps.target</text>
</g>
<!-- pydeps_target&#45;&gt;pydeps_pydeps -->
<g id="edge23" class="edge"><title>pydeps_target&#45;&gt;pydeps_pydeps</title>
<path fill="none" stroke="black" d="M362.71,-158.714C330.295,-146.417 279.548,-127.167 243.587,-113.525"/>
<polygon fill="#47c2c2" stroke="black" points="244.456,-110.111 233.864,-109.837 241.973,-116.656 244.456,-110.111"/>
</g>
<!-- pydeps_colors -->
<g id="node19" class="node"><title>pydeps_colors</title>
<ellipse fill="#3bcece" stroke="black" cx="280.148" cy="-328.492" rx="45.1548" ry="18"/>
<text text-anchor="middle" x="280.148" y="-325.992" font-family="Helvetica,sans-Serif" font-size="10.00" fill="#000000">pydeps.colors</text>
</g>
<!-- pydeps_colors&#45;&gt;pydeps_depgraph -->
<g id="edge9" class="edge"><title>pydeps_colors&#45;&gt;pydeps_depgraph</title>
<path fill="none" stroke="black" d="M280.148,-310.15C280.148,-301.676 280.148,-291.227 280.148,-281.485"/>
<polygon fill="#3bcece" stroke="black" points="283.648,-281.316 280.148,-271.317 276.648,-281.317 283.648,-281.316"/>
</g>
<!-- pydeps_colors&#45;&gt;pydeps_depgraph2dot -->
<g id="edge10" class="edge"><title>pydeps_colors&#45;&gt;pydeps_depgraph2dot</title>
<path fill="none" stroke="black" d="M301.814,-312.575C317.429,-301.824 338.823,-287.094 356.759,-274.744"/>
<polygon fill="#3bcece" stroke="black" points="358.995,-277.454 365.246,-268.9 355.025,-271.689 358.995,-277.454"/>
</g>
<!-- pydeps_py2depgraph&#45;&gt;pydeps_pydeps -->
<g id="edge16" class="edge"><title>pydeps_py2depgraph&#45;&gt;pydeps_pydeps</title>
<path fill="none" stroke="black" d="M259.804,-151.785C249.503,-142.239 236.909,-130.568 226.036,-120.491"/>
<polygon fill="#309191" stroke="black" points="228.193,-117.718 218.479,-113.488 223.435,-122.852 228.193,-117.718"/>
</g>
<!-- yaml -->
<g id="node21" class="node"><title>yaml</title>
<polygon fill="#ac49ac" stroke="black" points="736.148,-346.492 733.148,-350.492 712.148,-350.492 709.148,-346.492 682.148,-346.492 682.148,-310.492 736.148,-310.492 736.148,-346.492"/>
<text text-anchor="middle" x="709.148" y="-325.992" font-family="Helvetica,sans-Serif" font-size="10.00" fill="#ffffff">yaml</text>
</g>
<!-- yaml&#45;&gt;pydeps_py2depgraph -->
<g id="edge27" class="edge"><title>yaml&#45;&gt;pydeps_py2depgraph</title>
<path fill="none" stroke="black" d="M711.405,-310.307C713.27,-287.991 712.655,-249.466 690.148,-228.853 632.488,-176.045 416.558,-209.436 340.148,-192.853 335.739,-191.896 331.201,-190.726 326.69,-189.436"/>
<polygon fill="#ac49ac" stroke="black" points="327.5,-186.025 316.914,-186.458 325.46,-192.721 327.5,-186.025"/>
</g>
</g>
</svg>
